{"glyphs":{"0":{"ha":689,"x_min":1,"x_max":671,"o":"m 639 396 q 639 374 631 385 q 640 365 642 367 q 635 358 638 363 q 632 366 633 363 q 631 374 631 369 q 629 372 629 374 q 628 371 629 371 q 626 369 628 369 q 624 365 625 368 q 618 327 621 346 q 611 290 615 308 q 606 272 610 281 q 600 256 603 264 q 592 247 597 249 q 576 233 582 240 q 565 215 571 225 q 562 210 565 213 q 556 206 558 208 q 554 197 554 203 l 567 206 l 567 197 q 561 175 558 188 q 556 161 561 169 q 550 163 554 163 q 553 178 553 168 q 554 192 554 182 q 543 179 543 189 q 531 147 544 164 q 522 137 525 143 q 511 126 518 131 q 510 121 511 122 q 506 108 507 110 q 493 110 504 107 q 499 118 499 113 q 503 128 500 124 q 506 142 504 135 q 515 156 508 149 q 519 165 518 160 q 524 175 521 169 q 499 156 510 168 q 482 132 489 143 q 478 122 481 126 q 472 113 475 117 l 461 94 q 455 87 458 90 q 443 85 451 83 q 438 63 439 74 q 443 42 436 53 q 436 39 439 42 q 432 49 433 44 q 429 57 431 53 q 424 44 429 50 q 413 32 418 38 q 385 22 403 21 q 371 7 382 10 q 351 -3 360 4 q 345 -5 349 -4 q 339 -8 342 -6 q 293 -24 317 -24 q 267 -24 281 -24 q 243 -22 254 -25 q 144 33 189 -4 q 124 54 133 44 q 104 75 114 64 q 97 93 96 83 q 92 108 100 100 q 85 119 89 114 q 79 128 82 124 q 78 137 78 132 q 79 146 79 142 q 67 156 74 146 q 46 185 61 178 q 44 187 44 185 q 42 190 44 189 q 35 203 39 197 q 28 215 32 208 q 4 267 13 236 q 11 271 10 268 q 9 286 10 278 q 11 301 8 294 l 11 310 q 8 319 8 314 q 7 329 8 324 q 8 357 1 343 q 10 374 13 365 q 7 390 8 382 q 6 399 7 394 q 8 406 4 403 q 10 411 10 407 q 10 418 10 415 q 15 442 10 431 q 19 449 18 444 q 21 456 19 453 q 10 458 17 458 q 11 464 11 461 q 14 469 11 467 q 16 476 15 472 q 19 483 17 481 q 23 503 22 494 q 32 521 24 513 q 35 533 35 526 q 39 547 36 540 q 45 569 42 558 q 51 590 49 579 q 60 615 56 603 q 67 638 64 626 q 76 667 74 653 q 82 694 78 681 q 85 711 83 703 q 90 729 88 719 q 94 742 93 735 q 101 757 94 750 q 103 768 99 764 q 110 779 107 772 q 111 781 110 779 l 113 782 q 111 795 106 792 q 121 801 117 799 q 122 804 122 801 q 131 819 126 811 q 139 836 136 828 q 146 850 143 843 q 153 864 149 857 q 162 880 157 872 q 172 897 167 888 l 197 926 q 204 934 201 929 q 214 939 207 939 q 218 944 213 939 q 222 955 219 953 q 231 960 224 957 q 238 964 233 960 q 241 967 239 965 q 240 972 243 969 q 232 976 236 976 q 218 974 229 976 l 256 1015 q 260 1013 257 1014 q 265 1011 263 1013 q 308 981 288 996 q 349 947 329 967 q 359 938 354 942 q 364 926 364 933 l 364 925 q 361 907 363 915 q 357 892 360 899 q 342 863 353 879 q 326 844 335 850 q 315 830 319 838 q 307 814 311 822 q 298 797 303 804 q 288 782 293 789 q 279 767 283 775 q 269 753 275 760 q 252 723 261 738 q 236 693 243 708 l 225 671 q 213 647 217 660 q 203 621 208 635 q 199 612 201 615 q 194 603 197 608 q 183 581 186 593 q 176 558 179 569 q 168 533 172 546 q 157 508 164 521 q 153 504 157 506 q 143 493 147 499 q 138 481 139 488 q 133 478 138 478 l 133 476 q 131 478 132 478 q 128 482 131 479 q 125 469 125 471 l 125 468 q 121 464 121 468 q 111 442 115 453 q 104 421 107 432 q 103 403 103 411 q 104 386 104 394 q 103 351 103 369 q 103 315 103 333 q 107 263 103 289 q 115 279 113 271 q 114 299 118 288 l 114 300 q 119 310 118 304 q 119 322 119 315 l 122 319 q 120 306 118 313 q 125 293 122 300 q 121 268 129 276 q 112 249 110 258 q 119 229 114 240 q 133 206 125 217 q 147 185 140 196 q 163 165 154 174 q 181 146 172 157 q 211 121 196 132 q 244 99 226 110 q 285 83 269 83 q 325 99 301 82 q 376 136 353 117 q 418 181 399 156 q 435 200 426 190 q 450 221 443 210 q 476 271 465 246 q 494 324 488 296 l 494 325 q 497 328 494 325 l 503 328 l 506 333 q 528 396 518 365 q 543 458 538 426 q 547 477 544 468 q 553 497 550 486 q 556 526 557 513 q 554 556 556 540 q 550 592 553 575 q 549 629 547 610 q 542 647 550 640 q 538 653 539 649 q 540 660 538 657 l 544 654 q 545 676 549 665 q 540 697 542 686 q 538 718 540 708 q 535 739 536 728 q 528 760 532 750 q 525 781 525 771 q 518 824 525 800 q 510 822 513 824 l 499 869 q 492 892 497 879 l 474 921 q 461 926 469 926 l 461 931 q 448 948 453 938 q 432 964 443 958 q 418 975 425 965 q 417 982 417 976 q 406 994 417 990 q 404 988 404 990 q 401 982 404 985 q 381 990 392 986 q 374 1010 371 993 q 347 1015 360 1011 q 325 1031 335 1019 q 313 1046 318 1038 q 304 1063 307 1054 q 301 1069 301 1065 q 301 1078 301 1072 q 331 1064 318 1071 q 358 1050 343 1057 q 353 1058 356 1056 q 339 1067 351 1060 q 328 1073 333 1069 q 317 1079 322 1076 q 303 1083 310 1083 q 293 1090 297 1083 q 303 1095 299 1096 q 314 1094 308 1094 q 354 1085 335 1092 q 392 1069 374 1078 q 507 994 458 1038 q 544 956 528 979 q 558 942 551 949 q 574 929 565 936 q 578 924 576 926 q 583 919 581 922 q 604 904 589 904 q 608 902 606 904 q 611 897 611 900 q 616 878 611 886 q 624 863 621 871 q 634 839 629 850 q 640 815 639 828 q 647 793 643 804 q 653 771 650 782 q 656 750 654 760 q 660 729 657 740 q 663 714 661 722 q 664 697 664 706 q 666 673 665 686 q 667 646 667 660 l 667 589 q 668 547 668 568 q 671 504 668 526 q 669 495 671 500 q 668 488 668 490 l 665 488 q 664 510 664 499 q 661 533 664 521 q 656 519 657 522 q 658 508 656 517 q 657 499 658 503 q 654 490 656 496 q 648 463 651 476 q 642 433 644 449 q 643 414 642 421 q 644 403 646 407 q 639 396 642 400 q 636 411 643 403 q 636 402 636 406 q 639 396 636 399 m 143 451 q 144 432 146 436 q 142 413 143 421 q 143 396 140 404 q 140 384 143 389 q 133 374 136 379 l 132 374 q 128 371 131 374 q 129 383 128 378 q 131 396 131 389 q 128 397 129 396 q 121 401 126 399 l 126 408 q 126 426 117 417 q 133 435 131 431 q 138 444 135 440 q 140 447 139 446 q 143 451 140 447 m 168 42 q 193 28 178 32 q 180 38 186 33 q 168 50 174 43 q 150 68 153 60 q 145 78 147 74 q 138 86 143 82 q 132 96 129 89 q 127 108 132 104 q 115 117 122 111 l 115 108 q 122 90 119 104 q 126 83 125 88 q 131 75 126 78 q 137 69 133 72 q 143 63 140 67 q 168 42 153 51 m 215 47 q 238 39 228 40 q 275 39 256 31 q 242 48 258 44 q 210 56 226 51 q 208 54 208 56 q 207 53 208 53 q 215 47 210 50 m 238 31 q 270 18 253 18 q 301 32 288 18 q 284 30 292 31 q 269 29 276 29 q 254 30 261 29 q 238 31 247 31 m 438 975 q 422 1003 438 992 l 425 975 l 438 975 m 639 654 q 643 662 644 657 q 640 669 642 667 q 641 678 640 674 q 635 685 642 682 q 634 666 633 669 q 639 654 635 663 m 131 308 q 129 318 128 314 q 133 325 131 322 q 140 331 136 328 q 143 339 143 335 q 144 329 146 331 q 138 321 143 328 q 134 315 135 318 q 131 308 133 311 m 386 1035 q 401 1015 397 1018 q 411 1014 404 1013 q 399 1026 404 1021 q 386 1035 393 1031 m 488 88 q 488 99 486 94 q 493 108 490 104 q 495 97 500 101 q 488 88 490 93 m 175 63 q 176 55 176 58 q 182 51 175 51 l 188 56 q 182 58 185 57 q 175 63 179 60 m 228 33 q 218 32 221 33 l 218 29 l 228 22 l 228 33 m 40 585 q 42 576 44 578 q 36 567 39 574 q 40 585 32 576 m 33 563 q 35 553 36 556 q 29 543 35 551 q 31 553 29 550 q 33 563 32 557 m 203 51 q 206 54 206 53 q 207 56 206 56 q 196 60 204 61 q 203 51 201 56 m 274 881 q 270 877 271 879 q 268 874 269 875 q 271 871 268 874 q 276 879 275 875 q 275 880 275 879 q 274 881 275 881 m 568 949 q 567 947 567 949 l 558 954 l 561 957 q 568 949 563 954 m 394 1000 l 389 1004 q 388 1003 388 1004 q 392 996 388 1001 l 394 1000 m 635 686 q 638 694 638 693 q 633 699 638 696 q 634 694 633 696 q 635 686 635 692 m 40 603 q 39 593 50 596 q 40 603 40 596 m 293 893 q 289 892 290 892 l 289 886 q 292 888 289 886 q 293 889 293 888 l 293 893 m 101 844 q 101 844 101 843 q 100 846 100 844 l 103 849 q 105 848 104 849 q 108 846 106 847 q 101 844 104 844 m 465 911 q 460 918 461 915 q 461 925 460 921 q 465 911 461 919 z "},"1":{"ha":450,"x_min":-18,"x_max":442,"o":"m 251 1010 q 264 1024 258 1015 q 281 1035 269 1032 q 285 1038 283 1035 q 285 1046 288 1042 q 272 1047 275 1049 q 264 1039 268 1046 q 260 1032 261 1035 q 254 1029 260 1029 q 243 1018 243 1029 q 240 1008 243 1014 q 239 1006 240 1006 q 236 1004 238 1006 q 233 1013 233 1013 q 229 1012 231 1013 q 225 1011 228 1011 q 232 1022 225 1018 q 242 1031 239 1025 q 254 1046 249 1042 q 262 1058 258 1053 q 271 1068 265 1063 q 283 1071 272 1071 q 296 1068 290 1071 q 294 1076 296 1075 q 283 1079 293 1078 l 289 1088 q 304 1081 300 1086 q 311 1068 308 1075 l 325 1076 l 372 1072 l 383 1056 q 389 1054 383 1054 q 390 1061 392 1057 q 396 1068 388 1065 q 397 1064 396 1065 q 399 1061 399 1063 l 413 1061 l 413 1044 q 442 1039 429 1042 q 435 1006 439 1022 q 431 975 432 990 q 422 933 428 953 q 411 893 417 914 q 410 890 411 892 q 408 888 408 889 q 397 865 401 876 q 390 843 393 854 q 388 826 389 835 q 383 810 386 818 q 381 796 381 801 q 369 757 374 774 q 365 749 369 753 q 358 735 360 743 q 353 718 356 728 q 349 722 350 721 q 346 725 347 724 q 343 724 344 725 q 335 690 335 707 q 333 672 335 682 q 328 653 331 663 l 328 650 q 326 628 331 639 q 322 607 322 618 q 326 594 331 600 q 322 581 322 588 q 324 568 322 571 q 325 556 326 563 q 329 546 324 550 q 329 540 329 546 q 328 507 329 524 q 328 474 328 490 q 329 445 329 460 q 329 417 329 431 q 331 396 331 410 q 328 388 328 388 q 320 378 321 383 q 318 368 319 372 q 317 345 318 357 q 318 322 315 333 q 319 307 321 315 q 318 292 318 299 q 317 286 317 290 q 323 267 319 276 q 329 246 326 257 q 332 232 331 239 q 331 218 333 225 q 332 199 331 208 q 335 181 333 190 q 336 169 336 178 q 338 156 338 163 q 340 144 338 150 q 340 143 340 143 q 342 123 338 132 q 347 103 346 114 q 349 83 347 93 q 365 68 351 74 q 358 65 358 65 q 361 58 358 61 q 360 57 361 57 q 358 56 358 57 q 353 47 356 51 q 349 39 351 43 q 347 35 347 38 q 343 32 346 32 q 331 28 336 31 q 319 24 326 26 q 305 23 313 21 q 290 25 297 25 q 276 28 283 25 q 260 31 268 31 q 247 30 253 31 q 235 22 240 29 q 232 30 233 26 q 229 39 231 33 q 219 31 222 33 q 207 13 213 22 q 200 -7 201 4 l 200 -14 q 188 -37 193 -22 q 183 -61 183 -51 q 183 -72 183 -67 q 176 -79 182 -76 q 172 -78 174 -79 q 167 -78 169 -78 q 168 -65 167 -71 q 169 -51 169 -58 q 169 -29 172 -40 q 172 -1 169 -14 q 175 28 175 13 q 176 48 175 39 q 181 68 178 57 l 183 150 q 183 170 183 161 q 182 189 182 179 q 186 203 183 197 q 193 217 189 210 q 196 235 199 225 q 191 249 193 242 q 189 263 189 256 q 194 297 189 282 q 201 308 197 304 q 199 319 204 313 q 199 324 194 321 q 202 336 203 329 q 201 350 201 343 q 199 362 201 356 q 190 372 197 368 q 185 389 190 381 q 183 406 181 397 q 185 417 186 411 q 182 429 183 422 q 179 426 181 426 q 176 424 178 425 q 174 432 174 428 q 175 442 175 436 q 176 456 175 449 q 176 469 176 463 q 178 478 178 474 q 186 485 179 482 q 181 490 183 488 q 181 499 178 492 l 190 664 l 199 806 l 201 846 q 201 852 201 849 q 200 861 200 856 q 189 851 192 857 q 194 843 186 849 q 194 829 201 833 q 180 811 188 819 q 164 796 172 803 q 162 794 164 794 q 158 793 160 794 l 131 786 q 42 779 85 771 q 33 781 38 779 q 25 786 29 783 l 4 804 q -8 810 0 807 q -17 822 -18 817 q -4 831 -12 831 q 15 833 7 831 q 33 836 22 836 q 41 840 38 836 q 47 847 44 844 q 96 896 72 871 l 124 921 q 132 931 129 925 q 131 943 135 936 q 136 936 133 942 q 163 963 150 949 q 165 955 160 957 q 167 946 171 953 q 174 952 171 950 q 181 957 178 954 l 186 950 q 189 956 189 956 q 200 975 190 968 q 209 985 206 979 q 219 994 213 990 q 222 996 222 994 l 222 999 q 214 1000 217 999 q 217 1006 213 1004 q 225 1011 221 1008 q 225 999 225 1004 q 224 986 225 993 q 239 996 233 989 q 251 1010 244 1003 m 296 218 q 297 210 296 215 q 296 203 299 206 q 296 192 293 196 q 296 181 299 188 q 306 192 306 189 q 307 203 307 194 q 308 210 307 206 q 307 219 308 215 q 303 239 304 229 q 308 257 303 249 q 307 263 308 263 q 304 281 299 268 q 303 285 304 283 q 300 292 301 288 q 283 268 285 281 q 281 256 283 263 q 289 246 279 250 q 290 238 290 244 q 294 228 293 233 q 296 218 294 222 m 301 117 q 310 126 310 124 q 307 136 311 129 q 297 131 297 133 q 301 117 296 128 m 257 922 l 242 910 q 257 908 247 908 l 257 922 m 199 867 q 193 878 196 869 q 192 873 193 875 q 190 868 190 871 l 196 865 l 199 867 m 308 236 q 313 242 311 239 q 308 246 315 244 l 308 236 m 213 983 q 210 981 210 981 q 208 978 207 979 q 210 974 210 976 q 211 976 210 974 q 213 978 211 978 l 213 983 m 203 238 q 204 239 203 238 q 201 246 204 244 l 201 238 l 203 238 m 186 324 q 190 321 188 324 l 189 319 q 187 320 188 319 q 183 321 186 321 q 186 324 183 324 m 299 156 q 296 149 299 151 l 300 149 l 300 156 l 299 156 m 186 971 q 182 968 182 968 l 181 969 q 188 974 183 972 l 188 972 q 186 971 188 972 z "},"2":{"ha":722,"x_min":-1,"x_max":721,"o":"m 254 233 q 249 221 251 226 q 246 208 247 215 q 240 200 243 204 q 240 189 238 196 q 229 179 243 179 q 214 149 229 160 q 213 146 213 147 q 199 117 207 131 q 183 88 190 103 l 183 78 l 207 78 q 269 83 239 81 q 332 89 300 85 q 397 96 364 92 q 463 107 429 100 q 526 119 494 111 q 592 132 558 126 q 646 139 622 139 q 660 139 653 140 q 675 136 667 138 q 665 116 669 125 q 654 97 660 107 q 664 88 657 90 q 653 88 657 85 q 643 89 649 92 q 640 78 640 83 q 639 69 640 74 q 649 65 642 69 q 656 64 654 65 q 665 54 657 56 q 679 50 672 53 q 681 49 681 50 q 651 54 665 51 q 621 60 636 57 l 619 58 q 619 57 619 57 q 618 56 618 57 q 650 47 633 51 q 682 39 667 42 q 673 33 678 32 q 664 35 668 33 q 649 39 657 35 q 637 42 642 40 q 625 40 632 43 q 614 40 619 39 q 601 42 608 40 q 604 37 604 39 q 607 35 604 35 q 627 26 618 32 q 649 22 636 19 q 653 20 651 22 q 658 17 656 18 q 663 22 661 19 q 668 25 665 25 q 694 26 681 26 q 721 15 707 25 q 708 14 715 14 q 700 14 704 14 q 692 11 696 14 q 679 7 690 7 q 571 11 625 15 q 553 6 564 11 q 476 -28 517 -19 q 451 -33 464 -32 q 426 -33 438 -33 q 372 -29 399 -32 q 318 -25 346 -26 q 290 -22 304 -24 q 264 -22 275 -21 q 237 -24 250 -25 q 211 -26 224 -24 q 183 -32 199 -32 q 168 -28 176 -32 q 162 -27 165 -28 q 156 -26 158 -26 q 128 -28 142 -31 q 101 -21 115 -25 q 66 -6 83 -14 q 31 8 49 1 l 14 17 q 18 27 17 22 q 21 35 19 32 q 31 38 25 42 q 39 40 36 33 q 36 43 38 42 q 32 46 35 44 l 29 43 q 26 49 26 46 q 24 54 25 51 q 19 59 21 57 q 13 63 17 61 q 6 85 -1 72 q 21 108 11 100 q 34 121 29 114 q 43 135 39 128 q 56 159 50 146 q 68 185 63 172 q 73 203 71 194 q 78 224 75 213 q 97 240 97 221 q 98 242 97 242 q 99 244 99 243 q 123 285 110 265 q 147 325 136 304 q 153 330 150 328 q 156 335 157 332 q 159 349 153 344 q 171 358 165 353 l 186 385 q 188 389 188 386 q 192 393 189 392 q 201 400 199 396 q 207 408 204 404 q 213 420 210 415 q 219 431 217 425 q 236 455 228 442 q 254 481 244 468 q 261 490 257 486 q 267 499 265 493 q 284 527 274 514 q 301 556 294 540 q 313 574 307 565 q 326 593 319 582 q 333 601 329 596 q 338 611 336 606 q 351 633 344 622 q 368 654 357 644 q 378 668 374 661 q 386 682 382 675 q 388 688 388 683 q 386 699 382 694 q 393 708 390 703 l 415 742 q 424 755 419 749 q 433 768 428 761 q 451 800 444 783 q 464 832 457 817 q 472 846 468 839 q 478 860 475 853 q 481 866 481 863 q 483 872 482 869 q 488 872 486 872 q 493 871 490 871 l 501 882 q 500 865 506 872 q 492 849 496 857 q 493 831 489 840 q 492 828 493 829 q 492 824 492 826 q 490 814 489 818 q 492 804 492 810 q 493 803 493 804 q 505 819 499 811 q 517 835 511 826 q 526 849 521 842 q 535 865 532 857 q 532 867 532 865 q 531 868 532 868 q 520 859 525 864 q 510 851 515 854 q 507 852 507 851 q 506 853 507 853 q 515 867 511 860 q 524 882 519 875 q 528 888 528 886 q 532 903 525 897 q 543 915 539 908 q 562 949 554 932 q 564 988 569 967 q 543 1008 558 1004 q 475 1008 508 1017 q 449 1003 463 1006 q 424 997 436 1001 q 406 991 414 994 q 390 985 397 988 q 358 968 374 976 q 326 950 343 960 q 324 949 325 950 l 272 906 q 267 896 269 901 q 264 886 265 890 q 260 874 261 879 q 256 861 258 868 q 254 857 256 858 q 253 854 253 856 q 254 833 253 843 q 253 811 256 822 q 247 795 251 804 q 236 779 242 786 q 226 760 229 769 q 218 739 222 750 q 209 707 211 724 q 199 674 207 690 q 194 668 196 671 q 188 663 193 665 q 182 654 183 658 q 178 647 179 651 q 169 640 176 643 q 165 635 165 639 q 160 629 164 632 q 115 609 139 611 q 65 613 90 607 q 56 618 58 614 q 56 626 56 622 q 61 632 56 629 q 64 633 63 633 q 65 635 65 633 q 57 642 65 642 q 38 651 46 642 q 39 654 40 654 q 49 668 46 661 q 54 683 51 675 q 58 706 56 694 q 67 729 60 718 q 68 736 67 735 q 74 757 75 743 q 82 759 81 753 q 92 763 83 765 q 89 753 90 757 q 86 744 88 749 l 88 742 q 96 756 92 747 q 103 772 100 764 q 114 788 106 781 q 117 794 118 790 q 121 801 117 799 q 127 808 125 804 q 132 815 129 813 q 137 824 135 821 q 142 832 139 828 l 153 846 q 168 869 161 857 q 188 890 175 881 q 199 903 194 896 q 210 917 203 910 q 216 923 213 919 q 222 929 219 926 q 247 957 236 940 q 250 963 249 960 q 254 968 251 965 q 292 996 272 983 q 333 1021 313 1008 l 381 1044 q 379 1051 381 1049 q 386 1054 385 1054 q 421 1065 403 1056 q 438 1071 429 1069 q 454 1074 447 1072 q 583 1068 522 1085 q 609 1058 597 1064 q 632 1043 621 1053 q 642 1039 636 1040 q 650 1031 647 1038 q 653 1026 651 1028 q 654 1021 654 1024 q 663 1001 657 1007 q 676 979 672 989 q 694 997 685 989 q 686 953 703 969 q 686 900 696 926 q 685 890 685 894 q 685 879 686 885 q 683 869 685 874 q 682 860 682 864 q 683 857 682 858 q 685 853 685 856 q 693 858 690 856 q 693 853 693 853 q 682 815 689 833 q 663 782 675 797 q 657 768 658 775 q 649 757 656 761 q 622 713 638 733 q 592 669 606 692 q 572 640 585 654 q 549 611 560 626 q 543 603 546 607 q 538 596 540 600 q 516 568 526 582 q 493 540 506 554 l 439 478 l 428 468 l 418 458 q 408 442 413 451 q 397 425 404 433 l 351 367 l 342 354 q 330 343 335 349 q 321 331 325 338 q 311 318 317 324 q 301 306 306 313 q 293 291 299 299 q 278 281 288 283 q 272 275 275 279 q 267 268 269 271 q 256 249 263 257 q 240 232 249 240 q 254 233 244 233 m 582 1007 l 582 1015 q 543 1039 569 1039 q 513 1042 528 1040 q 483 1040 499 1043 q 451 1033 468 1038 q 418 1022 435 1029 q 389 1009 403 1017 q 360 993 375 1001 q 356 988 360 992 q 367 989 364 988 q 416 1011 390 1001 q 469 1024 442 1021 q 499 1027 485 1025 q 529 1026 514 1029 q 556 1022 543 1025 q 582 1007 569 1018 m 307 26 q 315 25 310 25 q 338 27 326 26 q 361 28 350 28 q 400 32 381 31 q 439 36 419 33 q 476 40 458 39 q 513 43 493 42 q 519 54 524 46 q 509 57 514 56 q 499 56 504 58 q 476 52 488 53 q 454 50 465 51 q 422 46 439 49 q 390 40 406 43 q 349 32 369 36 q 308 31 329 28 q 307 29 307 31 l 307 26 m 157 693 q 158 705 163 700 q 163 713 154 710 q 166 709 164 711 q 171 703 168 707 q 172 716 171 710 q 174 728 174 722 q 175 737 174 733 q 174 747 176 740 q 170 756 171 750 q 168 769 169 763 q 164 752 164 760 q 164 738 164 744 l 158 764 l 140 739 q 136 728 138 733 q 138 717 135 724 q 140 708 140 711 q 142 699 140 704 q 156 703 147 699 q 156 699 156 701 q 157 693 157 697 m 43 28 q 92 -4 56 -3 q 72 18 82 8 q 47 33 63 28 q 46 31 47 32 q 43 28 44 31 m 171 139 q 172 138 172 139 q 174 138 172 138 l 175 138 l 186 154 q 196 168 192 160 q 211 179 200 176 l 211 193 q 195 185 203 189 q 188 172 188 181 q 187 169 188 169 q 186 168 186 169 q 176 153 179 161 q 171 139 174 146 m 547 1051 l 549 1053 q 544 1056 546 1054 q 540 1058 542 1058 q 508 1058 524 1058 q 478 1051 493 1058 l 547 1051 m 224 208 q 233 216 229 213 q 243 225 238 219 l 239 231 q 224 208 224 218 m 186 128 l 186 131 q 180 131 183 131 q 174 131 176 132 q 168 119 169 126 q 171 118 169 119 l 186 128 m 586 1039 q 556 1049 574 1053 q 571 1044 563 1046 q 586 1039 579 1042 m 640 92 q 633 89 638 90 q 625 85 629 88 q 634 83 631 82 q 642 88 638 85 l 640 88 l 640 92 m 408 707 q 407 708 408 708 q 406 710 406 708 q 399 707 401 708 q 399 699 397 706 q 403 703 401 701 q 408 707 406 706 m 283 293 l 288 290 q 293 295 290 293 q 294 303 296 297 l 283 293 m 450 25 l 465 25 q 458 30 461 32 q 450 25 456 28 m 242 814 q 236 808 236 810 q 240 803 236 807 q 241 808 240 806 q 242 814 242 811 z "},"3":{"ha":793,"x_min":-64,"x_max":772,"o":"m 451 979 q 460 987 456 983 q 468 996 464 990 q 472 999 471 997 q 474 1003 472 1001 q 473 1004 474 1004 q 472 1006 472 1004 l 461 1001 q 468 1018 463 1008 q 449 1015 457 1017 q 433 1011 440 1014 q 430 1005 431 1010 q 428 994 429 1000 q 414 990 422 994 q 419 998 417 994 q 425 1004 422 1001 q 400 994 408 1007 l 408 994 q 407 989 408 989 q 393 984 400 989 q 378 982 386 979 q 387 990 383 988 q 397 990 390 993 q 393 997 400 1000 q 364 992 378 994 q 335 989 350 989 q 329 986 332 989 q 310 979 319 985 q 306 978 307 979 q 303 976 306 978 l 304 975 l 304 974 q 321 978 313 976 q 339 981 329 979 l 342 978 q 343 976 342 976 q 347 982 346 979 q 350 988 347 985 l 357 982 q 346 974 351 976 q 328 971 338 971 q 311 964 319 971 q 303 961 308 961 q 292 961 297 961 q 274 958 282 960 q 256 957 265 957 q 247 959 250 957 q 238 960 243 961 q 190 932 210 953 q 175 931 183 926 l 169 938 l 185 938 q 198 947 192 943 q 211 956 204 950 q 186 943 192 956 q 177 942 182 943 q 168 947 172 942 q 163 948 165 949 q 157 947 160 947 q 140 949 147 946 q 126 960 133 953 q 102 979 114 969 q 78 1000 90 989 q 69 1005 74 1003 q 63 1014 65 1007 l 71 1014 l 71 1017 q 65 1020 68 1019 q 65 1026 63 1021 q 63 1031 67 1026 q 58 1038 61 1035 q 58 1047 56 1040 q 57 1050 57 1049 q 56 1053 56 1051 l 50 1068 q 55 1065 53 1067 q 58 1064 57 1064 l 101 1039 q 118 1036 107 1036 q 140 1041 129 1039 q 160 1050 150 1043 q 168 1043 167 1046 q 171 1029 169 1040 l 258 1044 q 267 1045 263 1046 q 275 1044 271 1044 q 295 1047 286 1046 q 314 1050 304 1047 q 338 1055 326 1051 q 363 1058 350 1058 q 367 1060 365 1058 q 372 1063 369 1061 q 379 1067 376 1067 q 384 1067 382 1068 q 389 1068 386 1067 q 397 1075 394 1069 q 394 1064 397 1072 q 402 1068 399 1067 q 404 1075 406 1069 l 410 1081 l 406 1068 q 408 1067 407 1068 q 423 1070 415 1069 q 438 1072 431 1071 l 463 1072 q 457 1079 457 1078 q 468 1075 458 1085 q 474 1081 471 1078 q 483 1081 476 1083 q 502 1081 493 1079 q 522 1085 511 1083 l 525 1085 q 543 1096 532 1096 q 565 1099 554 1096 l 589 1101 q 592 1102 590 1101 q 594 1103 593 1103 q 618 1104 607 1100 q 640 1115 629 1108 q 647 1109 643 1113 q 654 1111 651 1106 q 658 1118 657 1114 q 661 1128 658 1122 l 668 1111 q 677 1112 674 1111 q 686 1113 681 1113 l 696 1113 q 695 1110 693 1110 q 699 1110 697 1110 l 722 1110 q 737 1110 729 1110 q 751 1108 744 1110 l 732 1103 l 732 1101 q 742 1101 738 1101 q 751 1100 746 1100 q 728 1093 740 1096 q 701 1086 715 1090 l 701 1085 l 722 1085 l 722 1081 q 713 1078 718 1079 q 704 1075 708 1078 q 704 1068 701 1071 q 704 1060 707 1065 q 704 1053 701 1057 q 700 1044 707 1049 q 710 1039 707 1042 q 718 1039 713 1036 q 728 1040 725 1043 q 736 1033 732 1038 q 730 1028 733 1031 q 729 1019 726 1025 q 715 1000 725 1010 q 723 997 718 997 q 732 993 728 996 q 731 983 735 988 q 722 976 726 979 q 700 957 711 965 q 678 938 689 949 q 662 926 671 931 q 644 915 653 922 l 626 904 q 581 874 603 885 q 563 866 571 871 q 546 857 554 861 q 540 854 540 857 q 529 843 536 847 q 515 836 522 839 q 504 831 511 831 q 488 824 494 829 q 472 817 481 818 q 469 815 472 817 q 458 803 465 807 q 443 797 450 800 q 419 781 428 790 q 403 763 413 769 q 385 749 394 756 q 352 724 368 736 q 324 693 336 711 l 292 650 q 303 647 299 649 q 313 646 308 646 l 329 646 q 336 643 332 643 q 344 643 340 643 q 361 644 353 644 q 378 642 369 643 q 394 639 386 640 q 410 644 403 638 q 414 645 411 646 q 418 643 417 644 q 423 638 419 638 q 429 638 426 638 q 444 637 436 638 q 458 636 451 636 q 474 640 465 636 q 474 637 474 638 q 475 633 475 636 q 497 636 489 631 q 514 640 506 642 q 529 635 522 638 q 538 631 535 633 q 547 633 542 629 l 550 633 q 568 627 558 628 q 588 619 578 626 q 606 609 597 614 q 626 601 615 604 q 656 578 650 597 q 658 574 658 575 q 678 558 672 568 l 689 546 q 701 530 696 538 q 711 513 706 522 q 713 506 713 510 q 717 500 714 503 q 724 482 719 490 q 732 464 728 474 q 735 463 732 463 q 739 460 738 463 q 740 456 740 457 q 742 453 740 454 q 747 449 744 450 q 749 446 749 449 q 764 414 757 429 q 772 379 771 399 q 772 361 772 369 q 769 344 771 353 q 763 309 768 326 q 751 274 758 292 q 744 253 749 263 q 732 232 739 243 l 729 221 q 710 172 725 194 l 697 150 q 688 138 692 143 q 676 125 683 132 l 674 124 q 670 110 676 113 q 661 103 664 107 q 652 91 656 96 q 642 83 649 86 q 597 51 621 67 q 536 21 568 29 l 535 21 q 504 9 519 10 q 474 4 489 8 q 426 -1 450 -3 q 379 1 403 0 q 347 6 363 3 q 315 13 331 10 q 271 24 293 18 q 226 38 249 29 q 147 75 185 54 q 72 124 108 96 l 35 151 q 31 156 32 153 q 26 164 29 160 q 38 166 33 165 q 44 167 42 167 q 44 172 44 171 q 43 176 43 174 q 44 177 44 176 q 46 178 44 178 q 75 174 57 181 q 96 168 85 168 q 71 195 85 183 q 44 222 57 207 q 58 219 51 219 q 72 215 65 218 q 85 207 79 211 q 101 206 90 203 l 54 249 l 68 251 q 59 262 64 257 q 50 274 54 267 q 47 282 47 275 q 61 267 54 274 q 79 257 68 260 q 88 251 86 254 q 108 235 97 243 q 129 224 118 228 q 134 218 132 222 q 139 214 136 214 q 145 212 146 215 q 147 206 144 208 q 164 185 156 194 q 186 172 172 175 q 191 169 189 169 q 194 167 193 169 q 226 145 210 153 q 261 132 243 138 q 322 117 292 124 q 383 104 351 110 q 476 119 432 96 q 513 145 496 131 q 549 174 531 160 q 556 181 554 176 q 561 192 558 186 q 581 197 568 203 l 586 208 q 613 270 601 239 q 635 333 625 301 q 639 348 638 340 q 635 363 640 356 q 636 375 633 365 q 626 383 631 378 q 625 394 622 389 q 624 401 626 400 q 622 406 622 403 q 628 409 625 407 q 635 413 631 411 q 624 417 628 415 q 614 419 619 418 q 613 425 613 422 q 610 431 613 428 q 604 439 610 436 q 588 456 592 446 l 597 456 q 591 471 594 467 q 578 475 588 475 l 567 479 q 572 483 569 481 q 576 486 574 485 l 572 489 l 572 493 q 553 510 563 501 q 533 526 544 519 q 527 531 529 528 q 522 538 525 535 q 508 549 515 544 q 494 560 501 554 l 494 583 q 501 576 499 581 q 507 590 504 579 q 497 592 500 590 q 494 593 494 592 q 493 596 494 594 q 497 601 496 601 q 503 601 501 601 q 508 600 506 600 q 530 592 519 596 q 551 585 540 588 q 572 575 561 583 q 581 565 581 572 q 597 551 583 554 q 602 563 606 557 q 600 575 599 568 l 593 575 q 592 579 592 576 q 590 582 592 582 l 576 590 q 556 599 565 594 q 535 608 546 604 l 504 615 q 499 616 501 615 q 494 617 497 617 q 481 615 485 617 q 477 614 479 615 q 472 613 475 613 q 462 612 464 613 q 454 607 460 611 l 447 617 l 431 601 q 428 610 424 606 q 429 617 432 614 l 394 611 q 393 619 394 618 l 389 619 q 386 611 386 614 q 385 601 389 603 q 372 603 382 600 q 360 597 367 600 q 347 594 354 593 q 331 590 339 594 q 315 583 324 585 q 300 579 307 582 q 297 577 299 578 q 293 574 294 576 l 344 582 l 397 585 q 389 576 394 576 l 383 576 q 339 571 360 578 q 299 553 318 564 q 264 531 279 542 q 260 524 261 528 q 256 518 258 521 q 242 518 250 517 q 226 513 235 519 l 239 513 l 215 503 l 193 494 q 192 491 192 493 q 190 488 192 489 q 186 482 189 485 q 181 479 183 479 q 160 473 167 476 q 142 461 154 469 q 129 451 135 456 q 114 446 124 446 q 107 440 110 446 q 92 430 100 433 q 75 422 83 426 q 57 415 65 419 q 39 406 49 410 q 31 401 35 403 q 21 404 28 400 q 17 406 19 407 q 11 406 14 404 q 6 409 8 407 q 0 414 3 411 q 2 422 3 418 q 8 429 1 426 q 11 434 10 431 q 10 440 13 438 q -12 439 1 438 q -33 446 -26 440 q -37 447 -35 447 q -40 449 -39 447 q -47 457 -43 453 q -57 460 -51 461 q -64 465 -58 460 l -60 471 q -50 469 -56 463 l -35 482 q -35 476 -37 479 q -31 468 -33 472 q -25 483 -29 475 q -30 484 -28 483 q -33 485 -32 485 q -34 492 -33 488 q -35 503 -35 497 q -29 502 -32 503 q -24 501 -26 501 l -22 503 l -35 510 q -33 525 -35 519 q -24 529 -26 522 q -14 536 -21 536 q -2 538 -8 536 q 11 542 4 539 q 24 550 13 544 q 29 553 26 551 q 33 558 32 556 q 50 576 42 567 q 65 594 58 586 l 51 610 q 50 624 44 617 q 58 628 51 629 q 69 630 65 626 q 75 636 72 633 q 86 651 81 643 q 100 661 92 658 l 100 663 q 101 664 100 663 l 150 707 l 194 754 l 321 879 q 333 890 328 885 q 344 903 338 896 q 347 903 346 903 q 353 906 349 904 q 332 881 344 890 q 313 857 319 872 q 318 858 315 857 q 346 887 332 874 q 375 914 360 900 q 388 936 385 922 q 394 947 390 942 q 406 953 397 951 q 408 963 406 957 q 412 960 410 961 q 417 957 414 960 q 419 964 417 958 q 425 972 422 972 q 433 980 431 975 q 440 988 435 985 q 446 992 443 989 q 449 1000 449 994 q 453 1004 447 1001 q 448 992 451 997 q 451 979 444 986 q 443 980 444 981 q 440 974 442 979 q 451 979 443 976 m 386 839 q 382 831 383 835 q 383 822 381 828 l 388 831 l 388 822 q 433 855 411 839 q 475 890 456 871 q 461 890 468 893 q 456 890 458 890 q 451 889 454 889 q 434 881 442 886 q 418 869 426 876 q 409 854 411 863 q 396 846 407 846 q 394 843 394 844 q 393 840 394 842 q 390 835 390 838 q 388 831 389 833 q 386 839 388 836 m 613 574 q 644 552 631 565 q 674 528 658 539 q 672 533 672 531 q 669 536 672 535 q 655 554 663 544 q 638 574 647 564 q 627 582 633 578 q 614 592 621 586 q 600 598 608 597 q 589 608 592 599 l 571 608 q 549 613 571 625 q 581 595 564 603 q 613 574 599 588 m 489 588 q 472 578 479 578 q 457 586 465 579 q 450 579 453 583 q 443 571 447 575 q 442 576 443 574 q 442 582 442 579 l 411 582 q 418 590 417 588 q 423 587 421 588 q 428 585 425 586 q 433 585 431 585 q 439 586 436 586 q 440 590 439 589 q 440 594 440 592 q 449 594 446 597 q 457 592 451 590 q 462 590 458 593 q 468 585 465 588 q 482 586 476 582 q 489 588 482 588 m 213 907 q 201 906 206 907 q 190 913 196 906 q 202 920 199 914 q 214 924 206 926 q 213 907 213 919 m 353 806 q 340 790 346 799 q 326 775 333 782 q 329 774 326 775 l 331 774 q 342 784 338 779 q 354 793 347 789 q 356 797 356 796 q 353 806 356 799 m 74 583 q 76 588 76 586 q 72 592 75 590 q 67 585 69 588 q 63 578 64 582 q 54 574 60 575 q 53 563 49 572 q 64 573 60 568 q 74 583 68 578 m 365 806 q 368 804 367 806 q 378 814 374 808 l 374 817 l 372 818 q 368 821 371 818 l 365 806 m 265 807 q 277 819 271 814 q 290 831 283 825 q 270 819 275 824 q 265 807 265 814 m 406 951 q 399 940 400 946 l 400 939 q 408 944 404 942 q 415 951 411 947 q 414 953 414 951 q 406 951 407 953 m 44 293 q 47 282 38 285 q 39 283 40 282 q 33 296 38 285 q 44 293 36 293 m 440 810 q 451 807 449 807 q 458 814 453 807 q 448 813 453 813 q 440 810 443 813 m 396 599 q 397 603 397 600 l 419 600 l 419 599 l 396 599 m 251 578 l 251 582 q 245 581 249 582 q 239 574 242 581 l 251 578 m 476 563 q 463 568 467 557 q 476 563 471 565 m 572 183 q 576 187 575 185 q 579 192 576 189 q 572 192 572 194 q 569 186 571 189 q 572 183 572 183 m -54 485 q -54 478 -51 481 q -57 472 -57 475 q -60 479 -60 475 q -54 485 -60 483 m 690 1061 q 689 1053 690 1054 l 696 1053 l 696 1056 q 694 1060 694 1058 q 690 1061 690 1060 m 196 506 q 204 508 201 506 l 204 510 l 196 510 l 196 506 m 10 440 q 17 438 17 438 q 18 444 18 439 q 14 442 15 443 q 10 440 13 440 m 428 807 q 426 808 428 807 l 421 804 l 421 801 l 428 807 m 557 157 q 561 164 560 160 q 558 165 561 164 q 556 158 558 161 q 557 157 557 158 m 403 786 q 404 787 404 786 q 406 788 404 788 q 404 789 406 789 q 401 788 401 789 q 400 788 401 788 l 400 786 q 401 785 400 785 l 403 786 m -57 471 l -60 471 l -57 472 l -57 471 z "},"4":{"ha":714,"x_min":-28,"x_max":686,"o":"m 142 622 q 161 643 146 636 q 164 657 161 650 q 168 671 167 664 q 181 692 172 683 q 193 713 189 701 q 203 728 197 721 q 207 744 208 735 q 211 751 206 746 q 207 753 208 753 q 203 757 206 754 l 215 765 q 222 758 217 761 q 233 779 232 772 q 232 784 236 782 q 233 790 228 786 q 243 797 238 792 q 247 806 247 803 q 259 832 251 821 q 271 856 267 843 q 285 882 276 869 q 300 908 293 894 l 329 964 q 333 970 331 967 q 332 976 335 974 q 338 1003 331 992 q 351 1028 344 1015 q 356 1035 354 1032 q 354 1044 358 1038 q 358 1060 350 1049 q 371 1075 365 1067 q 383 1092 376 1083 q 406 1092 394 1089 q 429 1088 418 1096 q 434 1090 432 1089 q 439 1092 436 1092 q 462 1093 450 1092 q 488 1092 474 1094 q 499 1090 493 1090 q 511 1094 504 1089 l 511 1090 q 506 1086 508 1088 q 499 1081 503 1085 q 510 1083 506 1081 q 521 1081 515 1085 l 526 1086 q 543 1079 538 1081 q 547 1065 546 1072 q 540 1049 547 1057 q 532 1028 542 1038 q 518 1007 522 1018 q 506 981 513 994 q 493 953 500 967 q 463 886 474 924 q 456 876 460 881 q 450 865 453 871 l 439 839 q 425 819 432 829 q 413 797 418 808 q 403 782 407 790 q 394 765 399 774 q 383 744 388 754 q 378 722 378 735 q 374 717 378 721 q 354 680 363 699 q 336 643 346 661 l 319 601 q 317 594 317 599 q 310 593 317 590 q 306 586 306 593 q 296 563 306 575 q 292 556 293 560 q 288 549 290 551 q 278 540 288 539 q 267 538 271 542 q 260 531 264 533 q 251 516 253 524 q 243 504 250 508 l 240 496 q 236 488 238 492 q 232 481 235 483 q 226 470 229 475 q 226 458 224 465 q 221 444 226 450 q 211 431 215 438 q 203 419 203 425 q 203 409 206 413 q 196 401 200 406 q 183 382 189 392 q 178 361 178 372 q 168 340 176 351 q 193 328 174 325 q 296 334 244 331 q 399 346 347 338 q 421 350 410 349 q 443 353 432 351 q 456 357 454 354 q 458 368 457 360 l 488 476 q 488 492 489 485 q 488 508 488 500 q 493 522 488 517 l 501 539 q 503 538 501 538 q 508 536 504 536 q 510 544 508 540 q 511 551 511 547 q 516 567 511 563 q 532 578 521 572 q 545 582 539 581 q 551 593 551 583 q 561 594 551 599 q 576 600 569 592 q 588 618 578 606 q 600 608 594 608 q 607 608 603 606 q 615 613 611 611 q 624 605 619 610 q 635 594 628 600 q 642 596 639 599 q 645 594 644 596 q 649 589 646 592 q 655 562 656 575 q 656 535 654 549 l 656 532 q 661 503 664 517 q 656 474 658 489 q 649 447 653 460 q 649 419 646 433 q 649 413 650 414 q 642 384 638 397 q 649 357 646 371 l 649 343 q 645 332 646 338 q 642 319 644 326 q 651 316 647 313 q 661 319 656 319 q 671 311 661 311 q 686 300 685 308 q 685 299 686 299 q 661 290 669 299 q 644 272 653 282 q 636 253 638 263 q 632 233 635 244 q 619 199 628 218 q 617 164 608 182 l 617 135 q 626 102 621 118 q 636 68 632 86 q 639 50 639 64 q 638 14 636 31 q 646 -21 639 -3 q 642 -32 649 -28 q 633 -39 636 -35 q 625 -49 629 -43 l 617 -24 q 607 -35 611 -31 q 606 -49 603 -40 q 603 -55 606 -51 q 601 -62 601 -58 q 597 -60 599 -61 q 594 -58 596 -58 q 585 -72 589 -64 q 572 -87 578 -79 q 549 -90 565 -94 q 542 -94 542 -89 q 542 -104 543 -100 q 528 -92 535 -99 q 524 -79 522 -86 q 519 -66 524 -72 q 526 -53 515 -60 q 518 -36 519 -44 q 517 -19 517 -28 q 510 -18 514 -18 q 504 -15 507 -18 q 506 3 507 -6 q 497 19 506 11 q 494 24 494 21 q 497 29 494 28 q 503 36 504 32 q 503 46 503 40 q 501 55 503 50 q 507 65 500 60 q 506 70 508 67 q 504 76 504 74 q 507 119 507 99 q 507 161 507 140 q 507 187 507 174 q 503 213 507 200 q 501 247 497 229 q 502 253 503 250 q 494 257 501 256 q 489 260 494 257 q 485 267 488 264 q 483 274 483 271 q 484 281 482 278 q 486 290 486 285 l 458 294 q 443 292 447 294 q 424 283 435 283 q 403 279 413 282 q 397 281 400 279 q 390 282 394 282 q 378 275 385 276 q 361 272 371 274 q 330 268 346 271 q 297 263 314 265 q 261 256 278 258 q 226 249 244 253 q 213 247 221 247 l 210 247 q 208 249 208 247 q 179 245 193 242 q 151 247 165 249 q 124 242 135 244 q 96 242 108 239 q 71 249 83 246 q 60 253 63 251 q 50 254 57 254 l 39 264 q 43 268 39 265 l 35 281 l 21 275 q 19 280 19 278 q 25 282 18 282 q 33 288 28 282 q 25 288 31 292 q 19 292 19 285 q 15 293 19 293 q -4 307 0 292 l -11 301 l -11 307 q -5 317 -6 314 q -6 326 -4 319 l -24 322 q -19 340 -28 333 q -10 358 -11 347 q -7 353 -8 354 q -4 349 -6 351 q 10 363 11 353 q 14 383 8 372 q 24 391 22 385 q 25 404 26 397 l 33 404 q 43 422 36 415 q 50 440 50 429 q 53 449 49 446 q 65 464 61 456 q 78 479 68 472 q 85 496 82 483 q 90 506 88 500 q 99 515 92 511 q 99 517 99 515 q 103 534 99 525 q 108 551 108 543 q 110 560 108 556 q 115 567 113 564 q 124 578 121 574 q 125 589 128 582 q 124 594 125 592 q 124 600 124 596 q 136 609 131 603 q 142 622 142 615 q 157 626 150 614 q 149 624 153 624 q 142 622 146 624 m 242 610 q 237 594 240 603 q 240 576 233 586 q 246 596 243 592 q 251 597 247 597 q 256 600 256 597 q 254 606 256 603 q 251 613 253 610 l 276 639 q 283 632 283 636 q 281 622 282 628 q 274 611 278 617 q 272 597 271 606 q 272 576 276 588 l 275 575 q 283 581 278 578 q 286 586 288 585 q 288 599 283 594 q 297 608 293 603 q 295 622 294 614 q 300 636 296 629 q 311 663 308 649 q 326 689 314 678 l 326 690 l 340 726 q 358 761 349 747 q 351 758 356 760 q 344 757 347 757 q 329 750 332 757 q 324 736 325 742 q 317 726 321 729 q 304 722 313 722 q 300 719 303 722 q 297 718 299 718 q 295 713 300 714 q 288 708 290 711 l 285 704 l 286 703 l 286 701 l 297 708 q 292 695 294 701 q 286 682 289 689 q 280 676 283 679 q 276 671 276 674 q 272 666 276 667 q 269 658 267 665 q 266 654 271 657 q 261 647 261 651 q 256 639 260 640 q 247 635 251 638 q 242 624 242 631 q 241 617 240 621 q 242 610 242 613 m 435 340 q 422 329 422 342 q 429 328 428 328 q 435 335 431 329 q 454 346 453 331 q 444 342 449 344 q 435 340 439 340 m 21 413 q 14 399 17 410 q 10 401 11 401 q 11 407 11 404 q 14 413 11 410 q 17 423 18 418 q 19 432 17 428 q 22 440 19 436 q 25 446 24 443 q 29 444 26 446 q 26 435 26 440 q 24 428 25 431 q 23 420 21 424 q 21 413 25 417 m 454 306 q 433 303 443 308 q 411 294 422 297 l 457 301 q 454 304 454 301 l 454 306 m 383 324 q 410 328 399 321 q 398 334 401 335 q 383 324 394 333 m 60 499 q 47 478 51 488 q 31 463 42 469 q 42 481 40 469 q 60 499 44 492 m 178 675 q 172 660 175 668 q 167 644 169 653 q 178 664 176 660 q 178 675 181 668 m 183 733 q 197 743 183 749 l 183 733 m 517 -118 q 526 -117 522 -115 q 536 -122 529 -119 q 525 -123 529 -125 q 517 -118 521 -121 m 1 338 q -10 336 -7 346 q -8 333 -10 336 l -4 333 l 1 338 m 667 24 l 669 24 q 667 14 669 17 l 664 14 l 667 24 m 394 294 l 372 290 q 383 291 378 290 q 394 292 388 292 l 394 294 m 222 775 q 222 767 222 768 q 215 767 221 767 l 222 775 m 149 678 q 148 674 149 675 q 147 671 147 672 l 144 671 l 144 678 l 149 678 z "},"5":{"ha":785,"x_min":-44,"x_max":753,"o":"m 269 36 q 272 38 272 36 q 274 40 272 39 q 262 41 267 43 q 254 36 257 39 q 249 39 249 32 q 256 42 253 40 q 261 43 258 43 q 289 43 276 40 q 317 53 301 46 q 380 81 349 68 q 443 108 411 93 q 453 115 451 113 q 460 125 456 118 q 469 124 468 122 q 476 133 469 125 q 483 142 479 139 q 489 150 486 144 q 504 176 497 164 q 518 203 511 189 l 533 229 q 540 245 538 236 q 550 264 543 254 q 540 265 543 264 q 535 265 538 265 q 538 289 533 276 q 535 314 542 301 q 526 299 532 306 q 510 293 519 293 l 500 278 q 494 318 499 299 q 483 356 489 338 q 468 389 478 371 q 458 404 464 397 q 447 419 453 411 q 426 439 439 433 q 397 447 413 444 q 369 447 383 449 q 349 444 360 444 q 329 443 339 444 l 274 433 q 240 428 258 429 q 233 435 240 428 q 231 429 232 432 q 229 424 229 426 l 211 421 q 208 422 210 421 q 206 424 207 424 q 186 419 192 429 l 181 415 q 160 409 169 413 q 139 403 150 406 q 118 421 118 399 q 117 426 118 424 q 115 431 115 428 q 114 442 114 435 q 92 447 103 444 q 79 461 82 449 q 83 468 81 464 q 86 476 85 472 q 96 501 92 488 q 107 526 100 514 q 108 537 108 532 q 101 547 108 542 q 105 553 103 550 q 110 560 107 556 q 114 567 113 563 q 114 574 115 571 q 114 593 111 585 q 121 611 117 601 q 132 635 131 622 q 142 672 138 654 q 150 710 146 690 q 160 741 154 725 q 169 772 165 757 q 175 790 172 781 q 181 807 178 799 q 186 840 185 824 q 190 874 188 857 q 193 880 193 876 q 194 888 193 883 q 197 894 196 892 q 199 900 199 897 q 201 927 200 914 q 204 956 201 940 q 205 959 204 957 q 206 963 206 961 q 206 973 203 969 q 215 981 208 976 q 200 1004 206 992 q 204 1013 201 1008 q 210 1025 207 1018 q 215 1033 213 1032 q 226 1032 218 1035 q 228 1033 226 1032 l 229 1035 q 231 1036 231 1035 l 229 1038 q 224 1044 221 1040 q 224 1051 226 1049 l 226 1053 q 243 1047 235 1050 q 258 1042 251 1044 q 269 1053 265 1046 q 258 1071 267 1063 q 279 1072 271 1081 q 285 1068 283 1071 q 292 1064 288 1065 q 316 1051 304 1057 q 343 1046 328 1046 q 354 1063 358 1046 l 381 1053 q 378 1060 379 1057 q 375 1065 376 1063 q 397 1081 394 1067 l 411 1081 q 429 1081 422 1083 q 443 1071 436 1078 q 455 1061 449 1065 q 468 1053 461 1057 q 513 1031 492 1042 q 557 1011 535 1021 q 579 1002 568 1006 q 601 994 590 999 q 618 990 610 990 q 613 1008 619 1001 q 603 1022 607 1014 l 619 1022 q 621 1028 621 1024 q 626 1025 624 1025 q 642 1013 635 1019 q 654 996 650 1007 q 663 988 658 989 q 678 990 667 986 q 678 999 674 996 q 682 1007 682 1003 l 688 1007 q 714 1008 703 1003 q 735 1024 725 1014 q 740 1029 738 1026 q 746 1036 743 1032 q 751 1022 753 1028 q 744 1010 749 1015 l 722 982 q 735 960 722 965 q 723 951 732 950 q 708 947 714 953 l 722 933 q 714 931 717 932 q 708 928 711 929 q 701 928 704 926 q 694 925 697 931 q 693 922 694 924 l 692 922 q 682 924 685 928 q 676 918 679 921 q 670 911 674 915 q 665 903 667 907 q 664 894 664 901 q 641 885 654 885 q 615 886 628 886 q 588 887 601 886 q 561 892 575 888 q 535 894 549 894 q 510 896 521 894 q 504 899 506 896 q 476 907 489 901 q 450 918 464 913 l 394 939 q 389 939 394 939 q 393 929 390 938 q 383 934 388 932 q 374 939 378 936 q 368 918 368 925 q 367 913 365 915 q 368 907 368 910 q 371 892 369 900 q 365 878 372 885 q 371 873 368 875 q 376 868 374 871 q 368 865 374 864 q 354 861 357 868 q 348 852 351 856 q 340 844 344 849 q 337 835 338 840 q 335 826 336 831 l 319 785 q 315 790 317 789 q 311 785 313 792 l 294 732 q 292 710 292 725 l 283 710 q 285 731 283 724 q 293 761 289 746 q 303 792 297 776 q 297 793 300 792 q 294 787 296 790 q 289 779 292 783 q 285 772 286 776 q 281 764 283 768 q 270 749 274 757 q 264 735 267 742 q 258 726 258 731 q 254 714 257 721 q 267 732 267 721 l 268 732 q 268 722 268 726 q 264 714 268 717 l 258 701 q 257 697 257 700 q 256 694 257 694 q 249 689 250 693 q 246 682 249 685 q 251 670 249 675 q 256 660 254 665 q 257 668 257 663 q 269 696 269 683 q 283 710 269 710 q 281 693 289 699 q 277 683 276 688 q 278 672 278 678 q 269 654 278 663 q 275 642 275 649 q 278 637 278 639 q 278 635 279 635 q 273 624 271 629 q 274 613 275 618 q 269 593 274 601 q 285 567 260 571 l 349 557 q 465 518 411 546 q 483 510 474 513 q 501 503 492 507 q 526 492 514 499 q 547 476 538 486 q 551 469 550 475 q 540 475 546 472 q 529 482 535 478 q 528 481 529 481 q 550 456 539 468 q 572 433 561 444 l 575 436 q 592 412 586 425 q 604 385 599 399 l 610 388 q 616 410 613 399 q 615 433 619 421 q 608 461 610 449 q 596 469 606 471 q 589 472 593 469 q 581 476 585 474 l 575 490 q 583 497 578 492 q 579 503 581 500 q 575 508 578 506 q 586 506 583 503 q 564 525 579 517 q 569 517 567 519 q 574 511 571 514 q 565 517 569 514 q 557 524 561 519 q 552 538 558 533 q 542 547 546 542 q 533 555 538 553 q 525 560 529 557 q 517 583 511 568 q 535 580 526 583 q 550 571 543 576 q 574 552 563 561 q 596 533 585 543 q 593 545 597 542 q 585 553 589 549 l 528 592 q 551 585 543 592 q 565 575 557 579 q 579 565 572 571 q 628 517 608 546 q 664 461 647 489 q 672 443 669 453 q 678 426 674 433 q 685 422 682 424 q 694 417 689 419 q 683 399 681 414 q 686 379 686 389 q 686 360 686 369 l 694 354 l 688 344 q 703 318 694 331 q 708 290 711 306 q 695 304 706 300 q 683 321 685 308 q 675 311 678 317 q 658 278 668 292 q 636 249 647 264 q 628 235 632 242 q 625 218 624 228 q 624 217 625 218 q 613 197 613 207 q 615 178 614 188 q 614 167 615 169 q 613 156 614 161 q 613 143 613 150 q 619 147 617 147 q 621 146 621 147 q 631 132 619 138 q 638 126 638 129 q 635 117 639 124 q 624 103 626 108 q 621 101 622 103 q 617 84 624 90 q 604 71 611 78 q 596 53 599 63 q 590 33 593 43 q 590 31 590 33 q 614 38 603 32 q 636 50 625 44 q 638 38 647 42 q 624 25 631 31 q 607 18 617 19 q 596 11 600 15 q 583 0 589 6 q 567 -8 576 -6 q 563 -22 560 -8 q 549 -24 551 -18 q 544 -35 546 -29 q 539 -31 540 -36 q 533 -29 538 -26 q 539 -23 536 -26 q 544 -17 542 -19 l 542 -15 q 530 -24 536 -19 q 517 -32 524 -29 l 518 -35 l 524 -35 q 515 -40 519 -37 q 507 -42 511 -42 q 494 -47 499 -42 q 483 -56 489 -51 q 465 -67 474 -61 q 449 -78 457 -72 q 434 -82 442 -81 q 422 -89 426 -83 l 403 -103 q 363 -117 383 -111 q 319 -126 342 -122 q 303 -128 311 -128 q 286 -131 294 -128 q 252 -131 269 -131 q 218 -133 235 -132 l 213 -133 q 180 -132 196 -129 q 144 -132 164 -135 q 133 -128 139 -131 q 119 -125 126 -126 q 125 -137 121 -132 q 107 -133 122 -140 q 86 -117 92 -125 q 82 -124 83 -122 q 69 -104 68 -117 q 81 -106 76 -104 q 77 -101 78 -103 q 75 -97 76 -100 q 88 -99 79 -99 q 90 -89 88 -92 q 101 -90 97 -89 q 110 -83 110 -90 l 113 -83 q 103 -74 110 -76 q 90 -65 96 -71 l 101 -65 q 108 -58 106 -62 q 115 -51 111 -54 q 92 -51 104 -44 q 79 -50 86 -57 l 78 -50 q 75 -49 76 -50 q 57 -49 65 -44 q 42 -49 49 -51 q 28 -50 35 -47 q 22 -46 22 -50 q 17 -43 19 -43 q 13 -43 14 -43 q -5 -42 3 -46 q -21 -36 -12 -37 q -6 -36 -14 -36 q 8 -37 1 -36 q 10 -35 8 -36 q 1 -31 7 -31 q -3 -24 -4 -31 q -11 -19 -7 -21 q -18 -15 -15 -18 l -44 6 l -44 13 q -6 15 -25 15 q 31 13 13 14 q 51 10 42 11 q 68 10 60 10 q 74 8 71 7 q 75 13 76 8 q 90 10 86 13 q 101 5 96 6 q 114 3 107 4 q 105 13 110 10 q 93 18 100 15 q 75 26 83 22 q 58 36 67 29 q 69 35 64 36 q 81 33 75 33 l 81 35 q 82 36 81 35 l 69 50 q 83 51 76 50 q 97 51 90 51 q 92 55 94 53 q 86 60 89 57 l 88 61 q 117 58 103 60 q 144 54 131 57 q 190 49 168 51 q 235 43 213 46 q 242 42 239 43 q 249 39 246 40 q 229 36 240 39 l 210 36 q 201 37 206 36 q 190 39 197 38 l 150 44 q 132 38 139 47 q 162 31 147 35 q 190 25 176 28 q 207 22 199 24 q 224 21 215 19 q 269 36 247 28 m 254 413 q 242 397 246 399 q 228 399 238 396 q 227 391 225 393 q 233 392 229 389 q 244 394 236 392 q 254 399 253 397 q 235 381 243 382 q 217 396 228 381 q 219 401 218 399 q 224 407 221 404 q 240 410 235 410 q 247 414 243 410 q 254 413 250 418 m 243 367 q 264 372 254 372 l 249 354 q 253 356 251 356 q 257 358 254 356 q 244 346 253 346 q 233 345 239 346 q 224 354 226 344 l 232 354 q 227 357 229 356 q 222 360 225 358 q 243 367 233 360 m 513 339 q 506 331 508 335 q 500 325 503 328 q 505 322 503 324 q 510 321 507 321 q 506 315 507 318 q 501 310 504 313 q 506 302 504 306 q 511 296 508 299 q 517 306 514 306 q 525 311 525 307 q 524 319 525 315 l 513 339 m 63 -39 q 76 -40 68 -36 q 90 -35 83 -43 q 78 -32 83 -32 q 65 -32 72 -32 q 58 -35 60 -32 q 60 -37 60 -36 q 63 -39 60 -37 m 257 381 q 224 374 246 364 q 240 378 232 376 q 257 381 249 379 m 329 -69 q 338 -67 332 -64 q 342 -62 343 -69 q 326 -63 333 -61 q 313 -75 318 -65 q 324 -72 318 -72 q 329 -69 329 -72 m 44 -86 q 53 -78 49 -81 l 74 -97 l 44 -86 m 586 526 q 596 514 593 515 q 607 510 599 513 q 586 526 601 524 m 217 744 q 224 763 222 753 q 217 761 219 761 q 210 758 214 761 q 217 744 215 753 m 113 -83 q 121 -85 117 -85 q 126 -78 125 -86 q 118 -78 122 -78 q 113 -83 114 -78 m 221 772 q 226 785 231 776 q 221 772 217 782 m 240 811 q 245 821 243 817 q 250 829 247 825 q 240 823 242 825 q 240 811 239 821 m 161 -142 q 149 -144 153 -144 q 138 -137 144 -143 l 161 -142 m 104 465 q 110 475 108 472 q 108 476 108 475 q 104 476 107 476 q 101 468 101 474 l 103 467 q 104 465 103 465 m 654 208 q 655 198 654 203 q 656 188 656 193 l 654 188 q 651 208 651 201 l 654 208 m 79 -82 q 85 -79 82 -82 q 90 -89 86 -86 q 79 -82 82 -89 m 51 -25 l 39 -21 q 36 -24 39 -24 q 44 -26 40 -25 q 51 -28 47 -28 l 51 -25 m 522 274 q 524 263 524 267 q 525 256 525 258 q 522 274 517 264 m 682 1015 q 693 1014 689 1015 q 692 1010 692 1014 q 682 1011 688 1011 l 682 1015 m 313 -75 q 303 -72 306 -72 q 296 -78 301 -72 l 313 -75 m 232 354 q 240 350 238 350 q 249 354 242 350 l 232 354 m 69 -61 q 69 -67 69 -64 q 71 -76 69 -71 q 69 -61 61 -69 m 563 461 q 561 460 561 461 q 560 460 561 460 l 558 458 q 555 463 557 461 q 551 468 553 465 l 563 461 m 419 1035 q 420 1038 419 1036 q 421 1042 421 1039 l 417 1042 q 416 1038 417 1039 q 415 1035 415 1038 l 419 1035 m 453 444 q 455 437 454 438 q 461 436 456 436 l 453 444 m 682 1028 q 678 1031 683 1028 l 678 1032 q 688 1031 682 1031 l 688 1028 l 682 1028 m 131 46 q 122 44 126 46 q 125 40 125 42 q 132 44 126 43 l 131 46 m 125 -61 q 128 -63 126 -62 q 131 -67 129 -64 q 125 -61 126 -56 m 636 189 q 640 181 638 182 l 636 181 l 636 189 z "},"6":{"ha":764,"x_min":6,"x_max":757,"o":"m 626 361 q 633 370 632 368 q 631 378 633 372 l 617 406 q 606 419 610 413 q 590 429 601 425 l 575 440 q 567 448 571 443 q 557 456 563 453 q 541 463 550 460 q 525 471 532 465 q 526 475 517 474 q 548 478 535 476 q 570 480 561 479 q 571 483 579 481 q 511 488 542 486 q 451 488 481 490 q 422 483 435 488 q 391 471 406 476 q 361 457 376 465 q 324 437 342 447 q 294 410 307 426 q 268 376 279 396 q 264 369 265 374 q 258 363 263 365 q 253 355 254 360 q 250 346 251 350 q 246 327 249 336 q 240 308 243 318 q 238 304 240 307 q 229 294 229 297 q 238 283 229 290 q 248 277 243 281 q 258 269 253 274 l 258 268 q 240 269 249 268 q 222 269 232 269 l 218 265 q 217 264 217 265 q 215 261 215 261 l 207 261 q 199 260 203 261 q 192 258 196 260 q 200 236 203 250 q 206 225 200 231 l 213 214 q 224 199 218 207 q 235 181 229 190 q 247 172 239 174 q 258 163 256 169 q 267 155 261 158 q 269 144 274 151 q 271 142 271 143 q 277 135 274 139 q 283 131 281 131 q 290 127 290 131 q 293 121 290 124 q 295 120 294 121 q 299 119 296 119 q 311 110 306 119 l 311 104 q 313 101 311 103 q 323 97 319 100 q 331 92 326 93 l 356 79 q 390 65 372 69 q 428 65 407 61 q 453 70 440 68 q 476 78 465 72 l 478 78 l 494 86 q 510 92 503 88 q 513 87 513 89 q 514 82 513 85 l 513 81 q 500 73 506 76 q 489 65 494 69 q 483 58 486 64 q 477 52 481 56 q 467 46 474 49 q 488 43 465 44 q 533 39 510 42 q 538 36 533 36 l 538 38 q 565 35 553 36 q 576 32 576 33 q 564 22 575 25 l 535 13 q 526 13 535 13 q 533 19 526 17 q 531 28 540 21 q 515 22 519 28 q 503 11 510 15 q 472 -8 489 -3 l 460 -12 l 457 -14 q 441 -10 449 -10 q 426 -11 433 -11 q 415 -12 419 -11 q 406 -11 410 -12 q 322 11 361 -4 q 246 50 282 26 q 207 82 224 64 q 184 105 196 93 q 161 129 172 117 l 124 182 q 83 253 100 215 q 49 329 65 290 q 34 362 40 344 q 22 394 28 379 q 13 427 15 411 q 7 460 10 443 q 6 490 6 475 q 6 521 6 506 q 10 556 6 539 q 11 560 10 558 q 13 563 13 561 q 12 570 13 567 q 11 579 11 574 q 16 605 14 592 q 22 632 18 618 q 25 640 22 636 q 31 644 28 643 q 43 649 42 644 q 44 658 44 653 l 44 664 l 31 667 q 97 788 57 729 q 157 872 128 833 q 174 894 164 883 q 194 917 185 906 q 210 938 203 928 q 228 957 218 947 q 272 996 250 976 q 318 1035 294 1015 q 356 1060 335 1049 q 386 1080 372 1068 q 415 1103 400 1092 q 418 1128 426 1114 q 415 1157 410 1142 q 429 1147 428 1157 q 436 1136 431 1140 q 460 1093 450 1115 q 472 1047 469 1071 q 476 1028 474 1038 q 479 1008 478 1019 q 471 1018 474 1013 q 460 1017 468 1024 l 472 1007 q 453 999 457 1006 q 446 983 449 992 q 433 965 442 972 q 418 950 425 958 l 410 944 q 376 910 394 925 q 342 878 357 896 q 307 842 324 860 q 276 804 290 825 q 252 767 265 785 q 226 732 239 750 q 205 701 215 717 q 188 669 194 686 l 164 635 q 135 575 140 607 q 130 556 133 565 q 124 538 126 546 q 119 531 122 533 q 114 525 117 528 q 124 500 132 517 q 123 491 122 494 q 122 485 124 488 q 118 472 122 476 q 115 463 115 465 q 122 457 114 461 q 122 444 119 450 q 114 435 124 439 l 114 408 q 129 403 118 406 l 139 415 q 138 422 139 418 q 140 429 136 425 q 142 436 142 431 q 153 463 138 450 q 158 467 156 464 q 164 472 160 469 q 154 454 161 461 q 147 438 147 447 q 144 423 146 431 q 149 406 143 415 q 154 419 151 413 q 160 432 157 425 q 151 431 154 432 q 164 451 153 443 q 167 456 163 451 q 172 464 169 458 q 177 468 175 467 q 179 472 179 469 q 192 488 182 483 q 213 499 203 493 q 222 514 222 504 q 226 520 225 517 q 231 525 228 524 q 251 540 242 531 q 257 543 254 543 q 263 544 260 543 q 276 549 269 547 q 288 554 282 550 q 314 561 299 564 q 326 565 322 561 q 342 572 338 571 q 363 571 347 572 q 350 567 356 568 q 342 561 344 565 q 330 555 336 556 q 318 551 324 554 l 299 539 q 335 543 317 542 q 368 556 353 544 q 386 563 372 560 q 392 561 390 563 q 397 561 397 561 q 435 568 414 571 l 439 568 q 453 572 446 574 q 469 568 461 569 q 478 567 472 567 q 486 569 483 568 q 467 558 483 560 q 460 558 461 558 q 454 551 458 557 q 459 550 457 551 q 464 551 461 549 q 479 555 471 553 q 494 556 488 557 q 517 558 506 556 q 539 557 528 561 l 539 549 q 557 549 549 549 q 575 547 565 549 q 562 547 578 547 q 526 547 546 547 q 491 547 507 547 q 478 544 475 546 l 469 538 q 478 536 472 538 q 489 535 483 535 l 504 542 q 500 538 504 539 q 501 532 496 536 q 507 533 506 529 q 508 539 508 536 q 511 540 510 540 q 515 542 513 540 l 510 531 q 519 530 515 531 q 528 531 524 529 q 543 529 535 532 l 560 521 q 563 520 563 519 q 565 519 564 521 q 599 503 581 508 q 631 483 618 497 q 648 475 642 482 q 664 463 654 468 q 669 460 667 461 q 674 456 671 458 l 679 456 q 688 450 683 453 q 694 444 692 447 q 709 431 701 438 q 722 418 717 425 q 735 400 728 408 q 749 381 743 392 q 754 371 751 376 q 749 360 757 365 q 747 357 747 360 q 749 353 747 354 q 748 326 753 339 q 742 297 743 313 q 736 290 742 292 q 722 275 729 282 q 708 261 715 268 l 694 242 q 686 233 692 235 q 671 221 676 228 q 661 206 665 214 q 658 204 660 204 q 656 203 657 204 q 654 203 656 203 q 656 218 656 208 q 647 218 651 218 q 642 211 643 218 q 638 207 642 211 q 596 167 617 183 q 591 163 593 164 q 586 161 589 163 q 580 140 586 149 q 564 122 574 131 l 550 110 q 528 113 540 111 q 505 116 515 114 q 488 120 494 118 q 485 125 482 122 l 508 143 q 515 150 515 150 q 526 151 522 149 q 532 157 529 154 q 537 163 535 160 q 538 169 539 167 q 550 176 544 168 q 579 213 565 194 q 601 254 593 232 q 608 271 604 263 q 606 288 611 279 q 619 293 613 290 q 633 299 626 296 q 642 317 644 306 q 642 326 638 321 q 626 361 647 349 m 157 221 q 126 278 139 249 q 99 336 113 307 q 78 388 88 363 q 61 440 68 413 q 57 455 58 447 q 54 471 56 463 q 54 440 47 453 q 55 431 57 436 q 54 421 53 426 q 60 413 56 417 q 63 403 65 408 q 63 385 60 393 q 71 368 67 376 q 77 354 74 361 q 83 339 81 347 q 91 313 85 325 q 104 289 97 301 q 117 266 110 278 q 129 242 124 254 q 133 235 129 239 q 139 228 136 232 q 149 219 143 224 q 157 207 154 214 q 171 183 163 194 q 188 158 179 171 q 200 158 192 153 q 178 189 189 174 q 157 221 167 204 m 158 274 q 158 260 157 265 q 167 247 160 254 q 172 237 165 240 q 179 226 178 233 q 183 211 179 219 q 192 196 186 203 q 215 165 203 181 q 239 135 226 150 q 248 126 243 129 q 261 125 253 122 q 259 115 258 118 q 265 108 260 113 l 293 85 l 299 93 q 303 87 301 89 q 307 82 306 85 q 331 68 317 68 q 339 65 335 67 q 344 61 343 64 q 358 55 351 54 q 374 53 365 56 q 383 50 378 50 q 392 47 388 50 q 391 51 392 50 q 390 53 390 51 q 269 125 317 76 q 211 192 238 157 q 165 267 185 226 q 162 269 164 268 q 158 274 160 271 m 446 25 q 394 30 418 25 q 347 42 371 35 q 391 19 361 24 q 446 25 421 14 m 271 82 l 268 79 q 278 71 274 75 q 289 61 283 67 q 306 53 297 57 q 322 43 314 49 q 332 47 328 40 l 271 82 m 243 457 q 215 447 224 457 q 208 436 211 442 q 203 424 206 431 l 203 422 l 206 422 l 210 428 q 216 433 213 431 q 222 436 219 436 q 233 444 231 439 q 243 457 236 450 m 149 374 q 140 407 149 399 l 135 372 q 149 374 144 372 m 43 392 q 44 404 50 399 q 40 418 38 410 l 25 407 q 29 394 29 400 q 37 395 36 401 q 43 392 38 389 m 25 435 q 28 427 29 432 q 36 422 28 422 q 37 436 40 429 q 31 450 33 443 l 17 433 q 18 432 17 432 q 25 435 22 432 m 521 88 l 522 88 q 553 103 540 94 q 568 108 558 108 q 565 108 571 108 q 550 110 560 108 l 521 88 m 40 679 q 50 674 49 676 q 57 685 53 681 q 56 697 61 689 l 40 679 m 581 71 q 569 64 575 68 q 557 56 563 60 q 556 50 556 56 q 574 60 571 57 q 581 71 578 64 m 207 151 q 207 137 204 140 q 221 129 210 133 q 213 140 217 136 q 207 151 210 144 m 17 511 q 10 503 6 508 q 14 501 10 501 q 17 511 21 503 m 388 11 l 363 15 q 388 11 369 7 m 65 333 q 69 338 69 336 q 63 347 69 339 q 65 333 63 338 m 439 4 l 439 8 q 422 3 433 6 q 424 1 422 1 q 439 4 428 1 m 244 97 q 249 100 244 100 l 240 108 q 238 106 240 108 q 244 97 243 100 m 474 79 q 476 78 475 78 l 478 78 q 485 85 482 81 q 483 85 483 85 q 482 86 483 86 q 474 79 479 85 m 207 151 q 200 158 203 153 l 200 149 q 201 147 201 147 l 207 151 m 158 274 q 151 282 161 281 q 156 278 154 279 q 158 274 157 276 m 538 43 q 535 39 535 42 q 536 38 536 39 q 538 38 536 38 l 540 40 l 538 43 m 514 82 l 521 88 l 514 82 z "},"7":{"ha":785,"x_min":-24,"x_max":775,"o":"m 464 158 l 464 218 q 463 219 463 219 q 458 210 460 214 q 454 200 457 206 q 450 183 453 190 q 447 167 447 175 q 446 154 447 160 q 447 142 444 149 q 447 131 449 136 q 443 119 444 125 q 443 104 442 113 q 443 88 446 97 q 442 78 439 81 q 444 60 444 69 q 444 43 444 51 q 447 24 444 32 q 450 4 449 15 q 453 -16 453 -7 q 453 -35 453 -25 l 453 -69 q 453 -114 453 -93 q 454 -158 453 -135 q 453 -193 454 -176 q 447 -228 451 -210 q 442 -249 444 -239 q 428 -269 439 -260 q 426 -263 426 -267 q 424 -257 426 -260 q 420 -259 422 -258 q 418 -261 418 -260 q 415 -274 418 -269 q 407 -286 411 -279 q 367 -303 393 -310 l 339 -300 q 329 -274 331 -285 l 325 -274 l 325 -276 q 324 -279 324 -278 q 321 -282 324 -281 q 319 -269 319 -278 q 312 -292 313 -281 q 296 -310 311 -303 q 304 -319 303 -312 q 304 -332 306 -326 q 301 -341 303 -337 q 299 -350 299 -344 q 297 -358 300 -356 q 289 -365 293 -361 q 282 -331 281 -347 q 283 -297 283 -315 q 282 -272 283 -285 q 279 -249 281 -260 q 278 -227 279 -237 q 283 -207 276 -217 q 284 -201 285 -204 q 283 -194 283 -197 q 292 -185 288 -189 q 299 -176 296 -182 q 299 -166 301 -171 q 289 -158 297 -161 q 299 -153 296 -156 q 299 -144 303 -151 q 295 -147 296 -146 q 293 -150 294 -149 q 279 -166 286 -158 q 265 -183 272 -174 l 239 -225 q 203 -261 229 -249 q 198 -228 197 -244 q 203 -194 199 -211 q 226 -174 207 -175 q 243 -127 236 -150 q 247 -79 250 -104 q 249 -69 247 -72 q 259 -40 256 -56 q 264 -10 263 -25 q 268 14 264 1 q 268 34 268 25 q 269 54 268 43 q 274 77 272 65 q 279 101 276 89 q 281 111 279 108 q 282 122 283 117 q 288 135 281 128 q 290 143 290 138 q 289 154 289 149 q 290 167 289 161 q 294 178 290 172 q 299 193 300 183 q 298 203 299 199 q 304 211 297 208 q 307 217 306 213 q 306 224 308 221 q 304 235 303 231 q 308 246 306 239 q 319 294 314 269 q 332 342 325 318 q 347 388 339 365 q 363 435 356 411 q 371 461 368 449 q 378 488 374 474 q 383 506 381 492 l 396 538 l 396 540 q 395 572 392 557 q 406 603 399 588 l 433 668 q 444 706 440 686 q 460 747 451 728 q 475 786 468 767 q 485 806 479 797 q 496 825 490 814 q 506 844 503 833 q 515 865 510 854 q 519 856 515 861 q 529 878 524 868 q 536 900 535 889 q 429 886 485 886 l 371 886 q 359 885 364 886 q 347 885 354 885 q 319 885 333 885 q 290 886 306 885 l 253 893 q 249 892 250 893 q 244 892 247 892 q 227 892 235 892 q 211 897 219 893 q 197 901 204 900 q 182 906 189 903 q 123 925 150 913 q 68 951 96 938 l 54 963 q 47 968 47 967 q 50 976 46 969 q 80 978 67 982 q 108 971 93 974 q 42 998 76 986 q -24 1028 8 1010 q -22 1031 -24 1031 q -4 1031 -12 1031 q 11 1031 4 1032 q 49 1027 31 1029 q 88 1022 68 1025 q 122 1013 104 1018 q 157 1001 140 1007 q 269 967 215 985 q 288 962 278 964 q 308 963 297 960 q 312 963 310 964 q 315 963 314 963 l 340 957 l 350 968 q 382 958 364 956 l 458 964 q 465 967 465 964 q 468 972 465 972 q 475 972 471 972 q 488 974 479 974 l 488 976 q 442 984 464 981 q 399 989 421 988 q 326 993 363 992 q 254 997 290 994 q 200 1004 226 999 q 146 1017 174 1010 q 110 1040 119 1026 q 133 1040 121 1040 q 157 1039 146 1039 q 160 1040 158 1040 l 139 1050 q 129 1065 131 1061 q 160 1060 144 1063 q 192 1054 176 1057 q 285 1046 239 1047 q 378 1046 332 1044 q 465 1048 422 1049 q 551 1042 508 1047 l 626 1036 q 638 1046 631 1044 q 654 1046 646 1047 q 672 1042 663 1044 q 689 1033 682 1039 q 699 1029 693 1031 q 708 1025 704 1028 q 703 1015 706 1024 q 714 1003 708 1008 q 726 990 719 997 q 736 988 731 988 q 747 988 742 989 q 729 982 740 985 q 743 974 740 979 q 744 960 746 969 q 755 972 756 963 q 761 983 754 981 q 768 976 768 978 q 760 963 768 974 l 760 938 q 768 935 764 935 q 775 933 772 935 q 754 903 763 921 q 735 876 743 889 q 715 849 726 863 q 694 826 708 838 q 686 819 690 822 q 678 813 682 817 l 672 808 q 644 789 651 797 q 632 765 636 781 q 626 746 629 754 q 617 728 622 738 q 618 718 611 722 l 636 736 q 630 722 633 728 q 624 711 626 717 q 621 706 622 708 q 617 701 619 703 q 601 681 606 692 q 592 658 596 669 q 586 640 588 649 q 581 624 585 632 q 574 600 574 613 q 565 578 574 588 q 564 566 568 571 q 557 554 560 561 l 554 532 l 539 483 q 533 463 536 474 q 529 442 529 453 q 524 422 529 432 q 515 400 519 411 q 507 380 511 390 q 504 357 503 369 q 501 344 504 350 q 496 332 499 339 q 488 308 492 319 q 481 282 483 296 q 478 276 479 279 q 475 269 478 272 q 470 254 471 263 q 468 238 469 246 q 468 232 468 235 q 469 226 468 229 q 478 194 481 210 q 469 163 476 179 q 465 158 465 158 l 464 158 m 331 290 l 329 290 q 326 292 328 290 q 322 283 322 285 q 325 274 322 281 q 328 283 326 279 q 331 290 329 286 z "},"8":{"ha":768,"x_min":19,"x_max":725,"o":"m 699 88 q 697 95 694 92 q 704 103 700 99 q 699 113 700 106 q 682 74 689 93 q 657 38 675 54 q 667 70 663 54 q 675 103 671 86 q 678 115 678 110 q 685 128 679 121 q 681 143 686 131 l 654 119 q 653 104 647 113 q 658 82 660 93 q 651 60 657 71 q 647 55 649 57 q 647 51 644 53 q 649 46 650 49 q 644 40 647 43 q 632 24 639 32 q 618 7 625 15 q 606 -9 613 -1 q 594 -25 600 -17 q 591 -28 592 -26 q 589 -31 590 -29 q 567 -44 578 -37 q 544 -60 556 -51 q 522 -72 533 -67 q 494 -78 510 -76 q 485 -79 490 -78 q 476 -82 481 -81 q 445 -84 461 -85 q 414 -85 429 -83 l 407 -85 q 394 -83 400 -83 q 381 -83 388 -82 q 364 -82 375 -85 q 353 -81 357 -82 q 344 -82 349 -81 q 328 -81 336 -82 q 313 -79 319 -81 l 288 -76 q 278 -72 282 -76 q 256 -62 268 -65 q 231 -56 244 -58 q 160 -18 190 -42 q 107 38 126 8 l 78 71 q 56 113 63 90 q 44 157 49 135 l 44 165 q 43 167 44 167 q 40 171 42 168 q 42 128 38 146 q 33 126 39 126 q 39 113 35 119 q 35 99 43 106 l 44 99 q 43 90 49 92 q 33 86 38 89 q 34 93 33 90 q 35 99 35 96 q 29 109 28 104 q 29 118 31 114 q 28 126 29 124 q 19 126 26 128 q 23 153 21 140 q 26 178 25 165 q 42 183 31 181 q 43 191 42 188 q 46 200 44 194 q 38 194 39 200 q 26 192 38 188 q 29 201 29 194 q 35 208 32 208 q 44 222 47 214 q 44 236 42 229 q 42 242 44 239 q 40 249 39 246 q 45 253 42 251 q 53 260 49 256 q 57 282 44 268 q 65 294 64 288 q 68 308 65 301 l 60 311 l 60 314 q 70 328 65 321 q 82 343 75 336 q 83 350 83 346 q 89 364 81 360 q 94 368 94 367 q 99 379 94 375 q 103 389 104 383 q 105 392 103 390 q 108 396 107 394 q 101 406 101 399 q 107 417 101 415 q 108 419 108 418 q 117 433 110 428 q 133 440 124 438 q 133 449 133 444 q 131 458 133 454 q 124 463 128 461 q 126 467 125 465 q 129 472 128 469 q 157 514 144 493 q 183 557 169 535 q 201 578 193 568 q 217 599 210 588 q 218 603 221 603 q 217 615 214 610 q 218 625 221 619 q 203 630 211 628 q 192 638 196 632 l 186 642 q 207 663 179 661 q 208 689 215 676 q 208 694 207 692 q 207 699 208 696 q 196 717 199 699 q 192 719 193 718 q 188 722 190 721 l 182 725 q 182 734 186 731 q 181 742 178 738 q 178 759 183 751 q 167 774 174 767 q 162 781 164 776 q 157 789 160 786 q 150 794 157 790 q 139 831 149 807 q 127 832 132 832 q 118 832 122 832 q 103 832 111 832 q 89 833 96 832 q 76 843 79 836 q 73 850 74 846 q 71 857 72 854 q 69 874 71 865 q 68 890 68 883 q 67 900 67 894 q 68 910 68 906 q 71 915 71 911 q 64 948 60 931 q 68 981 68 965 q 69 998 68 989 q 74 1017 71 1007 l 88 1049 q 89 1064 94 1056 q 93 1076 86 1067 q 124 1114 106 1096 q 161 1149 142 1132 q 175 1157 168 1154 q 189 1163 182 1160 q 233 1174 211 1171 q 278 1179 256 1178 q 332 1179 306 1181 q 385 1172 358 1178 q 437 1156 413 1165 q 482 1131 461 1147 l 521 1104 q 526 1103 522 1103 q 533 1103 529 1104 q 533 1090 525 1097 q 554 1088 543 1083 q 560 1090 557 1089 q 564 1086 563 1090 l 553 1081 q 573 1065 563 1072 q 594 1049 583 1057 q 626 1017 611 1033 q 647 981 640 1000 l 664 950 q 656 999 671 978 q 622 1042 642 1021 q 641 1039 638 1040 q 651 1028 644 1038 q 675 1003 667 1015 q 698 963 686 982 q 717 922 710 943 q 710 904 721 911 q 722 906 713 906 q 725 879 725 892 q 725 853 725 867 q 720 835 718 844 q 719 815 722 825 q 714 785 714 800 q 707 756 714 771 q 703 734 704 744 q 700 711 703 724 q 697 708 699 710 q 694 700 694 706 q 693 697 694 700 q 685 678 690 686 q 681 658 679 669 q 678 639 681 647 q 672 619 675 631 q 663 606 671 613 q 644 594 654 600 q 627 581 635 588 q 618 568 619 575 q 613 546 615 560 q 608 535 610 540 q 608 524 606 531 q 604 511 610 521 l 599 504 l 593 471 q 590 467 592 468 q 586 465 588 467 q 589 464 586 464 q 592 463 590 464 q 599 449 590 456 q 620 438 608 443 q 643 428 632 433 q 658 419 654 424 q 674 391 669 406 q 683 361 679 376 q 689 343 683 350 l 694 322 l 704 301 l 707 260 q 708 217 710 238 q 701 176 706 197 l 696 156 q 707 147 707 156 q 710 158 710 153 q 711 171 710 164 l 715 165 q 721 168 718 165 l 722 169 q 724 158 722 164 q 722 144 725 151 q 715 125 722 132 q 706 104 706 117 l 704 103 q 701 94 701 99 q 699 88 700 90 m 564 107 q 564 118 564 113 q 563 131 564 124 q 547 176 556 154 q 549 182 547 178 q 555 179 551 181 q 563 176 558 178 q 560 188 560 183 q 558 200 560 193 q 551 233 556 217 q 538 264 547 249 q 523 288 531 276 q 507 311 515 300 q 499 324 503 318 q 490 338 496 331 q 481 349 483 343 q 476 363 479 356 q 497 351 488 357 q 522 349 507 346 q 521 342 521 346 q 524 333 521 342 l 513 338 q 526 318 517 318 q 533 315 532 318 q 536 310 533 313 q 564 299 540 297 q 550 325 560 307 q 528 361 540 343 q 507 394 517 379 q 494 411 497 408 q 482 404 488 408 q 476 392 476 400 q 474 386 476 389 l 464 382 q 464 399 453 390 l 454 406 l 422 454 q 415 463 419 458 q 407 474 411 467 q 393 467 400 469 q 379 461 386 464 q 360 450 368 456 q 343 439 351 444 q 333 435 339 436 q 322 435 328 433 q 340 449 331 442 q 354 467 350 457 q 344 476 351 471 q 331 467 338 471 q 322 456 324 463 q 307 440 315 444 q 281 408 289 428 q 270 390 276 399 q 260 372 264 382 q 249 354 256 363 q 239 336 242 346 q 235 315 238 325 q 229 294 232 306 q 226 280 228 288 q 222 265 225 272 l 218 268 q 213 195 210 232 q 235 124 215 158 l 249 128 q 250 122 251 124 q 250 113 249 117 q 254 106 251 110 q 301 44 264 68 q 322 31 311 38 q 344 18 333 25 q 335 19 340 19 q 328 22 331 19 q 291 42 306 31 q 264 68 276 53 q 259 73 261 71 q 254 78 257 75 q 253 76 254 76 l 251 76 q 255 65 254 71 q 260 56 256 60 l 282 29 q 312 7 294 15 q 344 -11 329 -1 l 346 -11 q 364 -16 356 -14 q 381 -21 372 -18 q 394 -22 389 -22 q 408 -18 400 -21 q 385 -12 392 -19 q 383 -10 385 -11 q 379 -11 381 -10 q 368 -9 372 -12 q 361 -3 364 -6 q 367 1 364 0 q 372 6 369 3 q 368 8 371 6 q 377 6 372 7 q 386 3 382 6 q 401 0 393 0 q 417 1 408 0 q 428 6 422 3 q 438 15 435 8 l 428 15 l 438 19 q 443 10 440 14 q 449 0 446 6 q 471 13 461 6 q 485 32 481 19 q 506 35 500 33 q 518 50 511 38 q 529 72 526 61 q 538 83 532 78 q 549 89 543 88 q 560 96 557 92 q 564 107 563 100 m 285 856 q 281 838 278 847 q 286 822 283 829 q 290 813 288 817 q 293 803 292 808 l 317 753 q 332 751 325 753 q 330 740 329 742 q 340 739 331 739 q 343 731 343 735 q 344 721 343 726 q 369 714 356 721 q 377 710 372 711 q 385 707 382 710 q 392 701 389 703 q 401 697 394 699 q 404 694 403 696 q 403 690 406 692 q 405 681 400 683 q 413 676 410 679 q 419 671 414 674 q 426 664 424 668 q 428 661 428 663 q 432 658 429 660 q 444 644 438 651 q 456 629 451 636 q 469 610 463 618 q 482 594 476 603 q 488 586 485 590 q 496 578 492 582 q 504 590 504 588 q 496 600 504 593 q 483 617 490 608 q 469 633 476 625 l 469 639 l 474 639 l 508 594 q 522 615 519 604 q 529 626 524 621 q 538 636 535 631 q 538 638 539 636 l 557 719 q 562 772 563 746 q 547 822 561 797 q 528 863 536 842 q 513 908 519 885 q 495 954 506 932 q 474 1000 485 976 q 440 1024 460 1018 q 428 1028 435 1026 q 414 1029 421 1031 q 376 1021 394 1026 q 346 1000 357 1015 q 343 997 343 997 q 313 972 324 988 q 288 934 297 953 q 281 892 278 915 q 282 876 282 885 q 285 861 282 868 l 285 856 m 113 47 q 117 52 115 50 q 121 57 119 54 q 115 84 121 72 q 101 107 110 96 l 89 107 l 99 115 q 93 131 96 124 q 86 149 90 139 l 81 139 q 81 152 81 146 q 82 165 82 158 q 81 183 82 174 q 81 201 81 192 q 79 210 81 206 q 78 221 78 214 q 72 215 72 219 q 67 200 71 208 q 67 183 64 192 q 65 172 68 179 q 64 168 65 169 q 63 164 63 167 q 67 142 65 153 q 71 122 68 132 q 74 109 72 115 q 78 96 76 103 q 93 71 85 82 q 113 47 101 60 m 246 -50 q 279 -62 261 -60 q 317 -68 297 -65 l 293 -60 q 266 -48 281 -53 q 240 -32 251 -43 l 235 -32 q 221 -27 228 -29 q 213 -17 214 -25 q 210 -13 213 -14 q 207 -11 208 -12 q 189 3 199 -4 q 151 39 169 24 q 140 31 144 36 q 139 21 136 26 l 146 21 q 152 6 146 17 q 165 -8 158 -6 q 199 -31 182 -21 q 239 -47 215 -42 q 246 -50 243 -47 m 317 -21 q 358 -31 336 -32 q 332 -14 347 -18 l 331 -14 q 328 -12 329 -14 q 231 57 271 15 q 222 67 226 63 q 213 78 218 72 q 207 72 206 75 q 210 65 208 68 l 222 51 q 228 42 225 47 q 235 33 232 38 q 272 -1 250 10 q 282 -3 276 -4 q 290 -4 288 -3 q 296 -9 294 -6 q 303 -12 297 -12 q 310 -16 306 -14 q 317 -21 314 -18 m 44 86 q 51 78 54 83 q 51 68 47 72 q 58 60 56 65 q 65 53 61 56 q 72 45 69 50 q 82 40 74 40 q 78 29 82 38 q 86 31 86 29 q 94 25 93 26 q 107 8 101 17 q 119 -8 113 0 q 126 -15 122 -11 q 133 -22 129 -19 q 142 -18 138 -22 q 154 -33 149 -25 q 167 -46 160 -40 q 185 -57 175 -53 q 204 -67 194 -61 q 189 -64 197 -69 q 151 -42 168 -54 q 119 -14 135 -29 q 99 6 108 -4 q 78 29 89 17 q 56 53 65 42 q 36 78 47 65 q 40 81 39 79 q 44 86 42 83 m 297 1038 q 286 1006 285 1025 q 316 1031 301 1019 q 349 1056 331 1043 q 338 1056 342 1056 q 329 1056 333 1057 q 315 1053 322 1053 q 306 1043 307 1053 q 302 1040 306 1040 q 297 1038 299 1039 m 458 440 q 471 419 467 429 q 481 436 486 426 q 469 452 475 444 q 456 467 463 460 l 454 467 q 455 461 454 464 q 456 456 456 458 q 451 456 453 456 q 444 457 449 457 q 447 442 450 450 q 454 429 443 435 q 456 439 454 436 q 457 440 456 439 l 458 440 m 403 1071 q 362 1072 371 1074 q 346 1063 353 1069 q 375 1063 361 1063 q 403 1071 389 1064 m 386 494 q 380 502 383 499 q 369 507 376 506 q 367 494 367 500 q 367 481 367 489 q 378 488 374 485 q 386 494 382 492 m 396 556 q 422 546 407 553 q 408 567 419 561 l 396 556 m 429 532 q 392 540 417 543 l 424 526 q 429 532 428 526 m 382 -103 q 379 -96 382 -101 q 392 -92 386 -94 q 406 -89 399 -90 q 396 -99 403 -99 q 382 -103 389 -100 m 235 -78 q 236 -78 238 -78 q 235 -81 235 -79 q 222 -78 228 -81 q 208 -72 215 -75 l 208 -69 q 218 -69 218 -69 q 228 -73 224 -71 q 235 -78 232 -75 m 231 14 q 247 -1 238 6 q 271 -8 256 -7 l 231 14 m 704 122 q 707 133 707 131 q 701 129 701 128 q 700 140 700 135 q 700 151 700 146 q 699 128 690 138 l 704 122 m 569 1075 q 585 1072 581 1078 q 596 1064 590 1067 q 569 1075 582 1065 m 238 -81 q 256 -81 247 -78 q 272 -87 264 -85 q 254 -86 263 -89 q 238 -81 246 -83 m 282 -89 q 294 -91 289 -90 q 307 -94 300 -92 q 306 -96 307 -96 q 306 -97 306 -96 q 282 -92 292 -94 l 282 -89 m 150 469 q 133 460 135 468 q 144 463 136 460 l 150 469 m 225 126 q 222 117 224 121 q 231 113 221 114 q 228 119 229 115 q 225 126 228 124 m 367 1089 q 358 1089 363 1089 q 346 1088 353 1089 q 360 1085 357 1085 q 367 1089 363 1086 m 460 406 q 456 417 467 413 l 460 406 m 721 197 q 719 203 719 200 q 717 208 719 206 l 721 208 q 722 197 722 206 l 721 197 m 699 86 q 694 80 696 83 q 690 74 693 76 q 692 81 693 76 q 699 86 692 86 m 432 1039 q 443 1036 438 1036 l 443 1038 l 432 1040 l 432 1039 m 217 132 q 218 126 218 131 l 221 126 q 222 128 222 126 q 221 130 222 129 q 219 133 219 131 q 217 132 219 133 m 611 1050 l 604 1057 l 606 1058 l 613 1051 l 611 1050 z "},"9":{"ha":693,"x_min":-11,"x_max":818,"o":"m 796 846 q 806 840 799 836 q 818 838 814 844 q 812 831 818 831 q 803 829 806 832 q 769 747 792 785 q 715 672 746 708 q 693 661 700 676 l 693 660 l 690 660 q 685 656 688 657 q 681 651 682 654 q 679 644 679 649 q 679 638 679 640 q 678 622 679 631 q 678 607 678 614 q 674 581 675 594 q 671 557 672 568 q 669 532 669 544 q 667 507 669 519 q 662 467 664 488 q 657 428 660 447 q 633 357 653 392 q 608 312 621 333 q 585 267 594 290 l 546 172 q 531 130 536 151 q 521 85 526 108 l 497 14 l 494 -10 l 481 -53 q 479 -60 479 -56 q 476 -90 481 -75 q 469 -119 472 -104 q 465 -132 467 -126 q 463 -144 464 -137 l 449 -192 q 444 -204 447 -199 q 439 -215 442 -210 l 439 -193 q 439 -182 439 -187 q 446 -174 439 -176 q 446 -159 442 -167 q 447 -144 450 -151 q 447 -135 446 -140 q 449 -125 449 -131 q 432 -169 438 -147 q 421 -214 426 -192 q 411 -253 414 -233 q 403 -293 408 -272 l 385 -347 q 378 -362 382 -354 q 371 -379 374 -371 q 370 -387 369 -383 q 371 -396 371 -392 l 365 -412 l 350 -453 q 348 -465 349 -460 q 347 -478 347 -471 q 347 -501 344 -490 q 350 -517 350 -508 q 350 -533 350 -526 q 345 -543 349 -539 q 339 -553 342 -547 q 333 -565 336 -560 q 333 -576 329 -569 q 331 -582 333 -576 q 319 -599 324 -590 q 313 -618 315 -608 q 308 -629 310 -625 q 303 -639 306 -633 q 291 -667 297 -654 q 279 -694 285 -681 q 275 -706 276 -700 q 272 -718 274 -711 q 265 -733 271 -726 q 256 -747 258 -740 q 257 -727 256 -736 q 258 -708 258 -718 q 258 -692 257 -700 q 258 -676 260 -683 q 260 -672 258 -674 q 263 -663 263 -665 q 264 -651 264 -661 l 251 -654 l 258 -646 l 239 -651 l 239 -650 q 247 -641 242 -644 q 258 -633 251 -637 q 248 -634 251 -633 q 240 -635 244 -635 q 239 -632 240 -633 q 246 -629 240 -632 q 251 -624 250 -626 l 240 -624 l 240 -622 q 249 -619 243 -619 q 278 -592 268 -612 q 272 -582 282 -586 q 258 -574 265 -579 q 243 -567 250 -569 q 257 -555 247 -557 q 267 -542 267 -553 q 258 -548 261 -544 q 250 -554 254 -551 q 247 -553 249 -554 q 243 -553 246 -553 l 232 -565 q 217 -578 225 -572 q 203 -590 210 -585 q 196 -597 199 -593 q 190 -604 193 -600 q 167 -629 183 -615 q 167 -621 167 -621 q 169 -612 169 -617 q 172 -601 169 -607 q 179 -584 176 -593 q 185 -568 182 -575 q 193 -561 185 -560 q 194 -558 194 -560 q 196 -553 194 -554 q 199 -557 197 -556 q 203 -562 200 -558 q 208 -547 204 -556 q 209 -551 208 -550 q 210 -554 210 -553 q 210 -543 224 -546 q 203 -533 203 -542 q 202 -528 203 -531 q 203 -522 201 -525 q 197 -507 203 -514 q 203 -493 192 -499 q 213 -487 208 -489 q 221 -482 218 -485 q 236 -462 231 -478 l 239 -461 q 258 -440 253 -453 q 269 -412 264 -426 q 272 -394 272 -401 q 274 -388 274 -392 q 278 -382 275 -385 q 281 -375 281 -376 q 289 -319 288 -346 q 288 -304 289 -311 q 290 -290 288 -297 q 290 -287 290 -289 q 289 -285 289 -286 q 290 -278 289 -282 q 290 -271 290 -275 q 276 -265 283 -268 q 263 -260 269 -262 q 246 -264 251 -256 q 238 -258 243 -257 q 226 -258 232 -260 l 240 -226 q 256 -210 243 -211 q 264 -203 263 -207 q 275 -174 269 -187 q 286 -147 281 -161 q 295 -120 292 -133 q 304 -94 299 -107 q 310 -82 306 -87 q 317 -71 314 -76 q 325 -56 319 -62 q 332 -39 331 -49 q 338 -2 335 -19 q 343 33 340 15 q 346 42 343 39 q 349 69 353 57 q 350 82 346 78 q 351 72 351 78 q 353 71 351 71 l 356 71 l 365 101 q 362 113 360 107 q 364 125 364 119 q 365 133 364 128 q 368 128 367 129 q 371 125 369 126 q 372 126 371 125 q 378 151 371 138 q 382 163 379 158 q 382 174 385 167 q 385 178 382 176 q 388 183 388 181 q 394 197 392 190 q 400 210 397 203 q 396 226 401 217 q 393 264 383 246 q 403 293 399 278 q 433 300 415 294 q 450 307 442 301 q 458 304 454 306 q 467 300 461 303 q 474 317 469 310 q 475 335 478 325 q 476 338 475 336 q 478 342 478 339 q 487 365 483 353 q 494 388 490 376 q 501 400 497 394 q 508 413 504 406 q 520 438 515 425 q 526 463 525 450 q 528 469 526 468 q 541 499 535 485 q 551 528 547 513 q 554 535 554 531 q 556 543 554 539 q 548 538 549 539 q 546 529 547 536 q 536 533 542 529 q 541 542 539 538 q 546 550 543 546 l 551 574 q 554 586 554 581 q 565 594 554 592 q 563 597 565 594 l 550 597 q 560 613 553 607 q 565 631 568 619 l 558 631 q 544 625 551 625 q 531 625 538 625 q 515 617 519 625 q 499 601 508 607 q 481 588 490 594 q 479 587 479 588 q 478 586 479 586 q 460 585 467 589 q 446 575 453 581 q 423 565 435 567 q 397 561 411 564 q 392 563 394 561 q 388 565 390 564 q 371 565 375 575 q 360 550 364 560 q 350 539 357 540 q 349 538 349 539 q 347 538 349 538 l 346 536 q 342 527 349 529 q 336 519 336 525 q 333 513 339 515 q 325 507 328 511 l 319 499 l 304 494 q 294 491 297 492 q 285 489 292 490 q 271 478 281 479 q 245 472 258 476 q 221 463 232 468 q 219 461 219 463 q 204 448 214 451 q 185 440 194 444 q 169 434 176 438 q 151 429 161 431 l 128 429 l 124 442 l 113 436 q 108 444 113 438 l 101 435 q 90 446 90 435 q 83 447 88 447 q 74 450 78 447 q 67 452 71 451 q 60 456 63 453 q 60 468 53 461 q 47 473 53 471 q 35 479 40 475 q 15 494 24 486 q -3 508 7 501 q -8 517 -6 513 q -6 528 -11 521 q -3 524 -4 525 q -3 519 -3 522 q 1 522 1 521 q 0 538 0 531 q -3 556 0 546 q -3 560 -3 558 q -4 563 -4 561 q -8 576 -10 569 q -6 589 -7 582 q -4 592 -6 592 q 4 605 6 599 q 4 618 3 611 q -1 630 4 625 q -3 642 -6 635 q 1 655 0 649 q 4 668 1 661 q 9 685 7 676 q 15 703 11 694 q 18 708 17 706 q 21 715 19 711 q 24 731 28 725 l 24 733 q 25 736 24 735 l 43 760 q 50 758 47 758 q 57 757 53 757 q 74 782 67 769 q 90 808 82 794 l 101 817 q 113 828 107 824 q 125 838 119 832 q 128 844 128 840 q 131 851 128 849 q 147 858 136 850 q 163 872 154 865 q 179 886 172 879 q 189 899 185 893 q 200 908 193 904 q 221 921 210 921 q 233 924 229 921 q 240 929 238 926 q 260 947 251 939 q 275 967 268 956 l 286 979 q 294 986 289 981 q 288 985 290 986 q 285 985 286 985 q 289 994 283 988 q 303 1007 294 1000 q 324 1020 313 1014 q 343 1031 335 1026 q 350 1052 343 1043 q 365 1069 357 1061 q 382 1083 372 1076 q 401 1099 392 1090 q 419 1106 410 1108 q 433 1108 422 1106 q 431 1117 431 1117 l 436 1121 q 441 1112 439 1117 q 446 1101 443 1107 l 451 1107 q 467 1108 461 1117 q 482 1107 475 1104 l 494 1110 q 503 1108 499 1114 q 510 1106 506 1106 q 518 1104 514 1106 q 515 1096 517 1100 q 519 1088 513 1092 l 515 1076 q 517 1075 515 1075 q 519 1074 518 1075 l 543 1088 l 550 1082 q 553 1086 551 1085 q 556 1090 554 1088 l 557 1089 l 557 1088 l 565 1074 q 570 1066 568 1071 q 575 1058 572 1061 q 585 1042 582 1051 q 594 1025 588 1032 q 597 1019 597 1025 q 601 1007 594 1011 q 611 996 607 1003 q 615 995 613 994 q 621 996 618 996 q 633 986 625 989 q 639 972 642 983 q 661 964 650 972 q 615 938 638 947 q 596 934 604 940 q 578 926 588 928 q 558 922 567 926 q 540 914 549 917 q 517 908 529 908 q 494 907 506 907 q 454 900 472 908 q 447 905 449 906 q 442 900 446 904 q 440 899 440 900 q 439 899 440 899 q 427 896 431 899 q 419 886 424 893 q 417 883 418 885 q 413 881 415 882 l 385 872 q 364 865 374 869 q 343 857 354 860 l 339 853 q 335 850 336 851 q 332 849 333 849 q 318 845 324 849 q 306 839 313 842 q 301 838 303 839 q 297 838 300 838 l 267 829 q 264 828 265 829 q 248 810 257 818 q 232 790 239 801 q 225 768 222 781 q 219 754 226 764 q 205 722 213 738 q 189 690 197 707 q 182 676 186 683 q 174 663 178 669 q 161 640 167 651 q 150 617 156 629 q 144 601 146 610 q 142 586 143 593 q 149 571 140 579 q 165 561 157 563 q 180 555 172 558 q 197 553 188 551 l 194 563 l 228 563 l 228 567 q 234 569 231 568 q 240 571 238 571 q 249 574 246 572 q 257 572 251 575 q 275 578 269 568 q 288 588 282 583 q 300 597 294 592 q 303 603 303 603 q 303 608 300 607 q 310 610 306 608 q 332 626 325 613 l 343 639 q 349 640 346 640 q 356 642 351 640 q 368 656 358 651 q 386 658 378 661 q 387 663 388 661 q 381 668 386 664 q 401 679 394 672 q 440 713 419 699 q 451 721 446 717 q 460 729 457 725 l 469 738 l 486 749 q 517 783 500 767 q 544 809 531 797 q 571 835 558 821 q 588 858 583 844 q 590 865 588 861 q 596 871 593 868 q 610 871 603 876 q 615 872 613 871 q 625 863 625 872 q 631 854 625 860 q 652 866 642 860 q 667 883 663 872 l 682 874 q 694 881 688 882 q 705 878 703 879 q 711 869 707 878 q 722 877 718 872 q 733 874 726 882 q 738 883 736 879 q 743 892 740 886 q 758 872 754 882 q 778 856 763 861 q 781 861 781 861 l 800 849 q 796 846 800 846 m 50 496 q 56 488 51 489 q 65 485 61 488 q 77 483 72 483 q 89 485 82 482 q 80 495 83 490 q 72 504 76 500 q 57 508 67 513 q 64 519 64 517 q 57 529 64 522 q 51 553 47 542 q 58 533 56 547 q 64 535 60 535 l 58 574 l 47 569 q 43 576 44 572 q 39 583 42 581 q 33 586 33 581 q 26 588 33 592 q 25 583 26 585 q 25 578 24 581 q 23 570 26 571 q 17 567 19 569 l 19 563 q 22 564 19 563 l 24 564 l 24 538 q 26 536 25 538 l 26 507 q 36 510 32 508 q 43 511 40 511 q 42 501 42 506 q 50 496 42 497 m 275 796 q 299 813 285 807 q 324 825 313 818 q 367 843 344 836 q 406 853 390 850 q 381 835 393 842 q 354 824 368 828 q 350 821 350 824 q 319 811 340 811 q 315 810 318 811 q 313 807 313 808 q 303 796 310 799 q 290 790 297 793 l 264 782 q 253 778 258 779 q 240 779 247 776 q 257 787 249 783 q 272 794 265 790 q 275 796 272 794 m 174 -367 q 179 -351 182 -361 q 179 -347 179 -351 q 185 -332 183 -340 q 190 -317 188 -324 q 198 -300 194 -308 q 213 -286 201 -292 q 217 -283 215 -285 q 221 -281 218 -282 q 215 -299 218 -290 q 204 -317 213 -308 q 200 -328 201 -322 q 196 -342 199 -335 q 191 -352 193 -347 q 186 -364 189 -357 q 174 -374 182 -368 q 172 -372 174 -372 q 174 -367 172 -368 m 281 -294 q 284 -290 282 -292 q 288 -285 286 -287 q 283 -297 285 -292 q 278 -310 281 -303 l 247 -379 q 239 -397 240 -390 q 236 -396 238 -397 l 235 -396 l 242 -376 l 281 -294 m 86 453 q 91 452 86 451 q 101 454 96 453 l 82 464 q 72 467 79 467 q 65 463 69 467 q 67 460 65 461 q 71 457 69 458 q 78 457 74 456 q 86 453 83 458 m 371 -429 q 367 -424 367 -425 l 375 -404 q 379 -399 375 -403 q 376 -415 379 -406 q 371 -429 374 -425 q 372 -437 372 -433 q 364 -443 372 -440 l 371 -429 m 440 607 q 458 608 456 607 q 465 618 461 610 q 451 615 458 615 q 440 607 444 615 m 431 603 q 439 615 432 606 l 419 611 l 419 608 l 431 603 m 481 738 q 497 746 500 736 l 481 738 m 342 501 q 328 497 331 497 q 319 499 325 496 q 330 501 325 501 q 342 501 335 501 m 358 -476 q 362 -465 360 -469 q 365 -456 364 -460 q 365 -465 365 -460 q 358 -476 364 -469 m 228 -267 q 229 -269 228 -269 q 231 -271 231 -269 q 226 -274 228 -272 q 221 -276 224 -275 q 218 -274 218 -274 l 228 -267 m 228 -297 q 228 -289 228 -290 q 236 -283 229 -287 q 232 -291 233 -287 q 228 -297 231 -294 m 706 876 q 706 865 699 872 l 706 876 m 233 -308 q 231 -307 233 -308 l 235 -301 l 239 -304 l 233 -308 m 718 860 l 718 863 l 711 863 q 713 860 711 860 l 718 860 m 208 -331 q 206 -324 208 -326 l 210 -324 q 211 -331 210 -328 l 208 -331 m 394 579 q 397 581 394 579 q 394 586 394 583 q 390 585 393 585 q 394 579 394 582 m 289 -285 l 288 -285 l 288 -283 l 289 -285 z "},"\u0000":{"ha":0,"x_min":0,"x_max":0,"o":""},"\r":{"ha":421,"x_min":0,"x_max":0,"o":""}," ":{"ha":421,"x_min":0,"x_max":0,"o":""},"J":{"ha":1157,"x_min":3,"x_max":1276,"o":"m 1271 382 q 1272 367 1267 374 q 1276 350 1276 360 q 1270 351 1274 350 q 1264 351 1267 351 l 1160 383 q 1126 394 1143 390 q 1093 401 1110 399 q 1074 404 1083 404 q 1054 406 1064 404 l 1013 410 q 975 410 993 410 q 939 413 957 411 l 907 399 q 896 394 901 396 q 883 390 890 392 q 875 376 872 386 q 876 369 875 372 q 876 361 876 365 q 881 323 879 342 q 885 285 883 304 q 886 251 886 268 q 881 217 886 233 q 874 199 878 208 l 871 199 l 878 190 q 873 183 878 183 q 863 179 868 182 q 863 173 863 176 q 864 167 864 169 l 874 171 q 865 157 875 158 q 849 144 853 157 q 844 138 847 140 q 836 131 840 135 q 837 124 836 128 q 838 117 838 121 q 847 122 843 118 q 843 123 844 122 q 838 125 842 124 q 882 158 867 138 q 884 144 885 151 q 882 131 883 138 q 879 119 881 124 q 875 108 878 114 l 875 107 q 877 94 879 100 q 874 81 875 88 q 873 67 872 74 q 871 53 874 60 q 863 22 868 36 q 856 8 860 15 q 850 -6 853 1 l 847 -14 q 846 -19 847 -18 q 837 -36 839 -28 q 832 -54 835 -44 q 829 -58 832 -58 q 819 -66 821 -61 q 817 -78 817 -71 q 813 -89 815 -85 q 808 -99 811 -93 q 792 -126 800 -112 q 778 -154 785 -139 q 770 -169 775 -162 q 761 -182 765 -175 q 728 -224 746 -206 q 706 -242 717 -233 q 683 -258 696 -251 q 657 -276 669 -267 q 632 -294 644 -286 q 604 -313 618 -304 q 574 -328 590 -322 q 565 -331 568 -329 q 556 -336 561 -333 q 544 -338 550 -339 q 531 -337 538 -337 q 519 -340 522 -340 l 511 -343 l 500 -346 q 486 -352 490 -353 q 472 -343 482 -351 q 451 -354 464 -354 q 428 -358 439 -354 q 426 -360 428 -360 q 415 -356 419 -353 q 404 -361 410 -360 q 366 -365 385 -367 q 328 -360 347 -362 q 323 -358 325 -360 q 318 -353 321 -356 q 293 -351 308 -360 q 297 -350 296 -350 q 300 -349 299 -350 q 288 -337 296 -339 q 272 -333 281 -336 l 263 -340 l 251 -335 l 242 -342 q 240 -336 240 -339 q 238 -331 240 -333 q 222 -344 229 -332 q 203 -336 207 -347 q 198 -339 200 -337 q 193 -339 196 -340 q 178 -332 182 -336 q 172 -326 175 -329 q 167 -326 169 -324 q 158 -331 164 -329 q 153 -339 151 -332 l 153 -340 q 152 -342 153 -342 q 151 -343 151 -342 q 136 -330 140 -339 q 128 -312 132 -321 q 117 -310 121 -314 q 108 -303 113 -306 q 100 -292 104 -297 q 89 -289 96 -287 q 76 -278 85 -278 q 58 -276 67 -279 q 51 -254 61 -267 q 40 -237 44 -246 q 31 -218 36 -228 q 27 -215 29 -215 q 24 -212 25 -214 q 19 -203 21 -208 q 14 -194 17 -199 q 10 -186 11 -190 q 7 -175 10 -182 q 11 -157 18 -169 q 11 -151 10 -154 q 13 -146 13 -149 q 3 -136 3 -146 q 8 -128 3 -133 q 5 -124 4 -126 q 6 -119 6 -122 q 12 -92 8 -106 q 19 -65 15 -79 q 22 -60 19 -62 l 28 -40 q 29 -31 29 -35 q 32 -21 29 -26 q 31 -12 33 -19 q 31 -10 31 -11 q 32 -6 32 -8 q 36 -9 35 -7 q 40 -10 38 -11 q 42 -8 42 -10 q 46 -4 43 -6 q 51 -6 47 -3 q 46 10 54 3 q 49 16 49 13 q 57 17 50 19 q 65 22 60 19 q 68 28 69 25 q 73 44 67 39 q 86 54 79 50 q 144 94 115 75 q 204 133 174 114 l 304 200 q 313 204 306 200 l 301 183 q 322 194 313 189 q 342 204 332 199 q 376 222 360 213 q 410 239 393 231 l 524 294 l 556 308 q 593 324 575 317 q 629 342 611 332 q 669 360 649 351 q 711 375 690 368 q 718 388 719 379 q 693 500 710 443 q 688 517 690 508 q 688 535 686 525 q 685 547 688 542 q 681 560 682 553 l 665 636 l 644 726 q 633 778 638 753 q 622 831 628 804 q 614 874 618 853 q 607 917 610 894 q 604 944 604 931 q 601 971 604 957 q 592 972 597 975 l 574 964 l 518 949 q 499 941 508 946 q 482 932 490 936 q 454 919 468 925 q 425 910 440 913 q 417 907 421 910 q 408 903 413 904 q 372 888 389 896 q 335 875 354 881 q 291 856 311 868 q 250 836 271 844 q 218 822 233 829 q 186 808 203 815 q 176 806 182 806 q 165 808 171 807 q 149 812 157 810 q 133 817 142 814 l 124 819 q 39 865 72 828 q 36 869 36 868 q 39 872 36 872 l 43 872 q 42 878 43 875 q 42 886 42 882 q 57 885 47 885 l 57 894 q 65 890 61 892 q 72 885 69 888 q 94 882 81 878 l 156 911 q 161 914 158 913 q 167 913 164 915 q 172 913 167 913 l 251 944 q 258 947 253 944 q 267 953 263 950 q 279 960 272 956 q 285 972 279 958 l 292 960 l 293 960 q 310 968 303 963 q 329 976 318 974 q 339 988 331 976 q 340 983 340 985 q 342 981 340 982 q 349 982 349 981 q 347 990 350 983 q 362 985 354 983 q 376 990 369 986 l 407 1010 q 413 1013 410 1013 q 433 1017 424 1013 q 451 1025 442 1022 q 473 1032 463 1028 q 494 1040 483 1036 l 535 1054 q 554 1062 544 1058 q 575 1068 564 1065 l 725 1108 l 731 1108 l 731 1100 q 749 1106 738 1103 q 747 1113 747 1108 q 778 1120 763 1117 q 808 1126 793 1124 q 813 1120 811 1124 q 819 1122 814 1117 l 813 1128 l 833 1132 q 831 1122 831 1126 q 849 1136 838 1129 q 869 1131 856 1126 q 889 1135 879 1133 q 908 1140 899 1136 q 913 1142 910 1142 q 924 1140 919 1139 q 933 1144 928 1142 q 947 1149 940 1147 q 961 1149 954 1150 q 970 1152 967 1149 q 979 1154 974 1156 q 988 1154 983 1153 q 997 1157 993 1156 q 1008 1158 1003 1158 q 1017 1161 1013 1158 q 1041 1167 1028 1167 q 1065 1169 1054 1167 l 1089 1178 q 1106 1177 1099 1181 q 1113 1163 1113 1174 q 1112 1142 1113 1151 q 1106 1124 1111 1133 q 1104 1111 1104 1119 q 1103 1107 1103 1110 q 1087 1094 1099 1100 q 1068 1092 1075 1089 q 1031 1092 1053 1097 q 997 1087 1014 1089 q 963 1081 979 1085 q 943 1078 953 1078 q 924 1072 933 1078 q 908 1065 913 1069 q 899 1060 904 1061 q 888 1058 893 1060 q 880 1057 883 1058 q 872 1054 876 1056 q 861 1051 867 1053 q 850 1050 856 1049 q 838 1048 843 1051 q 826 1042 832 1044 q 821 1038 824 1040 q 815 1040 818 1036 l 813 1040 q 799 1033 806 1033 q 785 1031 792 1033 l 775 1031 q 767 1028 768 1031 q 733 1014 753 1017 q 713 1007 726 1013 q 707 997 703 1004 l 731 939 l 743 900 q 746 885 746 893 q 747 871 746 878 q 753 829 750 850 q 763 789 757 808 q 772 748 767 768 q 785 708 778 728 l 807 638 q 821 575 814 606 q 836 513 828 544 q 844 485 839 499 q 853 458 849 472 q 872 467 864 463 q 890 474 881 471 q 903 485 908 482 q 931 486 917 486 q 960 486 944 486 q 991 485 975 486 q 1022 481 1007 483 q 1056 477 1039 479 q 1089 472 1072 475 q 1091 471 1090 472 q 1094 469 1092 469 q 1082 470 1088 469 q 1069 472 1076 471 q 1055 474 1063 474 q 1039 475 1047 475 l 1039 472 l 1078 467 l 1115 458 l 1115 460 l 1104 467 q 1126 457 1118 467 q 1135 453 1129 454 q 1144 449 1140 451 l 1176 438 l 1171 446 q 1176 446 1176 446 q 1190 442 1183 444 q 1204 440 1197 440 q 1217 436 1211 440 q 1231 428 1224 432 q 1250 410 1242 421 q 1268 388 1258 399 q 1271 382 1271 385 m 764 149 l 763 150 q 758 149 760 150 q 753 149 756 149 l 753 150 q 754 169 751 160 q 751 188 757 178 q 752 190 751 189 q 753 193 753 192 q 760 215 760 204 q 760 236 760 225 q 760 262 760 249 q 758 288 760 275 q 757 306 758 300 q 758 332 750 321 q 747 328 750 336 q 747 317 747 322 q 749 306 747 313 l 749 294 l 743 275 q 735 264 740 264 l 731 318 q 721 317 724 318 q 707 313 714 314 q 693 306 700 313 q 669 293 683 297 q 648 285 658 289 q 628 274 638 281 q 619 269 624 271 q 611 265 615 268 q 588 254 600 260 q 565 242 576 249 l 565 239 q 572 240 568 240 q 563 235 568 238 q 553 229 558 232 q 539 223 546 226 q 525 215 532 219 q 515 211 519 213 q 504 210 511 210 l 500 206 l 410 158 q 317 106 361 135 q 278 80 297 93 q 239 56 258 67 q 194 25 215 40 q 154 -8 174 10 q 124 -44 138 -25 q 110 -87 111 -62 q 108 -112 108 -100 q 110 -137 107 -125 q 119 -161 113 -150 q 129 -185 125 -172 q 144 -201 135 -197 q 164 -215 157 -206 q 175 -236 171 -225 l 181 -242 l 190 -249 q 199 -256 193 -256 q 210 -257 204 -257 q 224 -257 217 -257 q 238 -260 231 -257 q 254 -257 247 -264 l 258 -264 q 281 -273 269 -271 q 304 -274 293 -275 q 311 -271 308 -274 q 308 -278 311 -272 q 331 -283 319 -282 q 353 -282 342 -283 q 365 -287 357 -290 q 370 -287 368 -287 q 374 -287 372 -286 q 380 -290 376 -290 q 386 -289 383 -289 l 403 -285 q 416 -283 410 -283 q 428 -281 422 -283 q 443 -276 435 -276 q 458 -275 451 -276 q 465 -274 464 -275 q 484 -267 475 -269 q 504 -261 493 -264 q 531 -243 521 -257 q 538 -233 533 -237 q 549 -225 543 -229 q 553 -224 551 -224 q 556 -222 554 -224 q 558 -214 558 -219 q 553 -210 558 -210 q 546 -210 553 -210 l 546 -207 l 556 -201 q 576 -203 568 -210 q 572 -198 575 -197 q 565 -199 568 -199 q 573 -193 568 -194 q 578 -185 578 -192 q 567 -190 569 -190 q 562 -192 565 -192 q 560 -190 558 -193 q 557 -185 561 -183 q 554 -183 553 -187 q 560 -179 557 -183 q 584 -167 571 -171 q 608 -151 597 -162 q 618 -143 613 -147 q 625 -131 624 -139 l 610 -131 q 635 -112 622 -121 q 658 -93 647 -104 q 677 -69 669 -82 q 694 -44 685 -57 q 700 -29 697 -40 q 701 -22 701 -26 q 707 -17 700 -18 l 707 -15 l 707 -12 q 711 -1 703 -7 q 714 3 713 1 q 715 6 715 4 q 722 22 715 17 q 721 32 719 28 q 725 39 722 36 q 728 52 728 46 q 732 64 728 58 q 730 68 733 67 q 732 72 726 69 q 739 81 738 75 q 742 92 740 86 l 753 142 l 764 149 m 1178 406 q 976 447 1078 442 q 771 425 875 453 q 776 424 775 424 q 850 433 813 431 q 925 436 888 436 q 972 435 949 436 q 1018 432 994 435 q 1076 422 1050 429 q 1089 418 1083 419 q 1100 418 1094 417 q 1124 417 1113 421 q 1146 411 1135 413 l 1178 403 l 1178 406 m 482 253 q 481 247 481 251 l 521 265 l 636 317 l 717 353 q 724 359 724 357 q 719 368 725 361 q 703 360 711 364 q 688 353 696 356 q 645 335 667 343 q 604 314 624 326 q 602 313 603 314 q 600 313 601 313 q 580 305 589 310 q 561 294 571 300 l 482 253 m 871 199 l 853 215 l 839 183 q 844 176 836 176 l 871 199 m 1154 431 q 1137 440 1150 435 q 1109 448 1124 444 q 1081 453 1094 451 q 1063 453 1068 454 l 1154 431 m 629 286 q 644 293 640 286 q 654 304 647 300 q 617 289 635 297 q 582 272 600 281 l 583 271 q 592 273 588 272 q 601 276 597 274 q 615 283 608 279 q 629 286 622 288 m 794 400 q 800 399 790 399 q 826 402 810 400 q 862 407 842 404 q 901 413 882 410 q 838 408 868 413 q 816 405 826 407 q 794 400 806 403 m 514 240 q 538 247 526 243 q 560 256 549 251 q 564 263 561 256 l 561 265 l 514 240 m 703 324 q 664 307 679 328 q 684 312 674 310 q 703 324 694 314 m 1058 457 q 1025 463 1042 460 q 992 463 1008 465 q 1024 457 1007 460 q 1058 457 1040 454 m 65 -293 q 74 -297 71 -293 q 78 -303 76 -300 q 83 -310 81 -307 q 90 -312 85 -312 q 81 -321 90 -324 q 76 -317 78 -319 q 75 -312 74 -315 q 75 -309 76 -310 q 72 -307 74 -308 l 65 -293 m 743 233 q 733 246 736 240 q 735 258 731 251 l 746 263 l 743 233 m 365 221 q 363 224 363 224 q 371 229 365 226 l 365 232 l 388 244 q 380 229 388 232 q 365 221 372 226 m 229 -322 q 250 -327 240 -325 q 271 -332 260 -329 q 249 -322 260 -326 q 224 -315 239 -318 q 229 -322 228 -322 m 242 -304 q 258 -313 247 -314 q 275 -321 268 -312 q 274 -316 274 -318 q 274 -314 275 -314 q 260 -306 267 -311 q 242 -304 253 -301 m 426 253 q 426 262 425 260 q 433 267 426 264 q 443 273 439 269 q 454 279 447 276 q 456 272 454 274 l 436 264 q 433 258 440 257 q 428 258 428 261 q 426 253 428 256 m 481 247 q 464 247 472 251 q 453 232 456 243 l 481 247 m 219 -282 q 229 -288 226 -287 q 244 -290 232 -289 l 233 -281 l 243 -281 q 229 -276 235 -274 q 232 -281 232 -279 q 219 -282 224 -281 m 865 483 q 849 485 847 483 q 862 487 851 486 q 885 488 872 488 q 903 485 899 488 q 884 484 893 485 q 865 483 875 483 m 700 325 q 719 328 715 326 q 726 340 724 331 q 713 334 719 336 q 700 325 707 332 m 110 -344 q 111 -353 111 -350 q 104 -358 111 -356 l 96 -344 l 110 -344 m 401 -254 q 413 -257 408 -251 q 405 -262 408 -260 q 396 -267 401 -264 q 395 -258 393 -260 q 401 -254 397 -257 m 360 -264 q 338 -271 353 -269 q 313 -269 322 -272 l 360 -264 m 440 231 q 415 217 426 231 l 442 228 q 440 231 440 229 m 751 378 q 742 374 744 375 q 736 365 740 372 q 750 367 747 365 q 751 378 753 369 m 744 407 q 745 417 747 413 q 740 428 743 421 q 738 419 738 419 q 742 414 743 418 q 744 407 740 410 m 538 -211 q 530 -218 535 -219 q 519 -217 525 -217 q 528 -214 524 -215 q 538 -211 532 -212 m 268 168 l 271 165 q 277 171 276 167 q 282 178 278 175 q 281 179 282 179 q 281 181 281 179 l 268 168 m 535 -333 q 543 -333 539 -332 q 549 -325 547 -333 q 541 -328 544 -326 q 535 -331 538 -329 l 535 -333 m 550 233 q 549 236 550 233 q 540 232 544 233 q 532 224 535 231 q 550 233 543 228 m 703 1097 q 704 1094 704 1096 q 717 1097 708 1094 q 715 1100 717 1099 q 703 1097 711 1100 m 731 439 q 735 448 735 446 q 728 453 735 450 l 731 439 m 736 418 q 729 415 729 417 q 733 406 729 414 l 736 418 m 504 210 q 485 204 493 213 l 504 210 m 260 -281 q 268 -292 260 -290 l 260 -281 m 701 581 q 694 578 696 579 q 696 572 692 576 l 701 581 m 700 493 q 703 494 703 493 q 700 503 703 497 q 697 501 697 503 l 700 493 m 300 192 q 300 181 293 185 l 300 192 m 1164 431 q 1163 429 1164 429 q 1163 428 1163 429 l 1172 425 q 1174 428 1172 426 l 1164 431 m 243 156 q 239 146 243 154 l 244 150 l 247 154 q 245 155 246 154 q 243 156 244 156 m 344 222 q 346 219 346 221 l 336 215 l 336 217 q 344 222 342 219 m 313 -269 l 311 -271 l 311 -269 l 313 -269 m 658 306 q 654 304 657 304 q 658 306 657 304 z "},"I":{"ha":601,"x_min":3,"x_max":572,"o":"m 185 325 q 189 323 189 325 q 189 318 189 321 q 193 313 192 315 q 201 313 194 310 q 199 342 200 328 q 196 372 199 357 q 196 387 196 379 q 193 401 196 394 q 192 424 190 413 q 189 446 193 435 l 189 449 q 190 483 193 467 q 186 517 186 499 q 191 519 189 518 q 196 522 193 519 q 197 528 197 525 q 199 535 197 532 l 203 590 q 207 626 206 608 q 210 663 208 644 q 211 676 211 669 q 211 690 211 683 l 215 747 q 215 760 215 754 q 217 774 215 767 q 218 808 219 792 q 217 842 217 825 q 217 856 217 849 q 218 871 218 864 q 218 888 217 879 q 213 904 219 897 l 196 900 q 174 917 178 899 l 188 926 q 192 936 194 928 q 176 931 183 933 q 164 921 168 929 q 169 918 167 918 q 144 917 157 917 q 119 919 132 918 q 98 919 108 921 q 78 908 88 918 l 65 919 q 35 919 50 921 q 3 928 19 917 l 44 925 q 46 928 44 928 q 38 933 40 933 q 21 939 26 933 q 10 953 15 944 l 31 950 l 31 953 q 24 956 28 954 q 18 958 21 958 q 6 967 11 957 q 17 978 11 974 q 33 976 22 983 l 40 990 l 67 982 l 76 992 q 79 986 76 992 q 101 992 90 989 q 119 1001 111 994 q 126 1002 124 1006 q 133 999 129 999 q 129 1008 131 1004 q 126 1015 128 1011 l 118 1018 l 100 1060 q 110 1059 106 1058 q 117 1057 114 1060 q 137 1051 126 1050 q 157 1049 147 1051 q 165 1051 160 1049 q 177 1056 172 1056 q 189 1049 182 1056 l 203 1036 q 213 1047 208 1043 q 219 1057 217 1051 l 222 1065 l 226 1078 q 242 1088 231 1088 l 253 1088 q 252 1093 251 1090 q 251 1099 253 1096 q 256 1115 249 1106 q 264 1119 260 1119 q 266 1116 265 1118 q 269 1111 267 1114 l 269 1106 q 283 1086 283 1099 q 283 1063 282 1074 q 285 1056 283 1058 q 289 1063 288 1058 q 293 1071 290 1068 q 301 1075 296 1074 q 308 1079 306 1076 q 311 1085 311 1082 q 313 1093 311 1089 q 324 1088 324 1094 q 326 1076 324 1081 q 332 1075 328 1075 q 331 1067 332 1071 q 329 1056 331 1063 q 342 1058 336 1058 q 353 1061 349 1058 q 367 1067 360 1067 q 382 1068 374 1068 l 396 1068 l 399 1078 l 419 1071 l 413 1088 q 442 1072 428 1079 q 464 1050 456 1065 l 456 1050 l 460 1032 l 561 1053 q 551 1036 558 1040 q 524 1013 535 1026 q 501 985 513 999 q 499 981 500 982 q 496 979 497 981 q 467 965 481 972 q 438 951 453 958 q 424 948 431 949 q 410 946 417 947 q 375 938 392 943 q 343 925 358 932 q 338 908 332 918 q 343 908 340 908 q 350 907 346 907 l 356 868 q 356 843 356 856 q 354 818 356 831 q 354 801 354 810 q 351 786 354 793 q 349 780 351 783 q 346 774 347 776 l 340 767 l 350 764 l 346 746 q 340 746 343 746 q 336 740 336 746 q 334 708 335 724 q 331 676 333 692 l 325 642 q 322 624 324 632 q 322 606 319 615 q 319 597 322 604 q 316 572 318 585 q 317 544 314 558 q 318 529 319 538 q 315 514 317 521 q 315 487 315 500 q 314 461 314 474 q 315 438 314 450 q 317 414 315 425 q 317 403 317 408 q 318 392 317 399 q 322 403 321 397 q 325 415 322 408 q 332 394 332 404 q 333 372 332 383 l 336 317 q 335 299 336 307 q 332 281 335 290 q 331 253 328 269 q 336 227 333 240 q 342 201 339 214 q 345 187 343 194 q 350 172 347 179 l 353 147 q 369 140 360 138 q 390 143 379 142 q 392 131 390 133 q 403 132 394 129 q 420 137 411 135 q 439 142 429 139 q 465 158 449 147 q 490 150 474 146 q 507 151 499 153 q 524 153 515 150 q 532 153 526 154 q 540 144 538 151 q 549 135 543 139 q 556 125 554 132 q 558 122 556 124 q 564 119 561 121 q 572 82 560 103 q 560 82 565 82 q 549 81 556 82 q 526 79 538 79 q 504 72 515 79 q 496 69 500 69 q 488 68 492 69 q 460 59 474 64 q 433 49 447 54 l 414 35 q 397 25 408 31 q 393 24 394 24 q 390 22 392 24 q 378 13 381 17 q 379 -1 376 10 q 380 -3 381 -3 q 381 -7 379 -4 q 382 -22 383 -19 q 369 -32 381 -25 l 376 -61 q 362 -71 369 -72 q 347 -71 354 -69 q 341 -74 344 -72 q 335 -76 338 -76 q 322 -78 328 -78 q 310 -78 317 -78 q 293 -85 300 -76 q 279 -85 285 -93 q 269 -82 269 -87 q 265 -69 268 -76 l 257 -75 l 246 -61 q 243 -62 243 -61 l 249 -57 q 236 -56 243 -56 q 240 -42 240 -44 q 229 -35 239 -39 q 226 -40 226 -37 l 224 -40 q 215 -36 221 -35 l 199 -43 q 195 -44 196 -43 q 192 -44 194 -44 q 174 -47 182 -44 q 158 -58 165 -50 l 151 -58 l 125 -54 l 115 -17 q 124 -23 122 -24 q 131 -11 126 -22 q 117 -3 125 -1 q 100 -8 108 -6 q 90 -25 92 -11 q 84 -19 86 -22 q 79 -14 82 -17 q 73 -11 76 -11 q 64 -10 69 -11 l 71 8 q 73 16 72 13 q 71 22 74 19 q 65 24 68 25 q 58 24 61 24 q 53 24 58 24 q 50 33 53 28 l 39 33 l 39 39 q 55 53 50 44 q 69 68 60 61 q 86 78 78 74 q 106 83 94 83 q 122 85 114 85 q 139 82 131 85 q 151 84 142 79 q 163 92 160 89 l 169 100 q 182 97 178 97 q 194 110 192 97 l 186 114 q 194 118 190 117 q 200 122 197 119 q 203 138 203 131 q 200 154 203 146 q 196 178 197 165 q 192 201 194 190 q 186 231 186 217 q 182 260 186 244 q 181 271 181 265 q 182 283 182 276 q 183 290 182 286 q 183 297 183 293 q 185 311 185 304 q 185 325 185 318 m 304 774 l 300 774 q 297 753 299 763 q 297 733 294 744 q 296 722 299 729 q 291 703 294 713 q 289 683 288 694 q 287 673 289 678 q 288 663 285 668 q 282 651 281 657 q 282 639 283 646 l 276 622 q 274 617 275 619 q 271 613 272 615 l 263 588 q 272 581 261 581 q 272 552 269 565 q 272 525 275 539 q 276 513 272 517 q 281 503 281 508 q 282 494 281 499 q 281 488 282 492 q 281 481 281 483 q 283 426 283 453 q 276 371 283 399 q 275 364 275 368 q 280 355 282 360 q 276 344 278 350 l 274 328 l 274 322 q 267 303 267 313 q 267 282 267 293 q 269 274 267 275 q 274 265 274 269 q 276 254 275 260 l 281 247 l 283 247 l 283 271 l 292 253 q 294 258 294 258 q 296 273 294 265 q 296 288 297 281 q 296 295 293 292 q 296 303 299 299 q 292 317 293 310 q 288 332 290 325 q 294 338 285 342 l 288 371 q 287 378 288 375 q 290 383 286 381 q 291 388 292 385 q 290 393 290 390 q 288 413 289 404 q 293 433 288 422 q 293 438 293 433 q 289 450 289 447 q 293 460 289 453 q 297 478 299 469 q 294 496 294 486 l 285 492 q 286 501 286 497 q 288 507 286 506 q 297 520 299 513 q 294 535 296 528 q 293 547 292 542 q 294 557 294 551 q 296 567 294 563 q 297 576 297 571 l 300 644 l 306 708 q 305 710 306 710 q 304 713 304 711 l 300 710 q 303 726 306 718 q 303 742 300 735 q 305 757 306 749 q 304 774 304 765 m 258 400 q 265 417 263 410 q 267 435 268 425 l 264 463 q 263 471 264 467 q 264 479 263 475 q 258 493 267 486 q 257 483 253 486 q 261 475 261 479 l 253 458 q 252 452 251 456 q 253 446 253 449 q 253 439 253 443 q 254 432 254 435 q 256 417 257 425 q 258 400 254 408 m 257 476 q 253 465 247 472 l 257 476 m 226 1065 q 228 1065 228 1065 q 231 1064 229 1064 q 231 1068 231 1067 q 232 1071 232 1069 q 229 1072 231 1072 q 226 1065 229 1071 z "},"D":{"ha":943,"x_min":-26,"x_max":922,"o":"m 914 525 q 919 517 917 521 q 921 506 922 513 l 917 476 q 911 462 914 469 q 906 447 908 454 q 910 448 908 447 q 914 449 911 449 q 913 444 913 446 q 911 442 913 443 l 897 418 q 897 414 896 415 q 897 410 899 413 q 885 388 893 399 q 865 369 876 376 q 865 358 865 364 q 860 349 865 353 q 858 342 858 347 q 853 314 858 326 q 847 286 849 301 q 838 267 840 278 q 828 249 835 256 q 822 228 821 239 q 821 215 822 221 q 813 204 819 208 q 798 183 807 192 q 782 164 789 175 q 765 143 775 151 q 746 125 756 135 q 719 110 738 115 q 685 90 699 103 q 659 68 672 79 q 632 46 646 57 l 604 24 q 587 12 596 17 q 568 1 578 7 q 560 -6 563 -4 q 538 -18 549 -12 q 517 -29 528 -24 l 501 -32 q 474 -38 486 -33 q 450 -49 463 -43 q 426 -57 439 -54 q 401 -65 413 -60 q 363 -75 382 -72 q 325 -83 344 -78 q 304 -85 318 -85 l 294 -79 q 304 -78 300 -78 q 311 -75 308 -78 q 316 -69 314 -72 q 321 -62 318 -67 q 304 -72 311 -62 l 274 -72 q 255 -78 263 -72 q 240 -92 247 -85 q 235 -97 238 -94 q 229 -100 232 -99 q 203 -105 215 -103 q 175 -104 190 -107 l 133 -100 q 144 -92 140 -96 q 153 -85 149 -87 l 150 -81 q 133 -79 139 -81 q 130 -78 131 -79 q 128 -76 129 -76 q 119 -72 124 -74 q 110 -76 115 -71 q 117 -78 113 -78 l 122 -81 q 104 -79 114 -83 q 61 -60 85 -64 q 59 -59 60 -60 q 56 -58 58 -58 q 49 -44 57 -50 q 11 -15 29 -32 q 6 -9 8 -12 q 1 -3 4 -6 q 2 2 1 0 q 3 6 3 4 l -26 47 q -21 54 -21 53 q -19 66 -22 61 q -11 75 -15 71 q 0 90 -4 82 q 4 110 4 99 q 6 118 4 114 q 10 125 8 122 q 33 160 19 144 q 64 190 47 176 q 76 202 71 196 q 89 215 82 208 l 79 226 q 81 229 79 226 q 82 231 81 231 q 79 239 76 238 q 86 243 82 240 q 119 261 104 250 q 150 285 135 272 l 158 293 q 163 299 161 296 q 171 300 165 303 q 175 304 171 300 q 185 290 179 296 q 204 299 196 293 q 221 313 213 306 q 247 328 232 324 q 264 338 253 329 q 286 349 275 344 q 308 357 297 354 q 313 357 308 357 l 264 322 q 265 319 264 322 q 290 331 278 326 q 314 343 303 336 q 318 349 318 343 q 317 356 318 353 q 317 364 317 360 q 325 363 322 364 l 318 394 q 321 401 319 399 q 322 406 322 403 q 319 415 321 411 q 315 425 317 419 q 315 435 313 429 q 318 449 318 439 q 314 519 314 483 q 311 594 311 557 q 310 669 311 632 q 308 694 308 682 q 307 719 307 707 q 307 726 307 719 q 308 732 307 729 q 307 738 308 735 q 302 757 301 747 q 303 776 303 767 l 303 819 q 297 822 303 819 q 298 824 297 824 q 299 826 299 825 q 299 842 299 833 q 300 857 300 850 q 299 887 301 872 q 296 917 296 901 q 297 944 296 931 q 299 971 297 957 q 298 985 299 978 q 297 999 297 992 q 298 1008 297 1003 q 299 1018 299 1013 l 285 1014 l 232 981 q 224 974 229 979 q 203 954 217 958 q 197 943 197 951 q 185 917 197 925 q 179 908 183 915 q 167 894 172 901 q 156 881 163 888 q 151 856 146 871 q 153 842 153 853 q 135 844 143 840 q 119 851 128 849 l 103 857 q 96 861 99 860 q 90 867 93 863 q 81 875 89 869 q 83 880 82 878 q 86 885 85 882 l 82 888 l 82 890 l 113 933 q 115 939 114 936 q 122 939 117 942 q 125 940 124 939 l 128 943 q 150 961 139 953 q 172 981 161 969 q 179 985 175 983 q 181 994 183 988 q 181 996 179 994 q 185 999 182 997 q 202 1010 193 1006 q 219 1021 211 1015 q 234 1028 226 1025 q 249 1035 242 1032 q 262 1041 256 1038 q 271 1051 268 1044 q 275 1054 272 1054 q 281 1056 278 1054 l 299 1060 q 296 1086 301 1076 q 295 1099 293 1093 q 300 1111 297 1104 q 308 1088 308 1100 q 310 1064 308 1076 q 315 1065 313 1065 q 318 1067 318 1065 q 325 1084 322 1075 q 331 1101 328 1093 q 336 1097 333 1099 q 340 1094 339 1094 q 350 1101 346 1097 q 360 1107 354 1104 q 367 1106 363 1106 q 376 1106 372 1106 q 386 1103 382 1104 q 392 1094 390 1101 q 396 1089 392 1093 q 408 1090 403 1086 q 419 1092 413 1094 q 431 1092 425 1090 q 443 1096 436 1094 q 469 1101 453 1099 q 496 1103 476 1103 q 480 1114 489 1111 q 463 1122 471 1117 l 468 1126 l 451 1138 l 457 1138 q 465 1138 461 1138 q 471 1142 468 1138 q 482 1143 472 1143 q 510 1132 497 1139 q 538 1118 524 1125 q 551 1109 546 1115 q 567 1100 557 1103 q 585 1098 576 1099 q 601 1094 593 1097 q 633 1088 618 1092 q 664 1075 649 1085 q 690 1063 679 1074 q 717 1050 701 1053 q 719 1049 718 1050 l 744 1025 q 753 1028 747 1025 l 753 1015 l 764 1015 q 769 999 764 1006 q 779 986 774 993 q 796 966 789 976 q 810 944 803 956 q 823 923 817 933 q 835 900 829 913 q 838 894 836 897 q 838 888 840 892 q 840 882 836 886 q 850 872 843 879 q 857 863 857 865 q 860 846 856 853 q 865 828 865 839 q 868 814 864 821 q 875 800 872 807 l 885 774 q 884 767 885 771 q 883 757 883 763 q 893 731 892 747 q 894 722 894 726 q 897 711 894 717 q 896 701 900 706 l 894 699 q 899 689 900 694 q 901 678 899 683 l 907 674 l 900 661 q 907 660 903 660 q 899 633 911 640 q 896 622 892 629 l 906 631 q 903 625 908 628 q 907 619 899 622 l 907 618 l 907 615 q 903 605 904 610 q 894 597 901 600 q 888 590 888 594 q 889 578 889 585 l 901 582 q 900 576 901 576 q 889 574 899 575 q 888 567 889 571 q 888 561 888 564 q 888 558 888 561 l 888 557 q 882 535 881 546 q 881 514 883 525 q 881 485 876 499 q 882 481 881 482 q 885 478 883 481 q 878 461 878 469 q 881 443 879 453 q 887 453 883 446 q 893 468 890 461 l 903 496 l 914 525 m 744 481 q 760 546 758 514 q 763 590 763 568 q 764 636 763 613 q 763 643 764 639 q 763 654 763 647 l 749 632 q 746 645 746 639 q 742 658 746 651 q 738 674 738 665 q 736 690 738 682 l 732 721 q 730 737 731 729 q 726 753 729 744 l 721 783 l 714 817 q 712 831 711 824 q 707 846 713 839 q 701 844 703 846 l 696 878 l 688 868 q 679 883 688 882 q 663 886 671 883 l 674 894 l 653 932 l 646 936 q 642 926 649 932 q 639 931 639 929 q 621 963 629 946 q 601 994 613 979 q 582 1027 592 1011 q 557 1057 572 1043 q 544 1064 553 1061 q 531 1065 538 1065 q 517 1065 524 1065 q 495 1065 506 1065 q 476 1054 485 1064 l 471 1054 q 460 1053 461 1058 q 436 1040 453 1040 q 420 1031 425 1039 q 422 1015 415 1022 q 428 1006 428 1010 q 425 997 428 1003 q 429 988 422 989 l 406 958 q 423 969 419 961 q 429 988 426 978 q 430 994 429 990 q 431 1003 431 999 q 436 996 436 999 l 436 978 q 449 965 436 964 l 456 965 l 461 938 q 469 926 461 931 l 469 946 q 472 939 472 943 q 474 931 472 935 q 473 924 475 928 q 471 918 471 921 q 469 890 472 903 q 464 863 465 876 q 460 837 464 850 q 463 811 457 824 q 462 809 463 810 q 461 807 461 808 q 456 821 458 815 q 455 809 456 814 q 454 799 454 804 q 456 799 456 799 q 458 800 457 800 q 458 782 464 793 q 461 771 454 775 q 467 774 464 774 q 469 771 469 775 q 468 750 471 764 q 466 747 468 749 q 463 744 464 746 q 461 725 454 736 l 475 757 q 476 740 475 747 q 476 724 478 732 q 474 712 475 718 q 465 703 472 706 q 461 686 456 699 q 467 690 464 688 q 474 686 471 692 q 471 678 474 683 q 476 674 476 675 q 473 652 474 663 q 469 631 472 642 q 478 636 475 633 q 467 606 482 618 q 469 618 468 613 q 469 631 469 624 l 461 628 q 458 625 461 628 q 454 619 458 624 q 449 614 450 614 l 443 610 q 446 619 444 615 q 446 628 447 624 q 444 667 442 644 l 447 736 q 447 747 447 742 q 443 756 447 751 q 440 751 440 753 q 439 732 439 744 q 438 718 439 725 q 436 704 436 711 q 438 663 439 683 q 439 621 438 642 q 439 590 439 606 q 440 558 439 574 q 440 513 440 535 q 439 467 439 490 q 438 451 438 460 q 440 435 439 443 q 451 454 454 440 q 451 464 451 460 q 451 472 450 468 q 446 489 451 482 q 443 501 440 494 l 447 556 q 451 569 447 563 q 444 583 456 576 l 444 601 q 450 602 447 601 q 456 601 453 603 q 460 592 460 597 q 459 567 460 579 q 460 542 458 554 q 459 524 461 533 q 460 506 457 515 q 461 492 463 499 q 460 478 460 485 q 459 476 460 476 q 458 475 458 476 l 457 474 l 460 450 q 469 450 465 447 q 475 456 472 453 q 488 466 482 461 q 503 469 493 471 q 511 472 504 468 q 582 507 542 492 q 600 522 596 511 l 631 531 q 628 510 626 521 q 619 489 629 499 q 617 488 618 489 q 618 486 617 486 q 618 479 621 482 q 614 474 615 476 q 610 470 611 471 q 607 467 608 469 q 588 443 600 451 q 560 425 575 435 q 574 442 565 436 q 586 457 582 447 q 572 454 576 457 q 550 434 561 444 q 529 410 539 424 q 490 372 515 389 q 480 364 485 368 q 469 357 475 360 q 463 340 458 350 q 463 328 467 333 q 458 336 457 331 q 453 342 460 342 q 451 339 451 340 q 460 295 456 317 q 471 251 465 274 q 478 222 474 236 q 486 193 482 208 q 490 178 489 186 q 499 165 492 171 l 503 175 l 521 142 q 531 143 525 143 q 525 138 526 142 q 524 130 524 135 q 524 122 525 125 q 517 118 521 119 q 510 114 514 117 q 508 111 510 113 q 506 98 510 103 q 499 88 501 93 l 482 81 l 475 94 q 454 99 461 81 q 453 101 454 100 q 453 103 453 101 q 449 106 449 106 q 442 110 442 106 q 439 117 442 114 q 436 132 436 128 l 386 124 q 376 138 376 128 q 373 143 376 140 q 367 149 369 146 q 359 156 363 151 q 349 161 356 161 l 347 161 l 353 168 q 344 174 344 172 q 347 185 343 176 q 347 200 350 192 q 342 218 344 210 q 336 236 339 226 l 329 272 q 326 291 326 282 q 322 310 325 300 l 318 326 l 292 313 q 271 300 281 306 q 250 289 261 294 q 235 278 243 283 q 225 263 228 274 q 242 276 235 269 q 261 281 249 283 l 240 251 q 230 232 233 242 q 221 213 226 222 q 201 183 211 197 q 179 154 190 169 q 169 142 175 147 q 163 126 163 136 q 158 121 163 125 l 142 99 q 121 67 128 83 q 107 33 114 50 q 109 5 100 15 q 135 -8 118 -6 q 161 -8 149 -11 q 186 -6 174 -6 q 186 4 186 4 q 201 12 194 7 q 215 21 208 17 q 231 26 219 24 q 233 17 236 24 q 251 -11 222 -8 q 271 -13 261 -12 q 290 -11 281 -14 q 342 0 318 -8 q 390 19 367 8 l 404 26 q 406 24 404 25 q 400 20 403 21 q 394 17 397 19 l 397 14 q 434 31 417 21 q 472 46 451 40 q 468 41 469 43 q 464 38 467 39 q 485 46 476 39 q 496 56 494 53 q 497 71 497 60 q 506 67 500 65 q 514 63 511 69 q 522 68 518 65 q 529 74 526 71 q 531 83 526 81 q 539 90 536 86 q 561 113 549 103 q 578 128 569 121 q 597 143 588 136 q 603 149 603 146 q 608 158 604 156 q 615 164 613 160 q 629 181 621 178 l 629 182 q 631 183 629 182 q 629 186 629 185 q 626 188 628 188 q 611 175 618 181 q 594 163 604 169 l 614 194 q 640 226 625 211 l 650 233 l 650 226 q 657 229 653 229 q 661 235 661 229 l 651 235 l 672 261 q 675 265 674 264 q 678 267 676 265 l 678 275 l 667 267 q 666 268 667 268 q 665 269 665 268 l 683 289 l 683 282 l 690 290 l 688 294 l 686 296 l 704 313 q 707 335 699 326 q 717 354 715 343 q 704 349 710 351 q 693 343 699 346 q 704 365 699 354 q 713 388 710 376 q 719 407 715 397 q 726 426 722 417 q 734 444 731 435 q 740 461 738 453 q 742 472 743 467 q 744 481 742 476 m 382 710 q 374 688 379 699 q 371 665 369 678 l 371 664 q 369 663 371 663 q 365 652 364 657 q 367 640 365 647 q 360 626 371 629 l 367 611 q 367 597 368 604 q 368 583 367 590 q 368 565 369 574 q 368 544 367 556 q 371 531 369 538 q 365 518 372 525 q 364 517 364 518 q 365 515 364 515 q 368 492 369 504 q 369 468 367 479 q 368 440 372 454 q 367 439 367 440 q 368 438 367 438 q 374 421 371 429 q 379 404 376 413 l 408 415 q 415 432 418 419 q 413 465 414 449 q 411 499 411 482 q 412 529 411 514 q 414 560 413 544 l 414 582 l 418 665 q 417 688 418 676 q 417 710 417 699 q 417 745 417 728 q 419 781 418 763 q 417 792 419 783 q 410 783 410 788 q 410 774 411 778 q 406 767 408 771 q 403 760 404 764 q 400 751 400 756 q 399 743 400 747 l 399 742 q 393 726 400 733 q 387 719 390 722 q 382 710 383 715 m 829 767 q 833 774 831 769 q 833 781 835 778 l 815 842 q 806 824 808 832 q 806 807 803 817 q 811 793 808 800 q 815 779 814 786 q 829 767 818 768 m 444 -1 q 463 8 454 3 q 478 24 471 14 q 446 10 460 24 q 438 10 442 10 q 432 10 435 11 q 424 4 428 7 q 417 -1 421 1 l 386 -28 q 405 -25 396 -26 q 421 -17 414 -24 q 431 -8 425 -11 q 444 -1 438 -4 m 276 997 q 271 993 274 994 q 265 990 268 992 l 274 985 q 272 982 272 983 q 269 979 272 981 q 255 967 263 972 q 242 953 247 963 q 230 938 238 944 q 215 924 222 931 q 213 925 215 924 q 217 936 215 935 q 249 978 228 957 l 260 990 q 274 1001 268 999 q 279 1001 276 1003 q 285 999 282 1000 q 281 989 288 996 l 274 985 l 276 997 m 353 747 q 352 718 353 732 q 351 689 351 704 q 354 694 353 692 q 356 700 356 697 l 358 742 q 360 752 360 747 q 354 763 360 757 q 361 770 361 765 q 361 779 361 775 q 360 783 361 782 q 361 788 360 785 q 366 817 364 803 q 371 846 368 831 q 371 860 371 853 q 372 875 371 868 q 368 871 368 872 q 368 854 365 863 q 371 846 368 851 q 361 839 364 846 q 358 819 358 829 q 356 799 357 810 q 353 773 353 786 q 353 747 354 760 m 550 160 q 551 153 551 157 q 550 144 550 149 l 531 144 q 530 153 531 149 q 528 164 529 157 l 533 157 l 539 150 q 537 165 539 160 q 532 178 535 171 l 522 218 q 524 228 521 221 q 530 217 529 222 q 533 207 531 213 q 536 194 533 200 q 543 176 539 185 q 550 160 547 168 m 878 689 q 878 665 875 676 q 882 640 881 653 q 883 631 883 638 l 886 631 l 886 657 l 883 681 l 881 707 l 875 731 q 867 753 871 749 q 866 750 867 751 q 865 747 865 749 q 869 719 869 733 q 876 693 869 706 q 877 691 876 692 q 878 689 878 690 m 158 225 q 133 202 146 214 q 111 175 121 190 l 129 186 l 169 228 q 176 236 174 232 q 182 244 179 240 q 167 235 171 239 l 158 225 m 121 -42 q 138 -44 126 -43 q 160 -44 149 -44 q 183 -42 172 -43 q 201 -37 194 -40 q 176 -38 189 -37 q 149 -39 163 -39 q 147 -39 149 -39 q 134 -38 138 -37 q 121 -42 131 -39 m 751 147 q 770 165 765 153 q 783 188 775 176 q 764 168 775 183 q 751 147 753 153 m 256 313 q 236 303 244 308 q 224 288 228 299 q 241 297 232 293 q 256 313 250 301 m 794 854 l 813 851 q 808 864 810 858 q 799 872 806 869 l 794 854 m 788 196 q 801 212 797 203 q 810 232 806 221 q 796 215 799 226 q 788 196 793 204 m 893 513 q 889 508 892 510 q 882 504 886 507 q 888 522 885 515 q 900 531 892 528 q 893 513 897 522 m 660 1069 q 644 1076 651 1074 q 626 1079 638 1079 q 648 1068 643 1069 q 660 1069 653 1067 m 185 253 q 183 246 183 251 q 201 265 199 253 l 185 253 m 94 156 q 103 160 101 158 q 110 174 104 163 q 97 165 99 167 q 94 156 94 163 m 685 975 q 683 986 682 981 q 675 994 683 992 q 678 980 678 982 q 685 975 679 978 m 857 785 q 861 786 860 785 l 856 807 q 853 806 853 807 l 857 785 m 457 704 q 463 712 465 707 q 463 719 461 717 q 457 714 460 717 q 457 704 454 711 m 921 526 q 914 531 914 529 q 922 542 914 533 q 921 526 922 532 m 460 746 q 465 756 467 753 q 461 763 463 760 q 459 762 460 763 q 457 761 458 761 l 460 746 m 461 628 q 463 651 471 639 q 462 640 463 646 q 461 628 461 635 m 408 294 q 413 286 415 292 q 417 278 410 281 q 414 296 417 285 q 412 295 413 296 q 408 294 411 294 m 797 235 q 808 256 808 240 q 803 245 806 250 q 797 235 800 240 m 433 21 q 444 32 443 21 q 437 28 440 29 q 433 21 433 26 m 486 865 q 489 857 488 861 q 483 847 490 853 l 486 865 m 349 656 q 351 654 349 656 l 351 671 l 349 671 l 349 656 m 207 283 q 211 281 208 283 l 219 286 q 214 288 217 288 l 207 283 m 757 664 q 756 651 747 660 q 756 658 756 654 q 757 664 757 661 m 626 971 q 624 968 626 971 l 631 960 q 633 961 631 960 l 626 971 m 458 321 q 461 322 458 321 q 464 313 461 318 q 462 312 463 313 q 460 311 461 311 q 458 321 458 314 m 728 122 q 726 125 728 124 q 722 122 724 122 q 719 118 721 121 q 721 115 719 118 l 728 122 m 217 268 q 216 270 217 269 q 215 272 215 271 q 208 269 210 269 l 208 267 q 210 265 208 265 q 213 267 211 267 q 217 268 214 267 m 475 472 q 476 482 475 478 q 479 481 478 481 q 478 472 479 475 l 475 472 m 463 658 q 463 663 463 661 q 464 668 464 665 q 463 658 453 664 m 786 953 q 792 946 785 946 l 786 953 m 646 938 q 639 944 644 944 q 642 940 642 942 q 646 938 643 939 m 456 613 q 458 617 456 614 q 461 614 458 617 l 457 610 l 456 613 m 747 615 q 750 622 750 621 q 753 621 751 622 q 750 614 750 618 q 747 615 749 615 m 622 194 q 631 199 628 193 l 622 194 m 749 704 q 750 703 749 704 q 751 710 751 706 l 749 710 l 749 704 m 201 931 q 199 925 201 928 l 197 925 l 201 931 z "},"F":{"ha":876,"x_min":-204,"x_max":863,"o":"m 210 946 q 225 843 217 893 q 240 743 233 793 l 249 749 q 253 722 251 735 q 258 694 256 708 q 303 706 282 700 q 344 715 324 711 q 434 732 389 724 q 524 750 479 740 q 538 752 531 751 q 551 761 546 753 l 553 761 q 554 762 554 761 q 556 763 554 763 l 607 758 q 615 758 611 758 q 624 757 619 757 q 638 753 632 757 q 650 744 643 747 q 661 733 657 742 q 653 703 658 717 q 638 690 651 696 q 626 688 632 688 q 614 685 621 688 q 616 691 615 689 q 617 696 617 693 l 613 696 q 567 688 589 692 q 521 678 544 683 q 502 672 511 675 q 483 667 493 668 q 460 663 471 667 q 436 657 449 658 q 417 653 426 657 q 396 644 407 649 q 381 638 389 642 q 367 632 374 635 q 365 631 365 632 q 363 631 364 629 q 333 625 344 633 q 306 613 321 617 q 291 606 299 610 q 276 597 283 601 q 277 587 276 592 q 278 578 278 582 q 281 558 279 567 q 278 538 283 549 q 276 530 275 535 q 278 521 278 525 q 276 482 278 501 q 275 443 275 463 q 277 421 275 432 q 279 399 279 410 q 284 366 282 382 q 283 333 286 350 q 284 317 282 325 q 288 299 286 308 l 290 274 q 298 279 297 275 q 297 288 299 283 q 298 319 297 303 q 304 350 299 335 q 313 330 311 340 q 318 308 315 319 q 319 288 321 299 q 318 267 318 278 q 324 270 321 269 q 331 274 326 271 l 336 261 q 341 219 339 240 q 344 179 343 199 q 344 133 347 156 q 344 119 343 125 q 350 106 344 113 q 358 89 357 99 q 363 71 360 79 q 365 58 364 64 q 367 44 367 51 q 367 28 368 36 q 368 11 367 19 q 371 -24 369 -7 q 375 -60 372 -42 q 376 -64 375 -62 q 376 -67 376 -65 q 385 -98 385 -82 q 388 -129 385 -114 q 385 -135 388 -132 l 369 -182 q 357 -190 368 -187 q 351 -191 354 -192 q 347 -190 349 -190 l 308 -239 q 300 -213 304 -225 q 293 -189 296 -201 q 260 -108 279 -144 q 214 -16 232 -64 q 189 85 196 32 q 174 168 182 126 q 160 250 167 210 q 150 298 156 274 q 140 346 144 322 q 136 381 138 364 q 132 417 135 399 q 126 418 129 418 l 68 382 q 49 372 58 375 q 28 375 39 368 q 13 376 24 376 q 22 415 -6 403 l 63 431 q 85 440 74 435 q 104 453 96 444 l 100 458 q 121 503 129 474 q 118 525 118 514 q 117 547 118 536 q 110 548 113 547 q 104 546 107 549 q 71 536 89 538 q 36 532 53 535 q 29 532 33 531 q 22 533 25 533 l -10 543 q -24 554 -7 554 q -42 557 -39 554 q -44 576 -44 560 l -72 582 q -63 594 -68 589 q -54 604 -58 599 l -71 617 q -72 617 -72 617 q -74 618 -72 618 l -75 618 q -84 617 -82 614 q -89 624 -86 621 l -31 649 l 17 668 l 25 672 l 51 692 q 62 702 58 696 q 72 711 65 708 q 90 728 88 718 q 88 751 92 738 q 80 794 82 772 q 71 836 78 815 q 63 872 65 854 q 58 908 61 889 q 51 940 53 926 q 23 942 36 942 q -4 944 10 942 q -76 964 -42 950 q -144 994 -111 978 q -161 1004 -153 1000 q -178 1013 -169 1008 l -199 1026 q -200 1038 -196 1033 q -204 1049 -204 1042 q -200 1050 -201 1049 q -196 1051 -199 1051 l -151 1043 q -129 1038 -140 1040 q -107 1033 -118 1036 q -80 1026 -93 1031 q -53 1018 -67 1022 q -38 1014 -46 1015 q -21 1015 -31 1013 q -3 1016 -12 1017 q 17 1015 7 1015 l 38 1015 q 19 1111 26 1064 q -6 1203 11 1158 l 6 1211 q 9 1216 8 1214 q 11 1221 10 1218 q 22 1222 18 1221 q 32 1224 26 1222 l 35 1224 q 63 1221 49 1217 q 92 1219 76 1225 q 119 1211 106 1214 q 147 1204 133 1208 q 163 1196 156 1201 q 179 1185 171 1190 q 178 1107 176 1144 q 190 1031 179 1069 l 217 1031 q 281 1035 249 1033 q 344 1038 313 1036 q 408 1042 376 1040 q 472 1043 440 1043 q 512 1043 492 1044 q 551 1042 532 1042 l 697 1042 q 713 1043 706 1042 q 728 1051 721 1044 q 736 1055 731 1054 q 746 1054 742 1056 q 790 1044 768 1050 q 833 1035 811 1039 q 849 1028 843 1032 q 856 1014 854 1025 q 860 1000 858 1007 q 860 986 863 993 q 855 977 857 981 q 846 974 853 974 l 717 974 l 578 976 q 556 976 567 976 q 535 975 546 975 l 488 975 q 393 967 440 972 q 335 960 364 963 q 276 954 306 957 q 242 951 260 953 q 210 946 225 949 m 99 674 q 58 647 78 658 q 19 621 38 636 q 63 630 42 624 q 103 644 83 636 q 101 658 101 651 q 99 674 101 664 m 325 1 q 332 25 332 13 q 332 50 332 38 q 333 75 333 63 q 331 103 333 88 q 326 96 328 99 q 324 90 324 93 q 322 67 321 79 q 317 44 324 56 l 325 1 z "},"E":{"ha":918,"x_min":-111,"x_max":979,"o":"m 338 565 q 344 569 340 563 q 350 565 347 575 q 355 564 350 564 q 363 565 360 564 l 490 593 q 507 595 499 594 q 524 599 515 596 q 545 604 535 601 q 567 611 556 607 q 574 617 571 613 q 582 625 578 621 q 644 615 614 622 q 707 596 675 607 q 712 574 706 582 q 729 560 718 567 q 715 535 722 544 q 689 522 707 525 q 620 509 654 515 q 553 492 586 503 q 485 474 519 481 q 415 460 450 468 q 379 450 397 456 q 342 439 361 444 q 338 385 342 411 q 340 333 335 360 q 342 320 343 326 q 340 307 340 314 l 340 283 l 350 297 q 351 294 351 294 q 353 293 351 293 q 347 272 346 282 q 349 250 347 261 l 361 157 q 562 200 463 178 q 764 232 661 222 q 769 253 767 246 l 794 253 q 803 251 800 253 q 838 240 819 242 q 874 232 856 239 q 882 231 879 232 q 915 216 901 228 q 940 190 928 204 q 943 185 943 188 q 944 181 943 183 q 947 168 946 174 q 950 156 949 163 l 949 156 q 946 154 946 154 q 926 141 938 140 q 904 144 915 142 q 860 151 882 150 q 815 150 839 151 q 787 149 800 149 q 758 146 774 149 q 721 140 739 143 q 683 135 703 136 q 644 126 664 132 q 606 118 625 121 q 562 106 582 115 q 521 89 542 96 q 495 81 508 85 q 469 75 482 78 l 386 50 q 387 20 382 35 q 389 -11 392 6 q 404 -4 399 -8 q 426 -75 415 -40 q 458 -142 438 -110 q 442 -160 450 -150 q 422 -175 433 -169 q 404 -175 413 -179 q 393 -171 396 -172 q 382 -172 390 -169 l 382 -190 q 380 -191 381 -190 q 378 -192 379 -192 q 371 -182 372 -186 q 349 -185 357 -162 q 332 -193 344 -197 q 317 -188 325 -190 q 303 -183 310 -186 l 292 -176 q 285 -175 286 -174 q 272 -176 276 -181 q 264 -164 267 -171 q 258 -154 261 -158 q 247 -153 254 -150 q 247 -132 247 -142 q 239 -112 246 -122 q 236 -105 236 -110 q 236 -96 236 -100 q 235 -91 236 -93 q 236 -86 235 -89 q 236 -79 238 -82 q 233 -74 235 -76 q 230 -67 231 -71 q 232 -60 229 -64 q 231 -49 235 -57 q 225 -35 226 -42 q 208 6 224 -15 q 198 2 204 3 q 185 -1 192 1 q 126 -12 156 -12 q 68 -4 97 -12 q 41 7 53 0 q 17 21 29 14 q -1 29 8 26 q -18 36 -10 32 q -34 46 -26 40 q -50 57 -42 51 q -64 86 -67 67 q -67 94 -68 93 l -28 151 l -24 154 q 17 178 -1 164 q 54 207 35 192 q 72 221 63 214 q 93 235 82 228 q 88 204 90 218 q 76 179 86 190 q 32 119 51 153 q 24 103 28 113 q 31 82 21 93 q 59 86 44 85 q 89 90 74 88 l 176 111 q 193 119 190 114 q 192 139 196 125 q 190 153 190 146 q 193 168 189 161 q 194 174 194 171 q 193 183 193 178 q 199 167 200 175 q 197 151 199 158 q 197 133 194 139 q 210 122 200 128 q 206 165 207 143 q 203 206 206 186 q 200 248 200 226 q 189 289 200 269 q 194 320 197 304 q 190 353 192 336 q 188 366 189 360 q 190 379 188 372 q 192 391 193 385 q 189 404 190 397 l 182 433 q 116 456 149 442 q 53 493 83 471 q 17 529 32 508 q 29 565 -1 554 l 82 592 q 86 565 89 578 q 83 538 83 551 q 129 522 106 521 q 179 525 153 522 q 176 534 175 529 q 178 543 178 539 q 178 551 179 547 q 172 558 178 556 q 181 586 182 572 q 178 615 179 600 q 165 613 169 613 l 165 664 l 181 661 q 177 711 178 686 q 175 760 176 736 q 172 774 174 767 q 168 788 169 781 l 168 822 q 143 820 156 824 q 118 811 131 817 q 99 794 107 806 q 76 778 90 783 q 76 789 74 785 q 82 796 79 793 l 90 813 q 69 815 79 814 q 51 825 58 817 q 46 828 49 828 q 26 830 35 825 q 7 838 17 835 q -49 866 -25 846 q -94 908 -72 886 q -93 939 -111 924 l -82 951 q -49 946 -65 949 q -14 940 -32 943 q 12 938 -1 938 q 38 929 25 938 q 40 930 39 929 q 44 931 42 931 q 83 935 64 933 q 121 940 101 938 q 139 956 135 940 q 147 983 142 971 q 154 1011 151 996 q 158 1046 157 1028 q 161 1083 158 1064 q 182 1110 178 1085 q 184 1116 182 1113 q 193 1113 186 1119 l 181 1154 q 210 1175 185 1172 q 326 1160 267 1176 q 385 1128 358 1153 l 381 1000 q 396 1001 392 1000 q 490 1018 443 1013 q 585 1028 536 1024 l 688 1040 q 710 1051 699 1042 q 726 1063 718 1057 q 746 1068 735 1069 q 754 1071 747 1067 q 792 1082 772 1082 q 811 1078 803 1082 q 849 1063 831 1071 q 886 1046 867 1054 q 908 1037 897 1040 q 929 1026 918 1033 q 946 1013 938 1019 q 957 996 954 1006 q 966 981 961 986 q 976 971 971 976 q 979 967 978 967 q 970 951 976 956 q 953 946 964 947 q 928 948 940 946 q 904 950 917 950 q 870 951 888 951 q 835 949 853 950 q 818 947 826 949 q 801 943 810 944 q 794 942 799 943 q 789 943 790 942 q 774 951 782 953 q 760 947 767 949 q 723 943 740 946 q 686 938 706 940 l 593 926 q 563 919 578 924 q 533 910 549 914 l 372 858 q 359 851 361 854 q 357 833 357 849 q 368 830 363 831 q 381 826 374 829 q 371 818 374 819 q 350 805 356 813 q 346 779 344 797 q 346 744 347 761 q 342 710 344 728 q 342 686 339 699 q 346 660 344 674 q 340 656 344 657 q 335 647 336 654 q 333 628 335 638 q 339 610 332 619 q 333 588 336 599 q 338 565 331 576 m 274 201 l 278 201 q 281 215 278 207 q 282 238 282 226 q 285 258 282 249 q 281 283 289 272 q 275 305 274 294 q 281 326 276 315 q 285 338 283 333 q 278 344 288 342 q 276 347 276 344 q 275 353 275 350 q 265 381 275 371 q 259 343 263 361 q 257 306 256 325 q 264 253 258 279 q 274 201 269 228 m -58 101 l -64 86 q -56 90 -57 89 q -58 101 -56 92 z "},"C":{"ha":729,"x_min":3,"x_max":838,"o":"m 833 853 q 836 849 836 851 q 838 843 836 846 q 831 840 833 840 q 825 836 828 839 q 810 831 818 829 q 785 837 797 835 q 760 844 772 839 q 740 851 750 849 q 719 857 731 854 q 753 853 728 858 q 750 857 750 856 l 744 861 l 768 857 q 779 856 774 856 q 790 853 785 857 q 804 863 801 847 l 744 868 q 725 874 731 871 q 696 875 713 878 l 614 871 q 606 870 610 871 q 600 869 603 869 q 569 881 582 868 q 553 878 561 879 q 538 874 546 876 q 530 871 533 872 q 522 872 526 869 q 514 871 519 874 q 499 864 507 865 q 483 861 492 863 q 479 861 479 861 q 468 866 472 868 q 458 861 464 864 q 445 857 451 858 q 432 854 439 856 q 433 863 432 858 l 410 850 l 358 817 q 356 815 357 817 q 319 785 339 797 q 282 757 300 772 q 266 745 275 750 q 250 733 257 740 q 199 671 224 707 q 181 630 192 660 q 160 565 169 600 q 144 497 150 529 q 140 450 138 464 q 144 426 143 439 q 146 401 144 414 q 151 379 149 388 q 157 354 156 367 q 163 329 158 342 q 169 317 165 322 q 175 307 172 313 q 182 299 182 300 q 211 267 190 278 q 220 256 218 263 q 225 242 222 249 q 228 231 228 236 q 236 224 228 226 q 236 210 229 214 q 246 200 243 206 l 233 192 l 238 183 q 290 133 263 156 q 353 94 318 110 q 398 75 375 83 q 444 58 421 67 q 515 38 479 44 q 588 24 551 31 q 640 15 614 18 q 693 6 667 11 q 717 -1 706 3 q 742 -8 729 -6 q 731 -19 740 -19 q 715 -20 722 -19 q 699 -22 707 -21 l 699 -26 q 715 -29 704 -26 q 681 -34 697 -32 q 646 -39 664 -36 q 585 -48 615 -46 q 522 -51 554 -50 q 515 -51 519 -51 q 508 -47 511 -51 q 501 -44 506 -44 q 492 -43 496 -44 q 344 -6 414 -31 q 278 21 310 7 q 214 54 246 35 q 171 87 190 69 q 132 124 151 104 q 81 190 106 153 q 38 274 54 231 q 11 365 21 318 q 7 404 10 376 q 3 468 4 432 q 5 544 3 504 q 15 624 7 585 q 38 695 24 663 q 78 747 53 728 q 92 764 86 754 q 104 782 97 774 q 159 844 131 814 q 219 900 188 874 l 232 910 l 222 910 q 231 917 228 913 q 242 918 235 921 q 250 925 246 918 q 257 934 253 931 q 265 942 261 938 q 283 953 274 949 q 299 968 292 958 q 300 969 299 969 q 328 982 315 972 q 354 999 340 992 q 382 1015 369 1006 q 408 1033 394 1025 q 446 1043 424 1043 q 472 1050 458 1043 q 479 1051 475 1051 q 487 1051 486 1049 q 490 1060 488 1053 q 495 1059 493 1060 q 500 1058 497 1058 q 507 1058 504 1056 q 526 1066 517 1065 q 547 1068 536 1067 q 600 1076 574 1074 q 654 1078 626 1079 l 715 1072 l 724 1068 q 759 1048 742 1057 q 794 1029 776 1039 q 807 1014 806 1022 q 817 983 813 999 q 826 951 822 967 q 826 932 832 940 q 826 919 824 926 q 831 908 829 914 q 836 897 833 903 q 836 893 836 893 q 835 880 833 886 q 831 867 836 874 q 828 859 828 863 q 833 853 828 856 m 160 111 q 161 107 160 107 l 190 81 l 201 71 q 213 65 207 68 q 222 58 218 63 q 278 31 244 42 q 285 24 281 26 q 314 12 300 17 q 343 1 328 7 q 356 -2 350 -1 q 369 0 363 -3 l 308 25 q 302 28 306 26 q 294 26 299 29 q 291 27 293 25 q 286 31 289 29 q 281 33 281 33 q 272 40 275 39 q 256 47 264 43 q 242 56 249 50 q 210 77 226 67 q 176 99 193 88 l 160 111 m 369 0 l 369 -7 l 378 -7 q 397 -16 388 -11 q 417 -17 406 -21 q 418 -17 418 -17 q 419 -18 418 -18 q 434 -24 426 -21 q 450 -25 442 -28 q 453 -26 450 -25 l 493 -33 q 474 -26 483 -31 q 453 -26 464 -22 q 452 -22 454 -22 q 447 -21 450 -22 l 369 0 m 818 846 q 818 851 818 851 q 807 847 813 857 q 813 847 811 847 q 818 846 815 846 m 151 111 q 155 117 156 115 q 144 124 154 119 l 151 111 z "},"A":{"ha":760,"x_min":3,"x_max":814,"o":"m 810 394 q 813 385 813 390 q 814 375 813 381 q 781 362 799 365 q 747 357 764 358 q 706 355 726 354 q 664 356 685 356 l 622 361 l 606 361 l 601 292 q 601 290 601 290 q 600 289 600 290 l 600 288 q 610 247 611 268 q 614 206 610 225 q 619 166 617 186 q 629 126 622 146 q 633 105 632 115 q 638 83 635 94 l 650 19 l 657 -25 l 674 -79 q 681 -104 678 -92 q 688 -129 685 -117 q 694 -160 692 -144 q 699 -190 696 -175 q 701 -217 700 -204 q 703 -243 703 -229 q 690 -292 703 -267 q 682 -290 685 -292 q 681 -292 682 -292 q 681 -293 681 -292 q 678 -305 682 -300 q 668 -307 675 -310 q 648 -308 661 -306 q 621 -312 635 -310 q 594 -318 607 -315 q 575 -322 582 -321 q 574 -308 575 -315 q 574 -294 574 -301 q 564 -274 571 -281 q 560 -261 560 -268 q 557 -241 560 -250 q 550 -222 554 -232 q 543 -204 547 -212 q 540 -185 539 -196 q 540 -178 542 -182 q 538 -168 539 -174 l 532 -176 q 531 -175 532 -175 l 531 -161 q 532 -156 532 -160 q 526 -128 528 -142 q 519 -100 525 -114 l 515 -87 q 510 -71 513 -79 q 515 -54 508 -62 q 515 -49 515 -49 q 517 -35 513 -40 q 515 -19 518 -31 l 503 -26 q 508 -10 506 -21 q 500 -1 500 -10 q 497 9 499 4 q 499 19 496 14 q 501 25 500 22 q 504 31 501 28 q 501 44 514 38 q 496 53 496 50 q 494 67 494 60 q 494 81 493 74 q 495 95 497 88 q 490 110 493 103 q 489 117 490 114 q 486 124 488 121 l 478 149 q 482 161 483 153 q 474 209 478 185 q 467 257 469 233 l 454 335 l 449 368 q 355 376 401 372 q 261 383 308 381 q 254 371 258 376 q 253 358 250 365 q 247 351 249 356 q 244 343 246 347 l 221 264 q 211 235 217 249 q 199 207 206 222 q 171 182 190 189 l 178 228 q 182 257 181 243 q 186 285 183 271 q 187 298 188 292 q 192 310 186 304 q 193 313 193 310 q 193 333 193 324 q 192 353 193 343 l 188 335 l 174 289 q 171 274 171 282 q 168 260 171 267 q 156 213 164 236 q 152 200 154 206 q 147 188 150 194 q 126 156 140 168 q 123 150 124 153 q 119 144 122 147 q 118 150 119 147 q 108 142 113 146 q 100 136 103 139 l 92 46 l 85 56 q 81 47 82 51 q 78 40 81 43 q 72 33 74 33 q 63 36 69 32 l 56 40 q 53 33 54 36 q 49 25 51 29 l 33 32 q 31 25 31 29 q 24 28 31 21 q 18 31 22 31 q 11 32 14 31 l 11 36 q 27 67 24 50 q 36 100 31 83 q 42 110 36 108 q 44 121 50 113 q 46 129 44 126 q 49 118 49 124 q 53 106 50 113 q 60 115 60 113 q 60 128 61 118 q 69 160 74 139 q 71 175 67 168 q 85 211 81 193 q 94 249 89 229 q 98 259 96 254 q 101 269 100 264 q 109 294 106 281 q 115 319 113 307 q 117 325 117 321 q 133 335 131 322 q 146 351 138 343 q 153 371 153 358 q 144 378 144 371 l 136 367 l 140 382 q 101 401 119 383 q 128 423 114 414 q 157 442 142 432 q 166 438 164 438 q 171 446 168 439 l 186 497 l 192 521 q 195 531 193 526 q 190 540 197 536 q 192 550 188 543 q 199 569 197 560 q 204 589 201 579 q 207 599 207 594 l 201 603 l 213 638 q 207 642 211 640 q 206 649 203 643 q 197 650 203 650 q 199 666 199 657 q 204 685 200 675 q 215 714 207 699 q 218 718 217 717 q 219 722 219 719 q 224 749 218 738 q 236 774 231 761 l 256 825 l 278 876 q 279 881 279 879 q 282 885 279 883 q 292 895 289 888 q 300 910 296 903 q 303 911 300 910 l 306 911 l 294 875 l 296 875 q 310 901 303 886 q 311 908 311 904 q 314 917 311 913 q 321 929 317 925 q 326 929 322 931 q 333 926 329 928 q 349 938 340 932 q 361 956 357 944 q 353 963 358 957 q 353 965 353 964 q 354 967 354 965 l 388 1001 q 392 1014 392 1006 l 392 1026 q 401 1042 390 1035 q 425 1050 413 1049 q 449 1053 438 1051 q 486 1057 467 1057 q 495 1057 490 1057 q 504 1056 500 1057 q 521 1033 521 1051 q 520 995 521 1014 q 519 957 519 976 q 526 950 519 953 q 539 944 532 947 q 552 939 546 942 q 558 933 558 936 q 569 921 564 926 q 578 908 574 915 q 585 876 588 896 l 579 793 q 578 776 578 785 q 581 760 579 768 q 580 749 581 754 q 579 739 579 744 q 578 721 579 729 q 578 703 578 713 q 578 684 578 693 q 579 665 579 675 q 578 657 579 661 q 578 649 578 653 q 576 606 571 625 q 577 585 581 594 q 567 564 574 575 q 571 547 572 556 q 567 529 569 538 q 568 503 563 517 q 573 485 572 494 q 572 468 574 476 q 570 453 571 461 q 572 439 569 446 q 574 432 575 436 q 574 422 574 428 l 597 422 l 724 419 l 788 414 q 810 394 803 414 m 449 508 q 451 544 450 526 q 451 579 451 561 q 451 585 451 582 q 450 590 450 588 l 433 590 q 432 593 433 592 q 436 596 433 593 q 433 607 433 604 q 434 619 433 614 q 435 629 435 624 q 439 679 438 654 q 431 729 440 704 l 428 740 q 423 734 425 738 q 425 726 421 731 q 426 719 428 724 q 415 707 425 710 q 414 722 413 714 q 410 738 415 731 q 395 713 399 726 q 385 685 392 699 q 371 660 378 672 q 361 632 364 647 q 349 607 353 621 q 343 579 346 593 q 335 581 340 581 q 335 578 335 578 q 337 553 338 565 q 329 531 336 542 q 317 496 321 515 q 314 487 315 490 q 311 479 313 483 l 307 479 l 311 506 q 315 528 314 517 q 318 550 317 539 q 317 553 318 551 q 314 550 314 550 l 303 508 l 299 488 l 293 476 q 290 460 292 468 q 286 446 289 453 q 285 438 286 442 q 285 431 285 433 q 324 424 304 425 q 363 422 343 424 q 401 422 382 422 q 443 421 421 421 q 440 442 440 432 q 438 463 439 451 q 435 472 436 467 q 435 481 433 476 q 435 503 436 492 q 433 526 435 515 q 443 519 443 529 q 444 513 444 517 q 449 508 443 510 m 292 679 l 283 671 q 292 699 286 686 q 304 724 297 711 q 311 721 304 722 q 309 738 307 731 q 314 754 311 746 q 323 778 318 767 q 328 804 328 790 q 331 811 328 808 q 338 828 338 818 q 343 844 338 838 q 342 847 343 847 q 340 872 336 861 q 350 893 343 883 q 357 910 357 901 q 360 928 357 918 q 349 922 354 919 q 338 926 344 925 l 335 914 l 335 904 q 328 885 331 894 q 321 867 325 876 q 313 847 317 857 q 307 826 308 838 q 301 811 307 822 q 294 792 296 801 q 292 772 293 782 q 287 751 290 761 q 279 732 283 742 q 270 705 274 718 q 268 676 267 692 q 267 665 268 669 l 253 629 q 254 625 253 628 q 257 619 256 622 l 253 611 q 247 584 250 597 q 242 557 244 571 l 229 511 q 224 495 226 503 q 219 481 222 488 l 213 453 q 215 439 210 443 l 219 446 q 225 462 222 454 q 231 476 228 469 l 229 476 l 236 499 l 235 499 q 240 525 238 508 q 245 524 243 525 q 249 524 247 524 l 243 533 q 251 558 247 544 q 258 583 254 571 l 261 583 q 262 596 263 590 q 264 607 261 601 q 267 617 265 613 q 268 628 269 621 q 275 650 264 639 q 278 656 278 653 q 279 663 278 660 l 283 671 l 290 661 l 294 679 l 292 679 m 274 549 q 279 565 276 557 q 281 583 282 574 q 290 604 281 597 q 303 625 300 611 q 314 660 304 642 q 307 673 307 667 q 308 686 307 679 q 306 687 307 686 q 304 688 306 688 q 290 656 306 668 q 293 647 293 649 q 290 638 293 644 q 282 643 285 640 q 272 636 279 635 q 274 628 276 633 q 279 622 272 624 q 280 614 279 618 q 281 604 281 610 q 275 590 275 603 q 269 575 275 581 q 261 554 261 564 q 258 539 261 546 q 253 525 254 532 l 250 524 l 246 499 l 236 499 l 236 497 q 242 485 243 488 q 231 476 242 482 q 227 467 229 472 q 228 460 225 463 q 230 448 231 453 q 231 436 229 443 l 246 433 q 248 438 247 436 q 249 442 249 439 q 254 456 251 449 q 256 469 257 463 q 257 483 256 476 q 260 497 258 490 q 267 524 263 511 q 274 549 271 536 m 589 539 q 588 558 586 549 q 586 578 589 568 q 587 583 586 581 q 588 589 588 586 l 590 589 q 597 556 593 572 q 599 524 601 540 q 598 513 599 518 q 597 503 597 508 q 598 498 597 500 q 599 493 599 496 q 601 483 600 488 q 601 475 603 479 l 583 433 q 581 447 579 440 q 585 458 582 453 q 594 474 589 463 q 595 478 596 476 q 594 483 594 481 l 583 468 q 581 469 582 468 q 579 469 581 469 l 588 529 q 589 539 589 532 m 222 374 q 229 380 225 376 q 231 390 233 383 q 218 392 222 390 q 218 378 214 385 q 214 365 222 371 q 211 370 210 365 q 206 372 213 375 q 209 341 211 357 q 210 310 207 325 q 215 318 215 315 q 217 329 214 325 q 222 338 219 333 q 222 345 222 342 q 222 351 221 349 q 222 374 229 363 m 399 407 q 420 403 410 406 q 442 406 431 400 q 399 407 418 410 m 432 572 q 441 563 440 565 q 438 549 442 560 q 432 572 431 563 m 207 393 q 199 371 192 383 l 207 393 m 274 825 q 282 834 278 829 q 282 846 286 839 l 274 825 m 324 832 q 328 822 328 824 q 322 814 328 819 q 324 832 322 825 m 419 694 q 428 696 421 697 l 424 692 l 417 686 q 419 694 419 694 m 571 596 q 564 590 564 593 q 567 583 564 586 l 571 596 m 122 308 q 128 319 124 315 q 120 319 121 321 q 122 308 119 318 m 131 340 q 128 347 125 343 q 129 354 131 351 q 131 340 135 351 m 3 53 q 3 39 11 44 l 3 53 m 449 618 q 445 610 443 614 q 449 600 447 606 l 449 618 m 113 104 q 113 111 113 107 q 114 118 114 115 l 117 118 q 115 104 115 113 l 113 104 m 178 497 q 175 500 175 500 l 181 507 q 183 504 183 504 l 178 497 m 314 697 q 310 686 304 693 l 314 697 m 486 6 q 485 22 486 17 l 488 22 l 488 6 l 486 6 m 344 868 l 344 858 q 349 863 349 863 l 344 868 m 436 578 q 442 574 443 585 l 436 578 m 551 -237 q 553 -249 551 -246 q 550 -250 551 -249 q 549 -237 550 -242 l 551 -237 m 489 -4 q 490 -6 490 -4 l 490 -19 l 489 -19 l 489 -4 m 511 -142 q 510 -132 510 -137 l 514 -140 q 511 -142 513 -140 m 510 -118 l 510 -131 q 508 -118 508 -126 l 510 -118 z "},"B":{"ha":664,"x_min":-104,"x_max":663,"o":"m 656 379 q 660 350 663 367 q 655 319 657 335 q 650 289 653 304 q 647 267 647 278 q 640 244 646 256 q 626 211 633 228 q 604 179 618 194 q 599 172 601 176 q 594 165 597 168 l 560 121 q 531 88 547 101 q 501 56 515 74 l 493 49 q 478 29 485 44 q 467 14 474 21 q 453 0 460 7 q 419 -21 438 -12 q 383 -37 401 -29 q 355 -48 369 -44 q 326 -58 340 -51 q 297 -68 311 -65 q 268 -74 283 -71 q 260 -76 264 -74 q 253 -79 257 -78 q 243 -82 247 -82 l 226 -78 l 235 -71 q 228 -66 232 -68 q 221 -62 224 -64 q 211 -59 215 -60 q 200 -61 207 -58 q 182 -62 193 -65 q 186 -62 185 -62 q 190 -60 188 -61 q 164 -56 176 -50 q 153 -57 157 -60 l 165 -46 q 178 -42 171 -39 q 190 -39 185 -44 q 202 -38 197 -42 q 213 -33 207 -35 l 231 -28 q 241 -24 236 -26 q 251 -19 246 -22 l 251 -28 q 258 -24 256 -25 q 264 -21 261 -22 l 271 -21 q 270 -12 271 -14 q 264 -4 269 -10 q 274 0 269 -1 q 282 3 278 1 q 288 4 286 3 q 299 13 292 11 q 314 14 306 14 q 319 17 317 14 q 342 35 331 25 q 365 51 354 44 q 385 71 379 61 q 392 77 388 75 q 403 82 397 79 l 399 97 l 425 126 l 444 143 q 451 153 449 147 q 457 163 454 158 q 460 170 460 165 q 465 174 460 175 q 468 176 468 174 q 474 187 468 185 q 486 192 481 189 q 480 202 482 201 q 469 200 478 203 q 456 192 463 199 q 439 178 447 185 q 424 161 431 172 q 414 149 421 154 q 400 136 407 143 q 385 124 393 129 q 375 107 378 118 q 365 97 368 104 q 356 85 361 89 q 341 72 349 78 q 328 58 333 65 q 317 54 326 57 l 317 68 q 344 108 322 90 q 356 119 350 113 q 356 136 361 125 q 357 143 353 139 l 369 158 q 422 215 397 186 q 469 275 446 244 q 508 336 492 304 q 517 368 517 351 q 517 401 518 385 q 510 415 515 408 q 499 424 506 421 q 459 440 479 433 q 418 446 439 446 q 333 446 375 447 q 275 439 307 446 q 233 435 254 436 q 190 439 211 435 q 184 440 188 439 q 176 440 181 440 l 176 432 q 178 429 178 431 q 179 425 178 428 l 188 367 q 188 361 188 364 q 189 356 189 358 q 197 331 193 343 q 203 306 200 318 q 208 280 206 293 q 213 253 210 267 l 221 182 q 226 167 224 175 q 231 151 228 158 q 240 115 238 133 q 244 76 242 96 q 246 54 246 69 q 243 43 246 51 q 239 30 240 36 q 240 17 238 24 q 260 24 253 15 q 279 35 268 32 q 281 38 279 35 q 284 44 283 43 q 290 49 285 46 q 285 31 290 38 q 272 22 279 25 q 264 17 268 19 q 257 11 260 14 q 238 -1 249 3 q 215 -10 226 -4 l 189 -18 l 160 -26 q 163 -22 164 -22 q 166 -19 168 -21 q 164 -14 164 -17 q 179 -10 171 -8 q 194 -1 188 -11 q 174 -3 181 -1 l 172 -1 q 142 7 160 17 q 138 4 139 6 q 133 1 136 3 q 129 1 131 0 q 122 7 128 1 q 131 6 128 7 q 125 28 135 18 q 115 54 114 39 q 104 119 117 86 q 88 172 96 146 q 74 226 81 199 l 63 278 q 57 311 58 294 q 53 344 56 328 l 44 406 l 33 485 q 34 493 33 489 q 36 503 35 497 q 37 508 36 506 q 38 511 38 510 q 33 529 28 521 q 28 551 26 540 q 29 574 31 563 q 26 596 26 585 q 26 618 26 607 q 25 631 25 622 q 23 685 24 658 q 19 740 22 713 q 15 776 18 758 q 14 811 13 793 q 7 821 14 819 q -18 826 -7 826 q -42 828 -31 826 q -65 840 -54 831 q -72 843 -68 843 q -82 843 -78 843 q -86 850 -86 843 q -87 836 -100 843 q -97 838 -94 833 q -103 844 -100 842 q -99 852 -100 849 q -100 861 -97 856 q -101 880 -104 871 q -94 899 -99 889 l -65 957 q -65 959 -65 958 q -64 961 -64 960 q -54 988 -64 976 q -51 994 -51 990 q -51 1001 -51 999 q -37 1008 -44 1006 q -29 1019 -31 1010 l -39 1019 q -18 1030 -28 1025 q 3 1039 -8 1035 q 56 1058 29 1050 q 111 1074 83 1067 q 176 1082 143 1081 q 240 1081 208 1083 q 314 1064 279 1076 q 335 1056 325 1061 q 353 1043 344 1051 q 355 1042 354 1043 q 357 1042 356 1042 q 381 1026 371 1036 q 399 1004 390 1017 q 410 986 407 993 l 426 935 q 425 817 443 875 q 415 794 421 806 q 406 771 410 782 q 390 742 400 756 q 372 713 379 728 l 367 706 q 349 690 358 697 q 333 674 340 682 q 294 622 314 650 q 284 609 289 615 q 276 596 279 603 q 264 569 269 585 q 256 555 260 563 q 246 543 253 547 q 242 538 243 540 q 238 532 240 535 l 246 525 l 229 514 q 242 512 236 511 q 254 514 247 513 q 258 517 256 514 q 263 522 261 522 q 268 518 264 521 q 275 515 271 515 q 291 516 283 515 q 307 517 299 517 q 357 518 332 517 q 407 518 382 519 q 457 513 432 517 q 506 500 482 510 q 519 496 513 497 q 533 492 526 494 q 542 494 536 492 l 576 468 q 586 459 582 464 q 593 447 590 454 q 599 442 593 447 l 626 413 l 631 404 q 640 364 638 385 q 647 373 647 365 q 656 379 646 381 m 171 585 q 167 594 167 592 q 174 603 167 596 q 179 608 178 604 q 199 635 186 624 q 214 665 211 647 q 217 668 214 668 q 234 694 225 682 q 253 721 243 707 q 231 715 239 726 l 213 696 q 206 693 210 693 l 204 694 q 219 717 211 706 q 236 742 228 728 q 225 738 229 739 q 218 733 221 736 q 211 726 215 728 q 201 721 207 724 q 203 733 199 728 q 279 854 244 788 q 289 876 285 865 q 290 901 293 888 q 290 924 288 913 q 268 1004 292 965 q 244 1017 258 1018 q 226 1015 235 1015 q 208 1013 218 1015 l 131 992 l 135 975 l 139 975 q 140 980 139 978 q 140 985 140 982 q 144 975 146 979 q 146 958 143 967 q 150 946 149 951 q 151 933 151 940 l 146 882 q 147 877 146 879 q 147 872 147 875 q 177 872 163 872 q 207 874 192 871 q 218 873 213 875 q 229 869 224 871 q 233 855 228 861 q 242 839 239 849 q 219 825 231 831 q 194 814 207 819 q 167 810 182 810 q 140 808 153 810 l 143 786 q 144 771 143 775 q 148 747 147 758 q 149 722 149 735 q 150 703 150 713 q 147 686 150 694 q 144 665 143 675 q 149 643 146 654 q 150 638 149 640 q 151 633 151 636 l 151 574 q 157 563 151 564 l 171 585 m 499 449 l 447 467 l 467 471 q 447 478 457 478 q 426 481 438 479 q 376 482 401 483 q 326 479 351 481 q 324 478 325 479 q 322 478 324 478 q 372 476 347 476 q 419 471 396 475 q 399 472 408 471 q 378 472 389 472 q 349 471 363 472 q 319 468 335 469 l 288 464 l 269 464 q 268 461 268 464 q 272 460 271 461 q 275 460 274 460 q 252 456 264 458 q 228 454 240 454 q 203 456 215 454 q 178 458 190 457 q 182 454 179 454 q 224 449 203 450 q 267 450 246 449 q 321 455 294 453 q 374 457 347 457 q 419 456 397 458 q 463 453 440 454 q 476 452 469 453 q 488 449 482 451 q 499 447 490 447 l 499 449 m 118 728 q 117 737 118 732 q 119 744 117 742 q 123 765 122 756 q 124 783 124 774 q 108 772 111 783 q 106 758 106 764 q 97 740 104 749 q 106 710 88 729 q 118 715 117 713 q 118 728 119 717 m 171 550 q 191 581 178 567 q 207 615 204 596 q 196 606 200 613 q 181 601 192 599 l 186 588 q 170 572 176 581 q 171 550 164 564 m 292 -15 q 310 8 307 -10 q 290 -4 299 4 q 272 -21 281 -12 q 277 -23 275 -21 q 282 -19 279 -25 q 286 -17 283 -18 q 292 -15 289 -17 m 151 -57 q 135 -65 144 -65 q 115 -67 125 -64 q 96 -68 108 -71 q 101 -65 99 -67 q 107 -64 104 -64 q 124 -58 114 -65 q 138 -53 131 -53 q 151 -54 144 -54 l 151 -57 m 53 565 q 53 575 51 574 q 64 578 54 576 l 54 597 q 49 581 47 589 q 50 567 50 574 q 49 552 50 560 q 53 538 49 544 q 53 565 57 551 m 99 813 q 96 790 96 801 q 99 768 96 779 q 107 792 107 783 q 99 813 107 800 m 154 -24 q 160 -26 157 -24 l 151 -31 q 145 -34 149 -32 q 139 -35 142 -36 q 115 -47 125 -31 q 110 -39 113 -44 q 132 -29 121 -32 q 154 -24 143 -26 m 174 475 q 210 468 192 467 q 247 472 228 469 l 174 475 m 324 0 q 340 6 331 0 q 360 19 350 11 q 349 21 353 25 q 342 15 346 17 q 331 10 336 13 q 324 0 326 7 m 236 656 q 233 661 236 656 q 223 644 226 653 q 221 624 219 635 q 225 629 225 628 l 236 656 m 101 676 q 105 693 104 686 q 99 708 106 700 q 97 692 97 700 q 101 676 97 685 m 133 603 q 128 636 138 622 q 126 635 126 636 q 124 635 125 635 q 133 603 129 621 m 58 493 q 60 507 61 500 q 57 521 60 514 q 53 506 50 513 q 58 493 56 500 m 444 506 q 443 503 444 504 q 463 498 453 500 q 482 493 472 496 l 482 496 l 444 506 m 526 475 q 494 488 514 490 l 526 475 m 308 725 q 301 717 301 722 q 297 708 301 713 q 309 714 307 711 q 308 725 311 717 m 185 -87 q 178 -97 181 -97 q 168 -85 176 -96 q 185 -87 182 -87 m 179 -74 q 172 -74 175 -74 q 167 -75 169 -75 l 174 -64 l 179 -74 m 119 574 q 126 578 126 575 q 125 586 126 582 q 119 574 119 583 m 72 717 q 75 718 72 717 l 72 726 q 68 725 71 725 l 72 717 m 140 872 q 143 874 142 872 l 140 883 q 139 883 139 883 q 138 882 139 882 l 140 872 m 93 757 q 92 749 93 753 q 92 743 92 746 q 96 751 96 750 q 93 757 96 753 m 76 -50 q 85 -47 79 -50 l 85 -51 q 81 -52 82 -51 q 76 -53 79 -53 l 76 -50 m 88 782 l 85 782 l 88 765 l 88 782 m 315 54 l 317 54 l 317 53 l 315 54 z "},"g":{"ha":421,"x_min":-147,"x_max":489,"o":"m 444 118 q 446 107 449 111 q 440 100 443 103 q 435 88 438 96 q 433 82 433 85 q 431 79 432 79 q 421 72 424 76 q 414 64 418 67 q 392 43 403 53 q 368 26 381 33 l 356 14 q 346 3 350 8 q 336 -10 342 -3 q 326 -19 331 -15 q 315 -28 321 -22 q 304 -42 307 -36 l 288 -64 q 265 -103 274 -83 q 254 -147 256 -124 q 256 -151 254 -149 q 265 -140 263 -147 q 269 -128 267 -133 q 276 -115 272 -121 q 285 -103 281 -110 q 287 -131 288 -118 q 279 -158 286 -144 q 276 -167 276 -162 q 275 -178 276 -172 q 265 -197 275 -187 q 260 -202 263 -200 q 256 -207 258 -204 l 256 -206 q 258 -197 256 -206 q 249 -201 253 -200 q 247 -210 244 -203 q 240 -215 244 -212 q 242 -224 236 -217 q 240 -225 242 -225 q 238 -226 239 -225 q 220 -251 229 -239 q 211 -281 211 -264 l 211 -286 q 221 -276 217 -282 l 228 -265 q 225 -254 233 -257 q 239 -233 232 -243 q 261 -219 246 -224 q 260 -224 260 -222 q 258 -226 260 -225 q 251 -240 253 -233 q 247 -254 250 -247 q 239 -275 243 -265 q 224 -292 235 -285 q 210 -304 214 -297 q 204 -322 204 -310 q 189 -357 200 -342 q 184 -362 186 -360 q 182 -368 182 -365 q 163 -399 178 -385 q 165 -412 165 -406 q 163 -425 165 -418 q 153 -450 158 -437 q 142 -475 147 -462 l 135 -496 q 126 -512 131 -504 q 115 -528 121 -519 q 113 -534 113 -531 q 110 -540 113 -537 q 97 -562 103 -551 q 81 -583 90 -574 q 53 -608 68 -596 q 28 -635 39 -619 q 22 -639 25 -637 q 15 -643 18 -640 q -1 -653 4 -649 q -19 -654 -11 -661 q -22 -662 -22 -656 q -29 -661 -21 -668 q -33 -661 -29 -661 l -54 -672 l -54 -662 q -59 -660 -57 -661 q -64 -657 -61 -658 q -67 -664 -71 -662 q -61 -668 -62 -665 l -68 -674 q -78 -663 -71 -662 q -93 -662 -86 -664 q -99 -665 -99 -661 q -101 -674 -100 -669 l -112 -664 l -126 -664 l -129 -650 q -136 -653 -133 -651 q -142 -656 -139 -654 q -147 -644 -146 -650 q -147 -632 -147 -639 q -142 -608 -144 -619 q -139 -583 -140 -596 q -136 -540 -135 -560 q -138 -548 -137 -544 q -139 -556 -139 -551 q -139 -533 -146 -544 q -128 -512 -133 -522 q -117 -490 -122 -501 l -114 -474 q -112 -464 -114 -467 q -100 -433 -106 -449 q -83 -406 -94 -418 q -78 -396 -81 -401 q -74 -386 -76 -390 q -67 -371 -69 -379 q -57 -357 -65 -362 q -56 -351 -56 -356 q -51 -339 -54 -344 q -43 -328 -47 -333 q -37 -319 -40 -324 q -32 -312 -35 -315 q -33 -325 -32 -319 q -33 -336 -33 -331 q -26 -332 -26 -333 q -9 -311 -18 -321 q 8 -290 0 -301 q 24 -262 18 -276 q 28 -248 26 -256 q 32 -233 29 -240 q 29 -222 32 -231 q 36 -222 35 -219 q 39 -228 38 -225 q 54 -226 44 -226 q 60 -213 56 -219 q 68 -201 64 -207 q 79 -190 74 -196 q 88 -175 85 -185 q 80 -182 83 -178 q 72 -190 76 -186 l 69 -187 l 88 -157 q 93 -162 92 -161 q 101 -161 94 -162 q 101 -165 101 -164 q 100 -171 100 -167 q 105 -164 103 -167 q 110 -158 107 -161 q 101 -160 106 -160 q 107 -154 104 -157 q 107 -144 110 -151 q 111 -135 106 -143 q 113 -147 111 -142 q 138 -126 128 -142 q 153 -109 144 -115 q 172 -96 163 -103 q 176 -93 175 -93 l 189 -22 l 204 78 q 201 89 204 83 q 193 115 192 97 l 174 97 q 159 83 167 90 q 147 68 151 76 q 139 56 144 61 q 128 43 133 50 q 119 47 125 49 q 111 54 113 46 l 89 54 q 90 61 89 57 q 82 62 86 61 q 75 60 78 63 q 58 59 65 56 q 43 65 50 63 q 38 69 40 68 q 33 71 36 69 q 25 74 25 74 q 19 87 22 81 q 14 99 17 93 q -8 148 -4 122 q -8 200 -11 174 q -1 228 -6 215 q 8 256 4 242 q 58 343 26 303 q 167 456 106 406 q 180 469 174 463 q 189 486 186 475 q 192 490 189 488 l 232 458 q 243 444 235 446 q 263 439 251 442 q 279 433 271 438 q 294 426 288 429 q 300 421 299 425 q 303 415 301 418 q 306 407 304 411 q 301 393 300 401 q 293 381 301 385 q 285 376 289 378 q 274 372 281 375 l 317 367 q 344 349 332 364 q 352 334 351 342 q 353 317 353 326 l 350 254 q 344 207 350 228 q 342 193 342 200 q 342 179 343 186 q 339 148 340 164 q 335 117 338 132 q 332 98 333 107 q 328 79 331 89 q 336 68 325 69 l 333 75 q 340 69 340 74 q 339 60 340 65 l 399 101 q 401 94 401 96 q 429 127 414 114 q 461 151 444 140 l 431 117 l 415 101 q 432 103 428 101 q 433 110 433 104 l 444 118 m 153 -301 q 147 -299 147 -299 q 155 -289 149 -292 q 161 -279 161 -286 q 149 -283 153 -276 l 142 -297 q 132 -315 138 -307 q 115 -322 126 -322 q 115 -311 115 -317 q 117 -299 115 -306 q 117 -295 117 -296 q 118 -292 118 -294 q 128 -270 124 -281 q 138 -249 133 -260 q 142 -229 142 -240 q 145 -210 144 -219 q 150 -192 146 -201 q 151 -181 153 -186 q 147 -167 150 -175 q 140 -175 143 -172 q 135 -181 136 -178 q 122 -197 132 -190 q 108 -218 108 -207 q 94 -235 108 -233 q 86 -244 83 -235 q 81 -259 88 -253 q 78 -274 75 -265 l 78 -275 l 76 -276 q 68 -287 72 -282 q 61 -297 64 -292 q 50 -312 56 -304 q 40 -326 44 -319 q 24 -360 29 -343 q 13 -396 18 -376 q 11 -397 13 -396 l 7 -394 q 0 -414 -1 -403 q -1 -428 1 -419 l -19 -496 l -36 -562 q -37 -579 -37 -571 q -35 -596 -37 -587 q -19 -588 -25 -596 q -4 -579 -14 -581 l -4 -576 q 11 -562 -3 -565 q 7 -558 8 -560 q 3 -554 6 -557 l 26 -535 q 25 -528 26 -529 l 43 -514 q 48 -509 46 -511 q 53 -507 50 -507 q 67 -500 64 -507 q 74 -486 71 -493 q 80 -470 76 -478 q 92 -457 83 -462 q 90 -454 92 -457 q 81 -458 86 -457 q 74 -462 76 -460 l 61 -478 q 57 -481 58 -482 q 53 -479 56 -479 q 71 -451 61 -464 q 89 -425 81 -439 q 104 -395 99 -410 q 117 -365 110 -381 q 119 -366 118 -365 q 121 -367 119 -367 q 115 -379 118 -371 q 133 -363 126 -372 q 150 -349 139 -354 l 150 -347 q 151 -346 150 -346 q 151 -344 151 -346 q 153 -340 153 -343 l 147 -340 q 156 -317 150 -329 q 160 -293 161 -306 q 156 -303 157 -299 q 153 -312 156 -308 q 144 -313 147 -312 q 136 -314 140 -314 l 136 -312 l 153 -301 m 138 253 q 140 264 140 260 q 138 275 140 268 l 124 256 l 119 267 q 106 247 106 257 q 103 239 103 242 q 85 203 94 221 q 76 165 76 186 q 75 163 76 165 q 81 138 68 150 l 110 165 l 110 169 q 112 191 108 181 q 126 208 115 201 q 128 221 126 217 q 132 238 131 229 q 138 253 133 246 m 199 274 q 206 288 203 281 q 203 304 210 294 l 183 276 q 169 267 176 269 q 153 244 158 263 q 156 239 153 244 l 172 249 q 172 240 172 243 q 171 233 171 238 l 199 274 m 142 -401 q 131 -414 135 -408 q 121 -425 126 -419 l 118 -432 l 103 -465 q 106 -467 104 -465 q 113 -459 108 -462 q 119 -450 117 -456 l 135 -417 l 142 -401 m 271 -165 q 259 -167 264 -167 q 250 -168 254 -168 q 242 -181 243 -174 q 239 -194 242 -187 q 250 -186 250 -194 q 257 -175 250 -176 l 253 -193 q 265 -181 265 -190 q 271 -165 265 -172 m -132 -615 q -131 -608 -132 -611 q -131 -601 -131 -606 l -140 -604 q -139 -610 -139 -607 q -132 -615 -139 -614 m 86 -529 q 92 -522 88 -525 q 93 -512 96 -519 l 83 -526 q 86 -529 83 -526 m 489 175 q 481 168 483 169 q 478 169 479 168 l 483 179 l 489 175 m 465 136 q 446 125 460 124 q 465 136 456 129 m 97 -510 q 103 -497 100 -506 q 101 -497 101 -497 q 100 -496 101 -496 q 96 -501 100 -499 q 97 -510 92 -503 m 115 -481 q 108 -486 106 -476 q 111 -487 108 -486 l 115 -481 m 250 -168 q 250 -157 258 -162 l 250 -168 m 168 -115 q 167 -112 168 -114 l 163 -115 q 161 -119 163 -118 q 163 -120 163 -119 q 164 -121 163 -121 l 168 -115 m 449 104 l 451 104 l 447 97 q 444 100 447 97 l 449 104 m -33 -337 q -37 -344 -39 -337 l -33 -337 z "},"c":{"ha":579,"x_min":3,"x_max":625,"o":"m 625 224 q 614 217 619 221 q 608 204 608 213 q 604 200 608 201 q 597 196 600 199 l 582 179 q 574 175 579 176 q 568 168 569 174 q 563 165 568 165 q 538 153 549 163 q 515 138 526 144 l 450 100 q 440 96 444 97 q 428 93 435 94 q 503 147 468 117 q 567 213 538 176 q 541 208 554 208 q 517 200 528 208 q 510 196 517 199 q 499 194 501 196 q 466 163 482 178 q 432 132 450 147 q 401 108 417 119 q 369 86 385 97 q 336 71 354 75 q 299 65 318 67 q 172 81 236 61 q 120 105 144 89 q 75 142 96 121 q 33 190 54 163 q 13 232 19 210 q 4 278 7 254 q 3 297 3 288 q 3 318 3 307 q 40 431 3 378 q 88 482 61 460 q 96 489 92 486 q 107 496 100 492 q 101 504 104 499 q 104 506 103 506 q 117 508 110 504 q 133 517 125 513 q 149 526 142 522 q 161 529 157 531 q 174 534 164 528 q 188 539 185 540 q 213 532 199 531 q 243 537 228 533 q 274 543 258 540 q 301 542 289 546 q 331 531 313 538 q 367 514 350 524 q 394 490 383 504 q 403 460 406 476 q 397 445 401 454 q 389 427 393 436 q 384 410 385 418 q 389 401 383 403 q 376 400 385 400 q 304 407 342 399 q 279 413 292 410 q 254 418 267 415 q 233 410 240 419 q 186 356 211 379 q 178 348 182 353 q 171 339 174 343 q 149 300 156 321 q 143 256 143 279 q 163 190 146 221 q 214 151 182 163 q 238 145 225 147 q 261 142 250 143 q 303 138 282 139 q 346 136 324 136 q 424 151 385 136 q 443 163 435 156 q 460 176 451 169 l 511 222 l 511 225 q 517 228 514 228 q 522 232 519 229 l 528 239 q 515 236 521 239 q 503 232 510 233 l 547 269 q 574 275 560 279 q 593 272 583 272 q 613 265 603 272 q 621 253 621 261 l 625 224 z "},"j":{"ha":581,"x_min":3,"x_max":650,"o":"m 650 196 q 647 190 650 189 q 640 188 643 190 l 625 178 l 643 174 q 642 165 643 169 q 640 154 642 161 q 626 147 631 157 q 615 142 622 140 q 596 126 599 142 l 581 114 l 563 101 q 525 72 543 86 q 492 39 507 58 q 477 16 483 28 q 468 -10 471 4 q 464 -31 467 -21 q 463 -53 461 -42 l 463 -82 q 463 -103 463 -93 q 464 -124 464 -112 q 465 -138 464 -131 q 458 -153 465 -146 q 453 -173 458 -164 q 456 -193 447 -182 q 456 -201 458 -196 q 454 -211 454 -207 q 453 -224 453 -215 l 457 -224 q 460 -214 457 -219 q 464 -218 460 -214 l 474 -206 q 474 -218 476 -214 q 471 -228 471 -222 l 468 -228 l 464 -222 q 458 -237 457 -229 q 456 -256 458 -246 q 467 -243 463 -246 q 469 -235 471 -240 q 474 -229 467 -231 q 483 -268 486 -247 q 483 -285 482 -276 q 482 -301 483 -293 q 482 -323 481 -312 q 483 -344 483 -333 q 484 -353 483 -349 q 483 -360 485 -357 q 481 -372 481 -367 q 482 -383 481 -376 q 485 -401 483 -392 q 483 -417 486 -410 q 479 -433 482 -425 q 465 -442 476 -442 l 444 -494 q 443 -500 444 -497 q 442 -506 442 -503 q 442 -514 443 -510 q 439 -524 440 -518 q 438 -533 438 -528 q 440 -546 439 -539 l 458 -522 q 467 -511 463 -517 q 478 -499 472 -506 q 465 -537 481 -525 l 458 -546 q 446 -556 454 -554 q 435 -559 440 -557 q 429 -568 431 -561 q 426 -573 429 -571 q 421 -578 422 -575 q 415 -589 418 -585 q 404 -594 411 -593 l 399 -601 q 393 -607 396 -604 q 388 -612 390 -610 q 375 -632 374 -618 q 358 -634 364 -629 q 346 -644 353 -639 q 321 -658 336 -657 l 335 -642 l 322 -633 l 303 -642 q 315 -622 310 -632 q 318 -597 321 -612 q 304 -610 311 -604 q 290 -622 297 -617 q 284 -628 288 -625 q 274 -628 281 -632 q 283 -622 283 -625 q 297 -608 289 -612 q 311 -596 304 -603 q 335 -556 335 -579 q 334 -546 335 -550 q 335 -537 333 -542 q 344 -517 335 -524 q 350 -509 350 -512 q 349 -500 350 -506 l 364 -483 l 358 -481 q 360 -478 360 -479 q 383 -444 376 -462 q 393 -404 390 -425 q 397 -325 397 -365 q 398 -283 399 -304 q 397 -239 397 -261 q 398 -224 397 -232 q 397 -208 399 -215 l 393 -146 q 391 -126 392 -136 q 390 -106 390 -117 l 379 -118 q 379 -101 378 -108 q 374 -86 381 -93 l 358 -103 l 314 -167 q 279 -236 292 -200 q 276 -251 276 -243 q 274 -267 275 -260 l 268 -286 q 261 -301 265 -294 q 254 -317 257 -308 q 250 -339 250 -328 q 248 -360 251 -350 q 242 -381 244 -369 q 240 -395 240 -387 q 247 -408 239 -403 q 242 -429 244 -415 q 236 -427 235 -431 q 235 -421 238 -424 q 222 -415 231 -415 l 228 -428 l 211 -415 q 208 -422 208 -421 q 206 -396 203 -408 q 214 -369 210 -383 q 215 -349 218 -357 q 215 -337 214 -343 q 215 -326 215 -332 q 210 -312 215 -315 q 210 -306 206 -310 l 224 -260 l 232 -300 q 239 -282 240 -290 q 236 -265 238 -274 q 239 -224 231 -244 q 259 -181 247 -201 q 282 -140 271 -160 q 289 -131 285 -135 q 296 -121 293 -126 q 306 -102 301 -111 q 318 -83 311 -93 q 329 -69 324 -76 q 338 -54 335 -62 q 340 -51 338 -51 q 344 -47 343 -50 q 346 -40 346 -46 q 361 -28 361 -40 q 360 -17 361 -22 q 357 -8 358 -12 q 351 2 354 -3 q 350 14 349 7 q 348 20 350 17 q 344 26 346 24 q 354 46 354 31 q 351 63 354 56 q 343 78 347 71 q 339 81 340 81 q 329 84 331 78 q 325 96 328 90 l 304 156 q 288 181 300 169 l 288 194 l 278 186 q 274 198 275 189 q 275 213 272 207 q 270 217 272 215 q 267 222 268 218 q 256 256 261 239 q 243 288 250 272 l 236 301 q 215 267 225 283 q 193 235 204 250 q 172 205 183 219 q 146 181 161 190 q 133 171 138 175 l 135 169 q 131 171 132 169 q 121 176 124 176 q 111 172 118 176 q 90 172 100 164 q 47 173 75 165 q 3 197 18 181 l 19 201 q 15 206 15 206 q 14 213 13 210 q 19 215 14 215 q 33 213 28 213 q 45 213 42 211 q 51 224 49 215 l 76 288 l 94 324 l 106 344 q 108 333 113 339 q 107 322 104 328 q 97 314 107 321 q 97 306 97 311 q 90 297 97 300 l 93 286 q 96 286 96 286 q 113 307 104 297 q 129 329 122 317 q 144 347 136 339 q 160 364 151 356 l 165 372 q 182 397 172 386 q 200 418 192 407 q 207 424 203 421 q 215 431 211 426 l 219 438 q 205 442 213 442 q 190 440 197 442 q 206 446 197 447 q 224 443 215 444 q 242 440 233 443 q 260 436 250 438 q 276 430 268 435 q 290 422 283 425 q 294 419 293 421 q 299 418 296 418 q 311 406 308 417 q 325 369 315 386 q 346 338 335 353 q 355 323 351 331 q 361 307 358 315 q 367 292 364 300 q 374 276 369 283 q 381 261 378 269 q 388 244 385 253 q 390 234 390 239 q 392 224 390 229 l 394 211 q 395 207 394 208 q 396 203 396 206 q 396 185 393 193 q 401 169 399 178 q 405 170 404 169 q 408 171 406 171 l 417 126 q 421 104 419 115 q 424 82 422 93 q 437 92 435 85 q 436 111 439 100 l 446 103 q 465 119 456 111 q 482 138 474 128 q 490 142 486 142 q 499 142 494 142 l 499 140 q 500 138 499 138 l 503 138 q 509 147 510 139 q 517 153 508 154 q 527 155 524 151 q 535 161 531 158 l 551 174 l 569 186 q 580 192 575 189 q 588 203 585 196 q 592 206 589 206 q 599 210 596 207 q 606 215 604 213 l 582 211 q 592 218 586 218 q 601 221 597 218 q 611 224 607 224 q 618 218 615 224 l 633 222 l 640 194 q 650 196 646 194 m 171 546 q 147 551 158 549 q 122 556 135 554 q 75 567 103 557 q 85 571 83 569 q 90 574 88 572 q 97 577 93 576 q 107 581 101 578 q 108 589 107 586 q 110 592 108 590 q 111 592 111 593 q 117 591 115 589 q 119 596 118 593 q 131 609 125 603 q 139 622 136 615 q 151 657 146 638 l 160 708 q 163 718 160 710 q 176 708 172 717 l 189 689 q 219 674 201 669 q 224 672 222 674 q 229 669 226 671 q 240 663 233 665 q 249 653 246 660 q 254 650 249 650 q 264 647 260 650 q 274 637 271 643 q 281 625 278 631 q 278 617 282 621 q 267 593 268 606 q 261 579 267 588 q 242 551 253 565 q 229 550 240 550 q 230 565 229 557 q 231 581 231 572 l 225 575 l 217 560 q 210 557 214 557 q 204 556 207 558 q 199 554 201 554 q 185 551 192 551 q 171 551 178 551 l 171 546 m 260 -629 q 267 -631 263 -626 q 274 -628 271 -635 q 269 -637 271 -636 q 256 -637 267 -639 q 261 -646 258 -640 q 251 -660 250 -651 q 250 -678 251 -669 q 232 -687 240 -682 q 215 -696 224 -692 l 179 -696 l 193 -681 q 183 -678 185 -678 q 186 -673 185 -675 q 188 -669 188 -671 q 184 -644 185 -657 q 181 -621 183 -632 q 172 -572 174 -597 q 171 -524 171 -547 q 170 -509 169 -517 q 172 -494 171 -501 q 172 -509 172 -501 q 174 -524 172 -517 q 181 -551 174 -535 q 184 -527 179 -539 q 182 -503 189 -515 q 190 -490 189 -497 q 192 -476 190 -483 q 197 -456 194 -465 q 203 -435 199 -446 l 203 -440 l 199 -481 q 200 -492 197 -486 l 206 -515 q 215 -535 208 -528 l 219 -522 q 229 -523 225 -522 q 235 -531 233 -524 l 229 -543 q 236 -544 233 -543 q 242 -544 239 -544 q 255 -572 249 -558 q 268 -599 261 -585 q 261 -615 257 -603 q 261 -622 263 -618 q 260 -629 260 -625 m 306 -154 q 308 -144 308 -149 q 304 -136 307 -140 q 281 -167 290 -151 q 269 -204 271 -183 l 261 -200 l 265 -217 l 306 -154 m 369 -71 q 372 -60 372 -65 q 370 -52 371 -57 q 363 -47 369 -47 l 351 -65 q 356 -72 358 -68 q 350 -78 353 -75 q 338 -97 342 -86 q 333 -103 335 -100 q 328 -111 331 -107 q 324 -116 325 -114 q 322 -121 324 -118 q 323 -122 322 -122 q 324 -124 324 -122 l 329 -121 q 349 -96 339 -108 q 369 -71 358 -83 m 253 -474 q 253 -480 253 -476 q 251 -499 254 -483 q 247 -485 249 -492 q 240 -474 244 -478 q 235 -462 235 -467 q 239 -453 236 -458 q 240 -450 239 -451 q 249 -460 246 -456 q 253 -474 253 -465 m 206 -540 q 210 -560 207 -551 q 226 -575 214 -568 l 222 -553 q 219 -542 221 -544 q 206 -540 217 -540 m 508 94 q 535 112 521 103 q 561 135 549 121 q 530 119 542 131 q 508 94 518 108 m 182 438 q 189 439 185 439 q 153 406 182 414 l 182 438 m 557 117 l 554 121 q 549 118 551 118 q 544 115 547 118 q 532 103 539 108 q 518 92 525 99 q 515 89 518 92 q 516 88 515 88 q 517 86 517 88 l 557 117 m 450 -276 q 440 -283 440 -279 q 446 -297 439 -286 l 450 -276 m 381 -75 q 382 -85 383 -81 q 388 -96 381 -90 l 385 -75 l 381 -75 m 138 392 q 137 381 139 383 q 128 378 135 379 l 138 392 m 203 -356 q 197 -347 196 -351 q 199 -339 199 -343 l 201 -339 q 203 -356 201 -350 m 311 -135 q 319 -126 319 -136 l 311 -135 m 283 -601 q 275 -608 281 -603 q 274 -607 275 -607 q 274 -606 274 -607 q 282 -599 276 -604 q 283 -600 282 -600 q 283 -601 283 -600 m 224 407 q 228 408 226 407 q 232 408 229 408 l 232 411 q 222 408 228 411 l 224 407 m 196 -367 q 197 -372 197 -368 l 196 -372 q 194 -367 194 -371 l 196 -367 m 189 439 q 190 440 189 439 l 190 439 l 189 439 z "},"b":{"ha":450,"x_min":1,"x_max":435,"o":"m 4 647 l 4 690 q 6 717 6 704 q 7 742 7 729 q 12 793 10 768 q 15 844 14 818 q 19 899 18 872 q 21 954 19 926 l 24 1026 q 26 1055 25 1042 q 28 1083 28 1068 q 28 1103 29 1093 q 28 1124 26 1113 q 28 1153 28 1139 q 29 1182 28 1167 q 28 1195 29 1189 q 18 1206 26 1201 q 50 1210 35 1213 q 81 1210 65 1207 l 89 1190 q 97 1190 93 1190 q 104 1183 101 1189 q 97 1169 107 1175 q 106 1151 108 1164 q 101 1133 103 1142 q 97 1113 99 1124 q 108 1136 107 1124 q 118 1163 108 1147 q 122 1140 126 1150 q 117 1118 118 1129 q 111 1117 114 1117 q 107 1114 108 1117 q 102 1103 104 1108 q 97 1093 100 1099 q 100 1076 103 1085 q 100 1057 97 1067 q 103 1054 100 1057 q 108 1067 111 1060 q 115 1090 106 1081 l 128 1101 q 128 1099 128 1100 q 129 1094 129 1097 q 132 1071 131 1083 q 132 1047 133 1058 q 130 1019 129 1033 q 131 992 131 1006 q 131 973 129 982 q 132 954 132 964 l 128 907 q 126 890 126 899 q 126 874 125 882 q 127 851 128 863 q 126 828 126 839 l 126 757 q 128 746 126 749 q 130 722 131 733 q 128 697 129 710 q 124 678 125 688 q 124 660 122 669 q 120 645 124 651 q 113 633 117 639 q 104 619 106 626 q 101 604 103 611 q 99 593 100 599 q 90 582 97 588 q 92 596 92 589 q 96 610 92 603 q 97 636 101 619 q 89 628 90 632 l 68 592 q 65 578 64 585 q 69 564 67 572 l 81 581 l 83 560 l 68 533 q 71 489 76 511 l 76 496 q 78 506 78 499 q 80 524 79 515 q 86 543 81 533 q 93 521 89 532 q 94 497 97 510 q 99 465 101 482 q 99 433 96 449 q 98 419 99 426 q 96 404 97 411 q 92 394 94 399 q 86 383 89 390 q 90 371 89 378 q 85 357 90 364 q 78 369 78 363 q 81 382 79 375 q 75 376 75 376 q 75 361 75 369 q 76 346 75 353 q 79 324 76 338 q 81 318 79 319 q 94 293 92 307 q 101 267 97 279 q 110 229 106 247 q 122 194 114 211 q 128 177 126 186 q 133 160 131 168 q 142 158 136 158 l 160 208 q 160 192 163 199 q 161 178 158 185 q 164 182 164 181 q 178 217 168 201 q 199 249 189 232 q 207 258 206 256 q 211 266 210 263 q 214 274 213 269 q 226 282 215 282 q 236 294 236 283 q 249 296 244 292 q 261 303 254 300 q 268 307 264 306 q 271 315 272 308 q 254 308 257 318 q 244 306 251 299 q 240 305 242 306 q 236 304 239 304 l 242 318 q 232 306 229 317 q 231 298 232 301 q 222 294 229 294 q 218 292 221 294 l 207 281 q 199 264 199 272 q 196 256 197 260 q 192 246 194 251 q 190 244 192 244 l 188 244 q 179 242 181 246 q 175 233 178 238 l 164 207 q 163 219 161 214 q 163 231 164 225 q 174 241 169 233 q 176 257 179 249 q 188 282 172 274 q 197 297 197 289 q 198 306 197 303 q 206 311 199 310 q 208 313 208 311 q 211 318 208 315 q 224 322 215 326 q 222 314 222 319 q 229 322 229 317 q 232 333 231 328 q 240 340 233 338 q 263 348 251 344 q 286 357 275 351 q 311 361 299 364 q 336 358 324 358 q 342 355 339 357 q 347 350 344 353 q 357 342 350 349 q 356 354 357 350 q 400 344 382 358 q 431 290 426 322 q 433 272 432 281 q 432 251 433 263 q 433 233 431 242 q 435 213 435 224 q 434 204 435 208 q 433 194 433 200 l 425 147 q 419 164 422 158 q 413 159 414 163 q 408 153 411 156 q 405 141 407 146 q 400 131 403 136 q 399 127 400 128 q 397 124 397 126 q 394 109 397 115 q 385 96 390 103 q 383 82 381 92 q 383 66 386 72 q 374 53 379 60 q 363 40 369 46 q 353 25 357 33 q 326 7 343 8 q 315 1 319 6 q 303 -3 310 -4 q 292 4 292 -3 q 281 -7 283 3 q 268 -22 276 -17 q 250 -31 260 -28 q 237 -35 243 -33 q 228 -44 231 -36 q 224 -46 228 -46 q 216 -50 218 -44 q 207 -54 214 -56 l 204 -76 l 204 -81 q 200 -83 201 -83 q 185 -82 192 -79 q 172 -89 179 -85 q 167 -92 169 -90 q 163 -93 165 -93 q 137 -98 150 -96 q 111 -103 124 -100 q 92 -103 100 -106 q 75 -94 83 -100 q 68 -87 71 -92 q 63 -78 65 -82 q 49 -44 54 -61 q 39 -10 44 -26 l 33 1 q 33 8 33 4 q 35 15 32 13 q 36 31 38 22 q 31 73 33 51 q 28 115 29 94 q 26 134 26 125 q 29 153 26 143 q 30 158 31 156 q 29 164 29 161 l 25 167 l 21 158 l 19 158 l 22 189 q 26 182 22 188 q 25 202 26 193 q 25 219 24 211 q 22 250 26 235 q 19 282 18 265 q 22 313 22 297 q 21 344 21 329 q 19 383 19 364 q 18 422 18 403 q 19 449 18 436 q 19 475 19 463 q 21 492 21 483 q 17 507 21 500 q 15 500 15 504 q 11 493 14 496 l 10 493 q 7 501 7 499 q 8 515 8 511 q 4 529 7 519 q 6 543 1 538 q 8 551 8 546 q 10 560 8 556 q 13 565 11 563 q 17 572 14 568 q 15 594 11 581 q 6 604 17 606 l 6 636 q 5 642 6 639 q 4 647 4 644 m 307 274 q 300 275 301 274 q 297 280 297 278 q 296 285 297 282 q 260 296 285 314 l 251 290 q 238 279 243 286 q 226 265 232 272 q 219 252 222 258 q 213 239 215 246 q 200 213 204 226 q 193 185 196 199 q 190 169 190 176 q 188 153 189 161 q 186 132 185 139 l 189 100 q 193 85 189 93 q 204 69 197 76 q 202 82 206 76 q 206 94 199 88 q 210 83 210 89 q 211 71 211 78 q 210 33 210 51 q 215 -7 211 14 l 236 17 q 254 44 247 29 q 275 69 261 58 q 276 72 276 69 q 285 108 289 92 q 285 110 285 110 q 286 113 286 111 q 289 107 288 110 q 293 101 290 104 q 298 122 296 113 q 304 142 300 132 q 308 160 310 150 q 313 176 306 169 l 324 176 l 311 193 l 319 204 q 322 200 319 200 q 325 197 322 197 q 324 204 325 200 q 325 211 324 208 q 323 217 325 215 q 319 222 321 219 q 314 214 315 218 l 311 235 q 321 231 318 228 q 326 236 324 233 l 339 222 q 337 236 339 232 q 325 240 335 240 q 322 242 322 239 q 324 247 321 244 q 332 242 329 244 q 326 254 331 250 q 315 264 321 258 l 315 243 q 310 253 313 247 q 306 261 308 258 q 304 268 303 265 q 307 274 306 271 m 278 338 q 281 340 281 340 q 299 344 290 342 q 317 342 307 346 l 326 339 q 290 353 311 354 q 251 333 269 351 q 260 335 257 335 q 268 336 264 336 q 267 333 268 335 q 267 328 267 331 l 297 338 l 297 340 q 288 340 292 340 q 278 338 283 339 m 246 11 q 257 23 251 18 q 267 35 263 28 q 276 48 272 42 q 278 64 279 54 q 275 60 275 61 l 246 18 q 246 11 246 18 m 22 638 q 26 642 25 640 q 28 647 26 644 l 13 656 q 13 644 14 649 q 6 635 13 639 q 15 628 13 628 q 22 638 17 629 m 326 172 q 321 150 303 165 l 326 172 m 307 274 q 318 272 313 267 l 307 286 q 304 285 306 286 l 307 274 m 263 328 q 252 328 256 331 q 243 318 249 326 q 263 328 250 318 m 246 11 q 235 8 238 14 q 231 -1 233 1 q 231 -3 231 -3 q 232 -4 232 -3 l 246 11 m 29 668 l 33 683 q 29 668 24 678 m 51 563 l 56 574 q 51 563 46 571 m 29 668 q 26 657 24 663 q 29 663 29 660 q 29 668 29 665 m 25 168 q 28 169 25 169 q 27 174 28 172 q 26 178 26 175 q 24 176 25 176 q 25 168 24 171 m 293 79 l 296 79 l 293 89 q 290 88 292 88 l 293 79 m 283 325 q 293 325 288 318 l 283 325 z "},"a":{"ha":450,"x_min":1,"x_max":481,"o":"m 481 0 l 471 -8 q 471 -16 471 -11 q 469 -25 471 -21 q 462 -29 463 -24 q 456 -36 461 -35 q 449 -41 451 -37 q 440 -42 446 -44 q 436 -42 439 -40 q 432 -47 433 -44 q 431 -58 431 -50 q 424 -59 428 -58 q 418 -60 421 -60 q 383 -54 400 -58 q 353 -36 367 -50 q 346 -33 350 -33 q 339 -31 342 -32 q 321 -6 321 -25 q 318 6 321 0 l 293 36 q 297 49 303 40 q 290 60 294 56 q 281 71 285 65 l 281 56 q 275 63 274 58 q 274 74 276 68 q 281 72 276 72 l 269 90 l 265 86 l 247 118 q 244 117 247 118 l 265 64 l 256 60 q 242 96 247 78 q 225 132 236 114 q 219 115 222 122 q 214 100 217 107 q 201 69 207 85 q 182 42 196 54 l 182 40 q 163 19 175 25 q 138 6 151 13 l 131 1 q 126 5 128 4 q 122 7 124 6 q 116 3 119 6 q 110 1 113 1 q 91 5 100 4 q 75 11 82 6 q 53 22 64 18 q 32 33 43 26 q 7 69 11 46 q 3 144 1 107 q 18 217 6 181 q 32 251 25 235 q 46 285 39 268 l 83 360 q 102 388 90 375 q 126 413 114 401 q 135 418 128 414 l 172 425 l 203 432 q 226 433 214 435 q 249 431 238 431 q 256 431 251 432 q 263 428 260 429 q 263 419 263 424 q 264 411 264 415 l 213 394 q 157 350 176 382 q 145 334 151 342 q 133 317 139 326 q 119 294 126 306 q 110 267 113 282 q 106 251 108 260 q 100 236 103 243 q 100 215 97 225 q 107 211 100 214 l 101 164 l 108 164 l 110 163 q 105 140 107 151 q 103 117 103 128 q 85 108 103 110 q 90 119 88 114 q 94 131 92 124 l 85 140 l 75 117 l 72 93 q 67 100 68 96 q 65 124 67 104 l 57 114 q 58 117 57 117 q 58 119 58 118 q 61 136 60 128 q 68 153 63 144 q 70 164 71 157 q 69 178 69 171 q 62 172 63 175 q 60 165 61 168 q 53 140 60 154 q 49 124 50 133 q 46 107 47 115 q 47 88 46 97 q 50 68 49 78 q 60 65 56 67 q 71 61 64 64 q 83 78 76 67 q 99 101 90 90 q 111 128 108 113 q 116 134 113 131 q 122 140 119 138 l 156 197 l 171 235 l 179 249 q 190 263 185 256 q 199 279 196 271 q 217 294 204 293 l 282 307 q 310 307 296 311 q 323 305 317 304 q 336 306 329 306 q 352 303 344 306 q 364 292 360 301 q 368 288 364 288 q 376 280 375 285 q 376 269 376 275 q 378 231 376 250 q 383 192 381 211 q 386 185 385 189 q 389 178 388 182 q 399 140 394 158 q 414 104 404 122 q 419 88 417 97 q 426 72 421 79 q 444 46 435 58 q 463 21 453 33 l 481 0 m 274 35 q 283 25 279 31 q 289 17 286 19 q 281 19 283 17 q 277 26 278 22 q 274 35 276 31 m 53 63 q 64 51 53 51 l 53 63 m 274 38 q 269 46 269 43 q 271 56 268 49 q 274 38 271 49 m 297 6 q 290 9 290 8 q 289 17 289 10 l 297 6 z "},"f":{"ha":450,"x_min":3,"x_max":532,"o":"m 58 -81 q 61 -53 68 -64 q 59 -47 58 -50 q 58 -42 60 -44 q 57 -33 58 -35 q 47 -29 56 -32 q 45 -6 46 -18 q 44 19 44 7 q 45 22 44 21 q 46 25 46 24 q 47 33 46 29 q 46 40 47 38 q 40 52 39 46 q 44 67 42 58 l 56 42 q 60 58 58 50 q 63 72 61 65 q 65 115 65 93 q 68 158 65 136 q 68 165 68 165 q 66 181 64 174 q 71 194 68 188 q 74 203 74 199 q 75 213 74 208 q 81 256 79 235 q 85 300 82 278 q 87 316 86 308 q 90 332 88 324 q 94 338 92 335 q 97 347 96 342 q 100 368 100 361 l 104 390 l 108 414 l 113 435 l 117 457 q 119 467 119 463 q 121 478 119 472 q 122 481 122 481 q 126 490 124 486 q 125 501 128 494 q 118 492 118 494 q 122 481 118 489 q 114 476 115 481 q 111 468 113 472 q 108 453 108 461 q 106 439 107 446 l 101 413 q 99 394 99 403 q 96 375 99 385 q 94 367 94 372 q 86 364 93 363 l 83 358 l 76 353 q 78 374 78 364 q 79 393 79 383 l 76 393 q 75 378 76 383 q 68 365 74 374 l 53 379 q 3 343 36 353 q 18 364 11 354 q 32 385 25 374 q 40 395 36 390 q 46 406 43 400 q 55 426 50 417 q 64 444 60 435 q 71 468 71 456 q 74 479 72 474 q 82 488 75 485 q 79 504 93 494 l 92 535 l 92 539 q 90 545 89 542 q 94 551 92 549 q 107 585 110 563 q 108 589 107 588 q 113 594 110 590 l 117 576 q 124 589 121 579 l 136 638 q 140 658 142 649 q 142 666 140 661 q 146 675 144 671 q 149 681 149 678 q 155 701 149 692 q 163 719 161 710 q 167 740 164 731 q 171 760 169 749 q 173 776 172 768 q 176 790 174 783 q 188 831 183 810 q 206 869 193 851 q 201 883 200 876 q 203 896 203 889 q 206 909 204 903 q 215 919 208 915 q 217 928 222 922 q 218 943 213 933 l 246 989 l 238 999 l 247 999 l 242 1010 q 242 1014 238 1014 q 247 1015 243 1015 q 265 1008 257 1013 q 282 1001 274 1004 q 304 978 297 996 q 315 926 314 950 q 316 920 315 924 q 317 913 317 917 q 319 875 321 892 q 313 827 317 851 q 306 779 310 803 q 301 761 304 769 q 296 743 299 753 q 288 708 292 725 q 282 672 283 690 q 278 651 281 661 q 272 631 275 642 l 269 613 q 256 562 261 588 q 242 513 251 536 l 235 486 l 224 433 l 207 367 q 201 349 204 357 q 196 332 199 342 l 189 300 l 249 285 l 258 282 q 282 270 269 272 q 308 267 294 268 q 364 274 335 263 q 426 290 394 283 q 489 303 457 297 l 522 307 q 527 308 525 308 q 532 307 529 307 q 531 285 532 292 q 524 274 531 278 q 508 247 510 263 q 495 222 506 231 q 472 207 485 214 q 368 186 422 183 l 317 186 q 321 169 319 178 q 324 154 322 161 q 329 128 326 142 q 335 103 332 115 q 338 76 338 89 q 340 50 339 64 l 340 33 q 340 25 340 29 q 343 17 340 21 q 345 9 346 14 q 346 0 344 4 l 349 -31 q 353 -67 353 -49 q 357 -106 354 -86 l 361 -160 l 365 -204 l 375 -272 l 375 -285 q 378 -316 375 -300 q 382 -347 381 -332 q 386 -363 383 -356 q 390 -379 389 -371 q 394 -410 393 -394 q 393 -440 396 -425 q 374 -475 389 -461 q 364 -479 372 -476 l 315 -485 q 296 -487 306 -486 q 276 -489 286 -489 q 257 -483 268 -489 q 245 -476 250 -481 q 235 -468 240 -472 q 226 -462 229 -465 q 221 -451 222 -458 q 201 -426 219 -435 q 208 -442 200 -437 q 218 -458 217 -447 l 176 -419 l 186 -410 q 171 -389 178 -399 q 158 -367 164 -379 q 149 -351 156 -358 q 135 -337 142 -344 l 129 -340 q 126 -335 126 -339 q 129 -328 126 -331 q 108 -278 118 -303 q 86 -231 97 -254 q 79 -263 76 -246 q 79 -299 82 -281 q 74 -287 75 -293 q 74 -274 74 -281 q 71 -247 71 -260 q 68 -219 71 -233 q 67 -176 64 -201 q 61 -121 71 -151 q 58 -101 58 -111 q 58 -81 58 -90 m 218 -179 l 218 -142 l 214 -85 q 213 -69 213 -78 q 213 -54 213 -61 q 212 -40 214 -47 q 217 -25 210 -32 q 217 -19 217 -25 l 213 29 q 207 75 210 53 q 200 121 204 97 q 182 153 197 140 q 181 151 182 151 q 179 149 179 150 q 172 127 176 138 q 167 106 168 117 q 164 92 167 99 q 160 78 161 85 q 156 58 157 68 q 153 40 156 49 q 149 11 149 25 q 146 -18 149 -3 q 147 -29 144 -24 q 147 -40 149 -35 q 146 -63 143 -51 q 146 -86 149 -75 q 147 -87 146 -87 q 147 -89 147 -87 q 153 -114 153 -100 q 161 -139 154 -128 l 161 -143 q 165 -174 161 -158 q 174 -204 168 -189 q 188 -249 181 -228 q 204 -294 196 -271 q 210 -299 204 -294 l 206 -282 q 200 -260 203 -271 q 197 -237 197 -249 q 199 -217 199 -226 q 199 -199 199 -208 l 199 -182 q 200 -178 199 -179 q 203 -174 201 -176 l 211 -189 l 211 -176 q 215 -178 214 -178 q 218 -179 217 -178 m 207 -417 q 197 -404 201 -410 q 185 -396 193 -399 q 194 -408 192 -400 q 207 -417 196 -417 m 56 35 l 51 35 q 51 26 51 31 q 53 19 50 22 l 56 19 l 56 35 m 115 563 q 111 564 114 564 l 108 554 l 111 554 l 115 563 m 58 -81 l 64 -85 l 64 -78 l 58 -81 z "},"e":{"ha":533,"x_min":-53,"x_max":603,"o":"m 558 83 q 564 85 561 83 q 571 86 567 86 q 563 77 567 81 q 551 72 558 74 q 543 67 546 69 q 521 53 536 58 q 506 42 518 51 l 510 64 q 465 43 485 57 q 418 31 443 29 l 410 31 q 403 28 403 29 q 406 28 404 28 q 408 26 408 28 q 403 24 408 25 q 396 17 399 24 q 367 14 385 6 q 349 5 358 7 q 328 3 339 3 q 288 4 308 3 q 249 10 268 6 q 194 27 221 18 q 142 50 167 36 q 108 56 124 58 q 63 58 83 51 q 51 61 56 61 q 40 63 46 61 q -53 107 -17 69 q -52 117 -53 113 q -44 124 -51 121 q -53 136 -49 128 l -21 126 q 0 119 -14 125 q 47 125 26 107 q 47 132 47 128 q 46 139 46 136 q 30 148 35 142 q 19 163 25 154 l 21 163 q 33 163 28 163 q 43 171 39 164 l 13 219 q 1 246 6 232 q -10 272 -3 260 q -22 264 -18 275 l -33 269 q -32 301 -26 285 q -33 317 -35 308 q -32 333 -32 326 l -28 368 q -18 389 -28 381 q -8 406 -11 397 q -1 424 -4 414 q 63 536 22 486 q 101 571 75 550 q 165 608 128 592 q 248 632 201 625 q 346 626 294 639 q 362 621 354 624 q 375 611 369 618 q 376 606 378 608 q 371 601 374 604 q 365 594 368 597 q 365 590 363 592 q 381 584 375 590 q 397 576 388 578 q 407 569 401 575 q 431 550 417 556 q 443 531 443 547 q 446 515 443 524 q 453 478 453 500 q 448 439 453 457 q 433 401 443 421 q 427 390 431 394 q 421 378 424 385 q 418 361 418 369 q 418 345 418 353 q 416 330 418 338 q 407 317 414 322 l 386 297 q 379 294 383 294 q 371 290 375 293 q 365 287 368 289 q 358 282 361 285 q 346 275 351 279 q 336 264 340 271 q 329 254 333 258 q 326 243 325 250 q 322 235 326 236 q 316 225 315 229 q 317 217 317 221 q 318 209 318 213 q 311 201 318 206 q 295 189 301 197 q 282 174 289 181 q 218 114 251 143 q 224 110 221 111 q 229 107 226 108 l 311 83 q 334 83 322 81 q 357 89 346 85 q 380 98 368 93 q 403 106 392 103 q 413 108 411 107 q 414 110 414 110 q 415 113 414 111 q 425 117 417 114 q 508 149 468 131 q 589 188 549 167 q 597 190 594 190 q 597 162 603 181 q 585 136 592 143 q 593 135 589 131 l 585 101 q 583 99 585 100 l 585 97 l 582 83 q 571 86 576 83 l 571 99 q 560 96 561 97 q 558 83 558 94 m 149 207 q 185 243 168 225 q 218 283 203 261 q 222 275 226 279 q 221 264 218 271 q 226 268 226 267 q 234 280 229 275 q 246 289 239 285 q 252 294 249 290 q 258 300 256 297 q 260 308 265 308 q 263 317 256 308 q 279 340 271 328 q 294 363 288 351 q 319 429 313 390 q 307 454 321 446 q 301 457 304 457 q 296 464 296 458 q 297 477 296 469 q 299 492 297 485 q 299 504 300 499 q 294 512 299 506 q 285 526 290 518 q 276 539 281 533 q 271 547 272 544 q 266 544 268 544 q 261 542 264 544 q 241 528 250 536 q 221 514 232 521 q 194 492 207 503 q 172 467 181 482 q 163 455 168 460 q 153 443 158 450 q 147 422 149 435 q 142 392 144 408 q 137 360 140 376 q 126 331 133 344 q 113 287 115 308 q 114 242 111 265 q 119 222 117 231 q 124 201 122 213 q 128 196 125 199 q 135 196 132 193 q 142 201 138 199 q 149 207 146 203 m 551 122 q 567 133 563 132 q 583 136 571 135 q 582 142 582 138 q 565 140 571 143 q 551 129 558 136 q 551 122 544 125 m 306 21 q 332 18 321 17 q 354 22 343 19 q 344 23 349 22 q 332 22 339 24 q 319 22 325 22 q 306 21 314 21 m -11 236 q -14 231 -11 233 q -18 231 -17 228 q -19 239 -19 233 q -12 247 -18 242 q -12 241 -12 243 q -11 236 -11 239 m 585 97 l 585 101 l 588 104 q 590 100 588 103 q 585 97 588 100 m 283 15 l 276 15 q 279 14 278 14 q 283 13 281 14 l 283 15 m 311 10 q 309 10 310 10 q 307 11 308 11 q 306 10 307 11 l 311 10 z "},"L":{"ha":868,"x_min":-124,"x_max":875,"o":"m 874 40 q 874 31 875 33 q 865 26 872 29 q 853 22 858 24 q 840 22 847 21 q 829 19 835 22 q 817 18 824 17 q 781 19 799 19 q 744 22 763 19 q 712 26 728 24 q 681 29 696 28 q 642 28 661 29 q 603 26 622 28 l 585 26 q 528 22 557 24 q 472 17 500 19 q 432 15 453 15 q 392 11 411 14 q 363 9 376 10 q 333 6 349 8 q 326 3 332 6 l 326 -58 q 327 -77 326 -68 q 329 -97 328 -86 q 332 -118 329 -104 q 324 -135 333 -129 q 311 -147 313 -140 l 303 -151 q 290 -156 296 -154 q 278 -161 283 -157 q 259 -172 269 -168 q 239 -178 249 -175 q 222 -183 231 -181 q 204 -187 214 -185 q 185 -182 199 -175 q 183 -165 183 -172 q 182 -149 182 -157 l 158 -140 q 159 -129 158 -135 q 158 -118 160 -124 q 157 -112 158 -115 q 156 -106 156 -108 l 156 -92 l 147 -31 q 145 -18 146 -24 q 144 -6 144 -12 q 128 -5 136 -6 q 114 -6 121 -4 q 68 -9 90 -8 q 22 -7 46 -10 q -10 -1 6 -6 q -43 6 -26 3 q -108 29 -75 11 q -115 51 -124 38 q -104 58 -114 56 q -99 61 -101 61 q -94 64 -96 61 q -92 71 -93 67 q -93 81 -90 75 l -97 90 q -90 98 -93 94 q -83 107 -86 101 q -84 118 -83 113 q -86 131 -85 124 l -75 139 q -71 140 -72 139 q -68 140 -69 140 q -46 153 -49 136 q -42 160 -44 158 q -38 163 -40 161 q -37 167 -36 165 q -33 179 -37 175 q -24 188 -29 183 q -7 199 -15 194 q 7 215 1 204 l 15 219 q 44 235 31 226 q 69 254 57 243 q 78 264 76 261 q 107 317 93 288 q 118 352 114 335 q 128 388 122 369 q 134 407 132 397 q 140 428 136 417 q 146 469 146 446 q 149 544 146 507 q 158 618 151 582 q 167 660 163 639 q 175 701 172 681 q 176 716 176 708 q 175 731 175 724 q 172 747 172 742 q 178 761 172 757 q 181 765 181 763 q 188 769 182 768 q 193 785 199 772 q 197 806 190 797 q 199 807 197 806 l 199 808 q 197 815 192 813 q 199 824 201 818 q 196 822 197 822 q 192 821 194 822 q 192 829 192 825 q 193 836 193 833 q 194 857 190 847 q 193 878 197 867 q 191 898 190 888 q 192 919 192 908 q 192 941 192 931 q 193 963 193 951 q 192 964 192 963 l 192 967 q 182 969 186 969 q 182 972 182 972 q 183 976 182 975 q 183 978 183 976 q 181 994 179 986 q 183 1008 182 1001 l 188 1057 q 179 1071 188 1068 q 163 1078 174 1072 q 178 1117 174 1097 q 185 1158 182 1138 q 188 1172 188 1169 q 199 1178 189 1174 q 201 1178 200 1178 q 204 1179 203 1179 l 207 1189 q 222 1199 211 1199 l 267 1194 l 300 1190 q 308 1188 304 1189 q 315 1183 311 1186 q 333 1171 326 1179 q 351 1160 340 1163 q 354 1153 354 1160 q 349 1088 350 1121 q 343 1024 349 1056 q 335 938 335 979 l 335 926 q 334 903 335 915 q 332 881 333 892 q 330 860 332 869 q 331 839 328 850 q 334 824 332 832 q 335 808 336 817 q 334 797 335 803 q 335 786 333 792 q 338 739 336 763 q 342 692 339 715 l 344 654 q 346 641 344 647 q 347 628 347 635 l 351 597 q 354 543 353 569 q 356 489 356 517 q 354 449 356 469 q 351 410 353 429 q 351 394 350 403 q 350 379 351 386 q 347 343 349 361 q 343 307 346 325 q 341 288 342 297 q 340 269 340 279 q 336 225 338 247 q 333 179 335 203 q 332 144 332 161 q 332 107 332 126 l 379 107 l 468 113 l 572 119 q 585 119 579 119 q 599 121 592 119 q 617 139 615 122 q 626 135 621 136 q 638 132 631 135 l 631 149 l 640 149 q 646 150 644 149 q 649 153 649 151 q 651 158 649 156 q 657 159 654 160 q 661 160 660 158 q 669 165 665 165 q 679 163 674 164 l 706 150 q 758 126 732 138 q 810 101 785 114 q 828 92 819 96 q 844 81 838 88 q 863 63 853 71 q 874 40 872 56 m 114 90 q 124 91 119 90 q 136 93 129 92 q 135 103 136 99 q 135 113 135 108 q 135 148 135 131 q 136 182 135 165 q 129 192 136 192 q 126 188 126 189 q 122 174 124 181 q 115 163 119 167 q 110 153 108 157 q 114 146 111 150 q 92 120 101 135 q 72 90 83 106 l 114 90 m 206 1225 q 203 1230 203 1226 q 204 1239 204 1233 q 221 1237 213 1236 q 238 1233 229 1238 q 224 1224 233 1222 q 206 1225 218 1225 m 178 847 q 174 856 181 854 q 171 865 168 858 q 174 870 172 868 q 179 875 176 872 q 178 847 193 868 m 217 906 q 214 878 207 892 q 216 892 215 886 q 217 906 217 899 m 213 799 q 218 813 217 807 q 213 799 208 811 m 175 949 q 183 949 182 951 q 182 940 183 947 l 175 949 m 53 979 q 49 982 51 979 q 51 983 50 982 q 53 983 51 983 l 56 981 q 53 979 54 981 z "},"Z":{"ha":1156,"x_min":-103,"x_max":1321,"o":"m 1321 1167 q 1311 1151 1321 1154 q 1279 1127 1293 1144 q 1250 1097 1265 1110 q 1242 1082 1244 1093 q 1228 1060 1236 1065 q 1207 1051 1219 1056 l 1210 1042 q 1204 1024 1214 1028 q 1176 1002 1189 1017 q 1149 981 1164 988 l 1119 963 l 1093 946 q 1089 933 1089 943 q 1119 951 1104 942 q 1151 967 1135 960 q 1183 978 1167 974 q 1217 989 1200 983 q 1211 975 1214 978 q 1190 951 1200 963 q 1165 935 1181 939 q 1141 922 1153 932 q 1117 906 1129 913 q 1076 881 1097 893 q 1035 858 1056 869 l 1018 847 q 1008 841 1010 843 q 1003 829 1006 839 q 998 831 1000 829 q 993 829 996 832 q 971 812 982 821 q 949 793 960 803 q 947 790 947 792 q 943 788 946 789 q 922 775 932 785 q 901 754 913 765 q 878 735 890 743 q 853 717 865 726 q 839 703 846 710 q 824 693 832 696 q 813 675 818 689 q 790 656 806 664 q 774 642 782 650 q 758 628 767 635 q 744 611 751 621 q 726 604 738 601 q 724 603 724 607 q 706 586 717 590 q 686 572 696 582 q 675 560 681 567 q 664 547 669 554 q 643 529 654 536 q 621 515 632 522 q 610 508 615 513 q 603 496 606 504 q 599 492 601 493 q 596 489 597 490 q 576 476 585 486 q 557 458 567 465 q 541 444 549 451 q 525 431 533 436 q 506 415 514 425 q 488 397 497 406 q 474 384 481 390 q 461 371 467 378 q 420 324 442 344 q 378 282 399 303 q 375 279 375 279 q 353 242 365 257 q 325 215 340 226 q 322 213 322 213 q 303 172 317 188 q 281 135 290 156 q 294 132 288 133 q 307 131 300 131 l 413 144 l 496 153 q 526 158 511 156 q 557 161 542 160 q 582 164 569 164 q 607 165 594 164 l 657 169 q 678 168 668 169 q 697 167 688 167 q 731 168 714 168 q 764 171 747 168 q 806 164 782 171 q 811 163 808 160 q 826 165 819 169 q 840 160 833 161 q 853 157 847 157 q 865 160 858 157 q 889 158 876 164 q 906 153 897 153 q 925 156 915 153 q 933 154 929 156 q 942 151 938 153 l 999 140 q 997 139 999 139 q 997 136 997 138 q 996 133 996 135 q 1002 133 999 133 q 1008 132 1006 132 q 1001 127 1003 124 q 996 133 999 131 q 988 125 993 124 q 975 122 983 125 l 975 117 q 997 116 986 117 q 1018 114 1007 115 q 999 105 1014 110 q 968 97 983 100 q 940 94 954 96 q 913 90 926 92 q 885 90 899 89 q 857 93 872 92 q 869 85 864 82 q 879 85 875 88 q 878 67 879 74 q 838 64 858 67 q 796 50 818 61 q 799 56 799 53 q 800 61 799 58 l 799 64 q 783 63 790 61 q 768 51 775 65 q 763 50 767 50 q 747 47 754 53 q 733 33 740 40 l 725 43 q 729 50 725 43 l 710 53 q 740 72 725 68 q 772 79 756 76 q 758 94 765 89 q 742 96 751 99 q 738 95 739 94 q 733 96 736 96 q 719 99 725 99 q 706 94 713 96 q 692 103 699 93 q 685 103 688 106 q 668 98 676 97 q 651 99 660 99 q 642 95 647 100 q 633 93 638 90 q 624 96 628 96 q 615 94 619 96 q 599 90 607 92 q 581 90 590 88 q 572 75 572 92 q 548 61 561 64 q 522 57 535 58 q 495 56 508 54 q 468 57 482 58 q 446 51 457 56 q 424 44 435 47 q 417 42 421 43 q 411 46 414 42 q 404 47 410 50 l 372 38 q 356 19 361 33 q 349 12 353 15 q 343 11 346 8 q 334 13 338 14 q 326 8 331 11 q 314 6 319 6 q 301 4 308 6 l 299 10 l 310 18 q 309 20 310 19 q 308 22 308 21 q 305 23 306 22 q 303 24 304 24 q 246 6 276 8 q 231 3 239 4 q 215 6 222 3 q 202 6 208 8 q 189 4 196 4 q 174 2 182 6 q 160 6 167 -1 q 146 4 156 10 q 114 3 132 -4 q 109 1 111 4 q 104 -1 107 -3 q 99 2 101 0 q 94 1 97 4 q 84 -3 89 -1 q 74 -7 79 -4 q 64 -8 65 -10 q 52 -6 57 -3 q 42 -11 47 -8 q 33 -15 38 -12 q 24 -12 29 -18 l 21 -15 l -1 -26 q -7 -28 -4 -28 q -12 -31 -10 -28 q -36 -41 -24 -40 q -61 -47 -49 -42 q -85 -40 -72 -54 q -60 -39 -72 -40 q -35 -26 -49 -37 q -49 -28 -47 -26 q -63 -31 -56 -33 q -79 -26 -71 -29 q -89 15 -103 -17 q -83 27 -86 22 q -74 35 -81 32 q -65 44 -68 36 q -56 58 -61 51 q -67 74 -61 68 q -72 92 -72 81 q -65 101 -68 96 q -58 108 -61 106 q -47 111 -53 114 q -34 102 -40 107 q -21 94 -28 97 q 22 101 1 85 q 42 122 33 110 q 61 146 50 135 q 74 160 68 153 q 85 175 79 168 q 90 167 88 171 q 94 163 92 164 q 99 165 97 161 q 103 171 100 168 q 108 179 106 175 q 114 186 111 183 l 117 183 l 110 168 l 110 165 q 118 173 114 169 q 126 182 122 176 q 165 228 144 208 q 204 269 185 249 q 247 310 225 290 q 290 351 269 329 q 319 378 304 367 q 349 403 333 389 q 369 422 360 411 q 389 443 379 432 q 393 447 392 444 q 396 450 394 449 q 422 471 411 457 q 446 497 433 485 l 458 508 q 475 521 467 515 q 492 532 483 526 l 507 542 l 513 546 q 519 559 515 557 q 531 563 524 561 q 535 565 532 563 l 592 619 l 597 624 q 608 633 603 629 q 615 647 613 636 q 624 659 618 654 q 638 668 631 664 q 663 687 651 675 q 686 711 675 699 q 706 731 697 722 q 726 749 715 740 q 730 751 728 751 q 735 753 732 751 l 763 774 l 778 786 q 802 802 790 794 q 825 819 814 810 q 836 827 831 825 q 847 832 842 829 q 871 847 858 840 q 894 871 883 853 q 885 874 886 874 q 883 876 883 875 l 894 882 q 900 886 897 885 q 906 890 903 888 q 915 908 911 894 l 906 901 q 890 892 897 896 q 874 888 882 888 q 864 883 868 888 q 854 874 860 878 l 833 853 q 821 842 826 846 q 807 840 815 838 q 798 838 803 842 q 789 829 793 833 q 776 818 782 822 q 763 808 769 814 q 733 790 749 793 q 704 772 717 786 q 697 767 701 768 q 685 763 692 765 q 693 775 689 771 q 701 782 697 779 l 743 813 q 753 815 749 815 q 776 829 764 814 q 783 837 779 835 q 792 842 788 839 q 818 854 804 850 q 843 872 832 858 q 847 875 846 875 q 851 876 849 875 q 851 885 853 883 q 846 889 849 886 q 853 908 847 901 q 865 919 858 914 l 897 946 l 903 953 l 893 964 l 914 978 l 910 961 q 935 993 925 971 q 922 1002 928 1003 q 908 999 915 1001 q 903 996 906 996 q 897 993 900 996 q 875 984 886 985 q 853 975 864 983 q 799 953 829 956 q 777 944 788 951 q 757 929 767 938 q 704 906 731 910 q 663 897 683 900 q 622 888 643 894 q 601 884 611 885 q 578 882 590 883 l 572 900 l 558 892 l 496 850 q 483 843 489 846 q 471 838 478 840 l 454 824 l 431 806 q 412 794 421 800 q 393 786 403 789 q 363 775 378 779 q 332 767 347 771 q 319 761 325 764 q 306 757 313 758 q 208 732 254 742 q 172 722 189 726 q 135 715 154 717 q 91 719 113 714 q 51 751 69 724 q 15 809 32 779 q -15 875 -3 839 q -15 922 -24 897 l -3 913 q -2 919 -3 915 q -1 926 -1 922 l 6 921 q 6 924 6 922 q 7 926 7 925 l 0 943 q 7 979 -10 968 l 14 983 l 36 967 q 38 954 38 963 q 69 958 54 949 q 99 969 83 967 l 101 965 q 97 960 99 963 q 92 956 94 958 l 92 953 l 118 961 q 149 973 133 968 q 182 983 165 978 q 193 990 188 986 q 206 983 199 994 l 229 993 l 240 1000 l 231 978 l 233 972 q 245 971 240 974 q 256 967 250 968 q 281 965 268 964 q 307 967 294 967 q 315 972 313 967 q 321 982 318 976 q 338 985 329 985 q 354 1000 347 986 q 353 1006 354 1003 q 353 1014 353 1010 l 365 1014 q 375 1013 369 1014 q 385 1015 381 1013 q 410 1024 397 1024 q 436 1025 422 1024 q 501 1031 468 1028 q 568 1036 535 1033 q 597 1039 583 1039 q 625 1042 610 1039 q 653 1047 639 1044 q 682 1051 667 1049 q 693 1057 688 1053 q 704 1061 699 1061 q 740 1064 722 1060 q 775 1068 757 1068 q 801 1069 789 1068 q 828 1074 814 1071 q 852 1082 840 1075 q 875 1096 864 1089 q 886 1101 883 1101 q 919 1110 903 1104 q 954 1119 936 1117 q 960 1123 957 1121 q 965 1125 963 1125 q 978 1129 972 1125 q 990 1126 983 1133 q 998 1126 993 1124 q 1007 1131 1003 1128 l 1051 1146 q 1058 1149 1054 1147 q 1064 1154 1061 1151 q 1069 1158 1067 1156 q 1074 1160 1072 1161 q 1083 1156 1081 1153 q 1089 1165 1086 1160 q 1101 1174 1094 1175 q 1115 1176 1108 1174 q 1117 1176 1117 1176 q 1119 1175 1118 1175 q 1154 1181 1135 1185 l 1156 1181 q 1174 1192 1165 1199 q 1189 1172 1182 1185 q 1215 1176 1207 1183 q 1224 1139 1222 1168 q 1272 1153 1247 1146 q 1321 1167 1296 1160 m 444 69 q 440 68 442 69 q 435 65 438 67 q 478 65 458 65 q 519 65 499 64 q 530 68 525 65 q 540 74 535 71 l 540 81 q 535 85 538 83 q 531 88 533 88 q 522 87 526 88 q 514 86 518 86 q 500 87 507 86 q 486 85 493 88 q 465 78 475 82 q 444 69 456 74 m 682 532 q 686 539 682 535 l 738 574 q 734 566 735 569 q 731 560 733 563 q 716 544 728 556 q 691 522 704 533 q 667 502 678 511 q 651 492 656 493 q 663 503 658 499 q 672 513 668 507 q 679 520 675 517 q 682 532 683 524 m 958 83 l 958 79 q 956 78 957 79 q 953 76 954 76 q 936 75 944 76 q 918 74 928 74 q 906 70 911 74 q 893 72 900 67 q 886 83 892 74 l 958 83 m 203 308 q 193 307 200 307 q 192 310 193 310 q 192 314 192 311 q 222 340 208 324 q 256 360 236 357 l 243 349 l 203 308 m 753 142 q 758 126 753 126 q 775 125 767 125 q 790 125 783 125 q 794 133 789 125 l 771 136 l 775 149 q 763 144 768 146 q 753 142 758 143 m 468 24 q 479 17 474 15 q 490 18 485 19 q 468 8 479 4 q 446 7 457 13 q 445 9 446 8 q 444 11 444 10 l 465 24 q 468 24 468 24 m 308 413 q 278 383 294 388 q 308 413 288 408 m 782 622 l 801 643 q 800 626 808 632 l 786 615 l 782 622 m 490 603 q 507 619 497 614 q 526 626 517 624 q 510 610 519 615 q 490 603 500 606 m 808 93 q 800 91 801 92 q 797 86 799 90 q 810 85 804 88 q 824 89 817 82 q 822 96 822 92 q 808 93 814 93 m 849 138 q 883 135 871 122 l 849 138 m 985 776 q 982 781 982 779 l 989 801 q 990 785 992 790 q 985 776 989 779 m 93 15 q 103 15 99 18 q 114 24 108 13 q 102 23 107 21 q 93 15 97 25 m 468 360 q 458 340 472 342 l 468 360 m 708 144 q 701 147 706 147 q 692 140 697 147 l 708 140 l 708 144 m 674 131 q 666 135 669 133 q 658 132 663 138 q 659 129 658 131 q 660 126 660 128 l 674 131 m 886 126 l 900 126 l 894 138 l 886 126 m 900 707 q 903 721 900 718 q 910 726 907 724 q 913 724 910 726 q 907 717 910 721 q 900 707 904 713 m 694 43 q 700 56 697 51 q 703 47 703 47 q 699 40 701 40 q 694 43 697 40 m 849 93 q 842 93 846 93 q 836 85 839 93 l 850 88 q 849 93 849 89 m 596 471 q 593 459 594 460 q 585 461 592 458 l 596 471 m 1247 1060 q 1248 1058 1247 1058 q 1249 1056 1249 1057 l 1235 1046 l 1235 1051 l 1247 1060 m 653 126 q 640 126 644 140 l 653 126 m 444 322 q 456 340 444 340 l 444 322 m 631 503 q 624 486 633 486 l 631 503 m 825 139 l 825 133 q 838 135 829 135 l 838 139 l 825 139 m 301 981 q 310 981 306 981 q 319 982 315 981 l 301 975 l 301 981 m 647 736 q 649 731 649 735 l 640 726 q 639 729 640 726 l 647 736 m 564 85 q 561 79 561 82 q 563 76 561 76 q 565 80 564 79 q 569 83 567 81 l 567 88 q 564 85 564 85 m 515 18 q 522 26 518 26 q 529 26 525 26 l 515 18 m 614 79 q 619 81 615 81 l 619 78 l 611 72 q 610 75 611 72 l 614 79 m 297 986 q 297 989 297 988 q 296 992 296 990 q 299 992 299 992 q 303 993 300 993 l 303 990 l 297 986 m 594 79 l 603 79 l 603 75 l 594 78 l 594 79 m 961 122 l 961 118 q 964 119 963 118 q 967 119 965 119 l 967 122 l 961 122 z "}}}
